<svg xmlns="http://www.w3.org/2000/svg" xmlns:xlink="http://www.w3.org/1999/xlink" width="1080" zoomAndPan="magnify" viewBox="0 0 810 809.999993" height="1080" preserveAspectRatio="xMidYMid meet" version="1.0"><path fill="#e5998a" d="M 584.070312 149.171875 C 573.632812 176.464844 558.800781 199.117188 539.429688 217.941406 C 529.660156 227.433594 519.113281 228.277344 512.035156 224.609375 C 510.320312 229.773438 508.824219 234.625 506.519531 240.351562 C 483.011719 267.660156 430.25 255.109375 424.242188 223.542969 C 436.261719 204.003906 444.921875 186.34375 448.664062 153.453125 C 426.269531 134.390625 440.058594 106.214844 455.90625 97.894531 C 499.71875 93.550781 543.910156 98.085938 587.09375 106.503906 C 592.339844 118.40625 590.457031 132.472656 584.070312 149.171875 " fill-opacity="1" fill-rule="evenodd"/><path fill="#d6723b" d="M 579.335938 168.695312 C 573.703125 177.261719 559.496094 159.117188 558.429688 151.949219 C 557.558594 146.160156 563.921875 137.671875 569.902344 149.160156 C 576.523438 161.886719 582.511719 163.867188 579.335938 168.695312 " fill-opacity="1" fill-rule="evenodd"/><path fill="#d6723b" d="M 540.316406 147.273438 C 546.976562 143.40625 546.722656 129.773438 537.484375 134.253906 C 533.480469 136.191406 527.683594 138.101562 521.878906 135.472656 C 512.308594 131.132812 508.199219 138.394531 516.363281 145.378906 C 519.582031 148.128906 531.25 152.550781 540.316406 147.273438 " fill-opacity="1" fill-rule="evenodd"/><path fill="#1d2144" d="M 525.804688 152.496094 C 523.558594 152.496094 521.726562 154.355469 521.726562 156.648438 C 521.726562 158.941406 523.558594 160.800781 525.804688 160.800781 C 528.058594 160.800781 529.882812 158.941406 529.882812 156.648438 C 529.882812 154.355469 528.058594 152.496094 525.804688 152.496094 " fill-opacity="1" fill-rule="evenodd"/><path fill="#1d2144" d="M 560.976562 165.730469 C 558.722656 165.730469 556.898438 167.585938 556.898438 169.882812 C 556.898438 172.175781 558.722656 174.035156 560.976562 174.035156 C 563.230469 174.035156 565.054688 172.175781 565.054688 169.882812 C 565.054688 167.585938 563.230469 165.730469 560.976562 165.730469 " fill-opacity="1" fill-rule="evenodd"/><path fill="#1d2144" d="M 470.628906 272.914062 C 438.492188 272.914062 410.496094 254.769531 395.371094 223.972656 C 395.226562 223.675781 395.347656 223.316406 395.644531 223.171875 C 395.933594 223.027344 396.296875 223.148438 396.4375 223.445312 C 411.753906 254.625 440.421875 272.660156 473.15625 271.683594 C 497.925781 270.945312 519.507812 258.667969 526.855469 241.136719 C 526.980469 240.835938 527.332031 240.691406 527.636719 240.820312 C 527.9375 240.945312 528.078125 241.296875 527.949219 241.601562 C 524.179688 250.597656 516.914062 258.316406 506.933594 263.921875 C 497.160156 269.410156 485.496094 272.507812 473.191406 272.871094 C 472.335938 272.902344 471.480469 272.914062 470.628906 272.914062 " fill-opacity="1" fill-rule="nonzero"/><path fill="#e1877d" d="M 503.441406 154.539062 C 499.015625 154.539062 495.421875 158.140625 495.421875 162.578125 C 495.421875 167.007812 499.015625 170.617188 503.441406 170.617188 C 507.867188 170.617188 511.453125 167.007812 511.453125 162.578125 C 511.453125 158.140625 507.867188 154.539062 503.441406 154.539062 " fill-opacity="1" fill-rule="evenodd"/><path fill="#b37165" d="M 538.847656 184.535156 C 539.265625 184.535156 539.679688 184.480469 540.078125 184.371094 C 543.535156 183.4375 545.691406 178.722656 547.0625 169.074219 C 547.128906 168.574219 546.78125 168.113281 546.277344 168.039062 C 545.777344 167.972656 545.316406 168.316406 545.242188 168.820312 C 544.042969 177.277344 542.144531 181.917969 539.601562 182.601562 C 537.273438 183.226562 533.867188 180.726562 529.496094 175.175781 C 529.179688 174.773438 528.605469 174.707031 528.207031 175.015625 C 527.8125 175.332031 527.738281 175.910156 528.054688 176.308594 C 532.4375 181.875 535.910156 184.535156 538.847656 184.535156 " fill-opacity="1" fill-rule="nonzero"/><path fill="#b37165" d="M 527.113281 195.15625 C 527.597656 195.15625 528.003906 194.773438 528.03125 194.285156 C 528.277344 189.058594 524.503906 183.722656 518.625 181.007812 C 511.957031 177.921875 504.792969 179.066406 499.460938 184.070312 C 499.089844 184.414062 499.070312 184.996094 499.417969 185.367188 C 499.761719 185.734375 500.34375 185.753906 500.714844 185.410156 C 505.484375 180.941406 511.890625 179.914062 517.859375 182.667969 C 523.058594 185.074219 526.410156 189.707031 526.199219 194.191406 C 526.175781 194.703125 526.5625 195.132812 527.070312 195.15625 C 527.085938 195.15625 527.101562 195.15625 527.113281 195.15625 " fill-opacity="1" fill-rule="nonzero"/><path fill="#b37165" d="M 470.738281 131.535156 C 470.917969 131.535156 471.105469 131.484375 471.269531 131.367188 C 471.683594 131.070312 471.773438 130.5 471.480469 130.082031 C 466.480469 123.105469 460.621094 119.011719 455.554688 115.925781 C 455.125 115.660156 454.558594 115.800781 454.292969 116.230469 C 454.027344 116.664062 454.167969 117.230469 454.601562 117.492188 C 459.511719 120.480469 465.179688 124.445312 469.992188 131.15625 C 470.167969 131.402344 470.453125 131.535156 470.738281 131.535156 " fill-opacity="1" fill-rule="nonzero"/><path fill="#b37165" d="M 457.609375 134.59375 C 457.90625 134.59375 458.195312 134.445312 458.378906 134.179688 C 459.511719 132.453125 460.730469 130.695312 462.015625 128.828125 C 462.914062 127.53125 463.859375 126.164062 464.863281 124.675781 C 465.148438 124.257812 465.039062 123.6875 464.621094 123.402344 C 464.203125 123.117188 463.628906 123.226562 463.347656 123.644531 C 462.34375 125.128906 461.398438 126.492188 460.507812 127.785156 C 459.214844 129.65625 457.992188 131.429688 456.84375 133.167969 C 456.566406 133.59375 456.679688 134.164062 457.105469 134.441406 C 457.261719 134.542969 457.433594 134.59375 457.609375 134.59375 " fill-opacity="1" fill-rule="nonzero"/><path fill="#b37165" d="M 511.167969 224.378906 C 511.554688 224.378906 511.921875 224.125 512.042969 223.722656 C 512.191406 223.246094 511.921875 222.730469 511.433594 222.582031 C 499.441406 218.921875 492.125 214.351562 482.445312 204.460938 C 482.09375 204.105469 481.511719 204.097656 481.148438 204.449219 C 480.792969 204.808594 480.785156 205.382812 481.136719 205.75 C 491.066406 215.882812 498.574219 220.570312 510.894531 224.335938 C 510.988281 224.367188 511.078125 224.378906 511.167969 224.378906 " fill-opacity="1" fill-rule="nonzero"/><path fill="#d6723b" d="M 579.273438 113.089844 C 586.730469 114.210938 586.191406 136.902344 583.027344 146.953125 C 581.203125 152.714844 594.933594 148.214844 598.785156 148.007812 C 605.625 147.644531 608.53125 155.738281 616.167969 147.84375 C 626.992188 136.652344 615.453125 121.996094 611.214844 114.8125 C 607.273438 108.140625 623.335938 100.867188 616.347656 87.085938 C 613.585938 81.636719 608.492188 78.988281 605.589844 73.539062 C 603.71875 70.003906 602.753906 51.457031 589.164062 42.945312 C 577.953125 35.917969 569.007812 42.636719 561.800781 38.101562 C 551.777344 31.796875 546.582031 20.285156 533.695312 17.933594 C 517.8125 15.039062 508.367188 31.074219 505.421875 32.5625 C 497.421875 36.617188 485.523438 27.339844 475.445312 34.847656 C 468.664062 39.902344 470.972656 48.566406 464.25 52.894531 C 457.335938 57.34375 436.886719 58.957031 434.753906 71.507812 C 432.433594 85.136719 448.183594 86.488281 450.046875 88.136719 C 453.535156 91.214844 451.328125 98.003906 455.851562 100.25 C 459.640625 102.140625 466.707031 100.78125 469.863281 103.878906 C 473.609375 107.570312 475.792969 120.769531 482.726562 119.890625 C 485.660156 119.519531 494.300781 116.132812 496.53125 114.300781 C 504.34375 107.851562 510.695312 100.878906 521.066406 102.933594 C 528.9375 104.492188 519.714844 107.898438 517.332031 110.210938 C 511.324219 116.023438 515.554688 118.066406 521.773438 116.640625 C 524.921875 115.921875 528.503906 115.046875 530.242188 114.554688 C 537.320312 112.554688 547.128906 116.761719 553.855469 118.316406 C 570.339844 122.128906 576.203125 114.878906 579.273438 113.089844 " fill-opacity="1" fill-rule="evenodd"/><path fill="#5e65b4" d="M 530.601562 641.757812 L 533.167969 780.234375 C 489.90625 791.929688 437.0625 795 382.328125 793.035156 L 382.703125 759.175781 L 368.507812 792.53125 C 292.371094 791.332031 241.402344 784.265625 207.476562 769.761719 L 217.597656 636.628906 L 530.601562 641.757812 " fill-opacity="1" fill-rule="evenodd"/><path fill="#ef6c67" d="M 507.804688 237.0625 C 600.644531 241.523438 633.148438 286.238281 645.488281 331.277344 C 651.070312 351.660156 661.640625 382.25 666.027344 417.007812 C 640.113281 434.910156 607.289062 450.386719 574.523438 455.503906 C 571.753906 447.96875 570.851562 440.574219 569.078125 433.074219 C 540.925781 482.09375 531.613281 580.28125 530.8125 645.34375 C 422.910156 665.152344 311.828125 658.484375 204.976562 639.269531 C 214.199219 554.300781 224.207031 478.667969 259.28125 421.613281 C 230.316406 414.746094 202.570312 396.6875 180.09375 377.515625 C 240.78125 254.988281 277.4375 213.585938 424.65625 222.855469 C 441.515625 260.480469 493.410156 258.097656 507.804688 237.0625 " fill-opacity="1" fill-rule="evenodd"/><path fill="#e5998a" d="M 472.039062 599.816406 C 465.875 599.761719 447.359375 600.410156 440.414062 600.234375 C 417.675781 599.660156 400.285156 598.3125 376.898438 593.675781 C 372.617188 592.820312 358.597656 590.269531 356.8125 585.417969 C 355.449219 581.714844 362.769531 581.324219 364.570312 581.507812 C 375.230469 582.59375 406.808594 586.449219 406.929688 585.023438 C 406.929688 584.949219 407.21875 585.023438 407.140625 585.023438 C 400.523438 585.023438 356.683594 574.390625 345.003906 566.210938 C 341.585938 563.816406 330.050781 555.570312 331.707031 550.1875 C 333.269531 545.109375 343.417969 551.207031 344.902344 549.230469 C 344.980469 549.121094 339.527344 545.824219 338.125 544.648438 C 335.160156 542.167969 329.082031 538.507812 331.960938 534.269531 C 336.078125 528.199219 349.339844 534.160156 353.257812 535.785156 C 394.375 552.824219 417.660156 555.449219 417.710938 555.257812 C 417.789062 554.949219 381.316406 539.476562 371.574219 532.667969 C 367.53125 529.84375 357.691406 522.773438 361.871094 516.5 C 364.855469 512.023438 374.878906 517.191406 377.992188 518.953125 C 392.261719 527.003906 399.074219 529.699219 412.878906 535.097656 C 417.6875 536.972656 428.875 539.402344 430.929688 536.140625 C 433.457031 532.128906 432.246094 529.371094 413.691406 509.253906 C 410.605469 505.914062 412.539062 499.105469 416.09375 497.710938 C 421.558594 495.554688 429.261719 505.816406 433.292969 508.8125 C 440.328125 514.03125 449.113281 516.433594 455.519531 522.28125 C 461.949219 528.15625 467.765625 541.695312 479.125 538.027344 C 496.011719 532.558594 512.78125 526.066406 528.363281 517.667969 C 546.710938 507.78125 574.066406 495.839844 577.457031 491.480469 C 581.996094 485.621094 574.378906 455.207031 574.414062 455.195312 C 629.023438 442.09375 665.34375 417.527344 665.847656 415.46875 C 665.867188 415.40625 676.464844 518.457031 666.070312 540.644531 C 644.738281 586.15625 490.355469 599.96875 472.039062 599.816406 " fill-opacity="1" fill-rule="evenodd"/><path fill="#e5998a" d="M 452.214844 598.320312 C 456.257812 599.136719 458.5 608.78125 451.261719 611.390625 C 445.652344 613.410156 434.746094 613.886719 428.097656 613.773438 C 416.417969 613.566406 395.101562 610.582031 385.242188 609.171875 C 383.230469 608.878906 412.527344 619.011719 423.316406 621.636719 C 429.40625 623.125 430.601562 626.359375 428.214844 629.019531 C 423.242188 634.554688 401.386719 628.929688 392.417969 626.425781 C 362.308594 618.027344 352.921875 615.3125 333.058594 600.917969 C 326.671875 596.292969 311.773438 594.21875 296.949219 587.546875 C 260.765625 571.242188 204.867188 549.945312 171.828125 527.492188 C 155.871094 516.644531 143.753906 503.246094 140.039062 486.375 C 134.960938 463.324219 180.507812 376.539062 180.542969 376.601562 C 190.253906 388.519531 238.382812 417.082031 259.445312 421.542969 C 260.226562 421.699219 237.660156 457.304688 240.855469 465.574219 C 245.605469 477.875 303.136719 516.535156 316.058594 526.164062 C 337.296875 541.984375 362.429688 557.996094 386.902344 570.503906 C 405.375 579.941406 448.585938 597.574219 452.214844 598.320312 " fill-opacity="1" fill-rule="evenodd"/><path fill="#1d2144" d="M 408.03125 380.960938 C 382.671875 377.09375 359.339844 368.746094 336.769531 355.46875 L 313.519531 417.492188 C 323.324219 434.214844 332.9375 445.628906 339.914062 448.828125 C 345.054688 451.195312 369.53125 447.179688 383.363281 440.710938 Z M 339.148438 450.496094 C 328.6875 445.695312 316.476562 426.199219 311.710938 418.039062 C 311.574219 417.800781 311.546875 417.515625 311.644531 417.257812 L 335.429688 353.800781 C 335.523438 353.546875 335.730469 353.34375 335.984375 353.253906 C 336.242188 353.164062 336.523438 353.195312 336.761719 353.332031 C 359.757812 367.011719 383.539062 375.511719 409.457031 379.316406 C 409.742188 379.359375 409.984375 379.53125 410.121094 379.773438 C 410.261719 380.019531 410.28125 380.316406 410.171875 380.578125 L 384.925781 441.742188 C 384.835938 441.953125 384.679688 442.125 384.472656 442.222656 C 375.453125 446.515625 356 451.394531 345.148438 451.394531 C 342.585938 451.394531 340.496094 451.121094 339.148438 450.496094 " fill-opacity="1" fill-rule="nonzero"/><path fill="#1d2144" d="M 260.570312 421.601562 C 260.867188 421.601562 261.152344 421.464844 261.328125 421.203125 L 293.921875 373.570312 C 294.207031 373.152344 294.097656 372.582031 293.679688 372.296875 C 293.261719 372.011719 292.695312 372.121094 292.410156 372.535156 L 259.820312 420.167969 C 259.527344 420.585938 259.636719 421.15625 260.054688 421.4375 C 260.214844 421.546875 260.394531 421.601562 260.570312 421.601562 " fill-opacity="1" fill-rule="nonzero"/><path fill="#1d2144" d="M 273.460938 401.390625 C 273.867188 401.390625 274.246094 401.117188 274.347656 400.699219 C 274.472656 400.207031 274.175781 399.710938 273.6875 399.585938 C 247.878906 392.957031 199.332031 361.09375 194.695312 353.0625 C 194.441406 352.617188 193.878906 352.472656 193.441406 352.726562 C 193.003906 352.976562 192.851562 353.539062 193.109375 353.976562 C 198.515625 363.347656 247.933594 394.867188 273.230469 401.359375 C 273.304688 401.378906 273.382812 401.390625 273.460938 401.390625 " fill-opacity="1" fill-rule="nonzero"/><path fill="#b37165" d="M 239.667969 467.042969 C 239.898438 467.042969 240.128906 466.949219 240.308594 466.773438 C 240.671875 466.421875 240.679688 465.839844 240.320312 465.476562 C 228.746094 453.636719 221.777344 448.640625 203.34375 442.398438 C 202.859375 442.234375 202.339844 442.496094 202.179688 442.972656 C 202.015625 443.453125 202.273438 443.972656 202.75 444.136719 C 220.835938 450.261719 227.660156 455.152344 239.011719 466.761719 C 239.195312 466.945312 239.429688 467.042969 239.667969 467.042969 " fill-opacity="1" fill-rule="nonzero"/><path fill="#1d2144" d="M 569.425781 432.746094 C 569.472656 432.746094 569.515625 432.738281 569.566406 432.734375 C 600.65625 428.167969 634.199219 414.863281 661.582031 396.242188 C 662 395.957031 662.109375 395.390625 661.824219 394.964844 C 661.539062 394.546875 660.96875 394.4375 660.542969 394.722656 C 633.386719 413.195312 600.128906 426.386719 569.296875 430.921875 C 568.796875 430.992188 568.449219 431.460938 568.523438 431.957031 C 568.589844 432.417969 568.984375 432.746094 569.425781 432.746094 " fill-opacity="1" fill-rule="nonzero"/><path fill="#1d2144" d="M 569.214844 432.777344 C 569.582031 432.777344 569.933594 432.546875 570.074219 432.175781 C 578.117188 410.109375 584.746094 383.320312 589.789062 352.539062 C 589.867188 352.042969 589.527344 351.570312 589.03125 351.484375 C 588.527344 351.410156 588.054688 351.746094 587.976562 352.242188 C 582.953125 382.90625 576.351562 409.585938 568.347656 431.546875 C 568.175781 432.019531 568.417969 432.546875 568.898438 432.722656 C 569 432.757812 569.105469 432.777344 569.214844 432.777344 " fill-opacity="1" fill-rule="nonzero"/><path fill="#b37165" d="M 633.90625 502.839844 C 634.28125 502.839844 634.628906 502.617188 634.765625 502.246094 C 634.941406 501.765625 634.699219 501.238281 634.226562 501.0625 C 618.457031 495.238281 600.585938 488.636719 578.796875 490.699219 C 578.292969 490.738281 577.921875 491.1875 577.972656 491.691406 C 578.019531 492.199219 578.460938 492.558594 578.964844 492.523438 C 600.339844 490.503906 618.003906 497.03125 633.589844 502.785156 C 633.695312 502.824219 633.796875 502.839844 633.90625 502.839844 " fill-opacity="1" fill-rule="nonzero"/><path fill="#1d2144" d="M 383.585938 758.890625 C 383.671875 758.890625 383.757812 758.878906 383.84375 758.847656 C 397.296875 754.875 409.054688 742.207031 417.835938 722.210938 C 425.820312 704.035156 430.691406 681.167969 431.566406 657.816406 C 431.589844 657.308594 431.191406 656.882812 430.6875 656.863281 C 430.164062 656.847656 429.753906 657.238281 429.734375 657.742188 C 428.160156 699.878906 412.347656 746.722656 385.078125 756.519531 C 394.117188 730.867188 401.550781 694.46875 405.050781 658.628906 C 405.097656 658.125 404.734375 657.675781 404.226562 657.621094 C 403.714844 657.574219 403.273438 657.941406 403.226562 658.445312 C 399.65625 694.980469 391.996094 732.0625 382.722656 757.660156 C 382.605469 757.988281 382.679688 758.34375 382.914062 758.597656 C 383.089844 758.785156 383.332031 758.890625 383.585938 758.890625 " fill-opacity="1" fill-rule="nonzero"/><path fill="#1d2144" d="M 231.183594 776.457031 C 231.679688 776.457031 232.085938 776.066406 232.097656 775.566406 C 232.957031 740.320312 239.867188 694.058594 251.054688 648.632812 C 251.175781 648.140625 250.875 647.644531 250.382812 647.523438 C 249.890625 647.402344 249.394531 647.699219 249.273438 648.1875 C 238.054688 693.742188 231.128906 740.152344 230.261719 775.519531 C 230.25 776.027344 230.648438 776.445312 231.15625 776.457031 C 231.164062 776.457031 231.175781 776.457031 231.183594 776.457031 " fill-opacity="1" fill-rule="nonzero"/><path fill="#c05e28" d="M 569.769531 167.382812 C 570.28125 167.382812 570.691406 166.976562 570.691406 166.46875 C 570.699219 162.570312 571.460938 159.703125 573.027344 157.707031 C 573.339844 157.316406 573.269531 156.738281 572.867188 156.421875 C 572.472656 156.113281 571.890625 156.179688 571.582031 156.582031 C 569.757812 158.910156 568.863281 162.140625 568.855469 166.46875 C 568.855469 166.972656 569.269531 167.382812 569.769531 167.382812 " fill-opacity="1" fill-rule="nonzero"/><path fill="#c05e28" d="M 565.515625 162.570312 C 565.996094 162.570312 566.394531 162.207031 566.429688 161.722656 C 566.714844 157.96875 569.011719 154.199219 570.472656 152.835938 C 570.84375 152.488281 570.863281 151.90625 570.515625 151.539062 C 570.171875 151.167969 569.589844 151.148438 569.21875 151.488281 C 567.5 153.101562 564.929688 157.300781 564.601562 161.582031 C 564.566406 162.09375 564.941406 162.535156 565.449219 162.570312 C 565.472656 162.570312 565.492188 162.570312 565.515625 162.570312 " fill-opacity="1" fill-rule="nonzero"/><path fill="#c05e28" d="M 531.800781 148.476562 C 532.042969 148.476562 532.285156 148.378906 532.464844 148.183594 C 535.546875 144.886719 537.113281 140.121094 536.277344 136.597656 C 536.15625 136.109375 535.667969 135.804688 535.175781 135.921875 C 534.679688 136.035156 534.375 136.53125 534.492188 137.023438 C 535.085938 139.519531 534.121094 143.730469 531.125 146.929688 C 530.78125 147.300781 530.800781 147.882812 531.167969 148.226562 C 531.351562 148.390625 531.574219 148.476562 531.800781 148.476562 " fill-opacity="1" fill-rule="nonzero"/><path fill="#c05e28" d="M 525.96875 148.667969 C 526.195312 148.667969 526.421875 148.585938 526.597656 148.414062 C 529.164062 145.976562 530.867188 142.566406 531.40625 138.816406 C 531.472656 138.316406 531.125 137.847656 530.625 137.78125 C 530.125 137.707031 529.660156 138.054688 529.585938 138.558594 C 529.113281 141.855469 527.570312 144.960938 525.339844 147.082031 C 524.96875 147.433594 524.949219 148.015625 525.300781 148.378906 C 525.484375 148.574219 525.726562 148.667969 525.96875 148.667969 " fill-opacity="1" fill-rule="nonzero"/><path fill="#b37165" d="M 452.675781 601.253906 C 440.933594 601.554688 390.265625 599.171875 374.097656 595.875 C 367.910156 594.613281 361.164062 593.65625 356.179688 591.164062 C 352.367188 589.261719 349.8125 587.332031 349.960938 584.101562 C 350.113281 580.816406 351.429688 579.550781 354.746094 578.804688 C 358.855469 577.871094 364.5625 578.792969 370.308594 579.464844 C 383.660156 581.023438 388.515625 581.3125 400.808594 582.703125 C 401.515625 582.78125 402.085938 582.945312 402.007812 583.652344 C 401.929688 584.363281 401.226562 584.476562 400.507812 584.394531 C 388.21875 583.011719 383.75 582.542969 370.398438 580.992188 C 364.96875 580.355469 359.101562 579.554688 355.21875 580.433594 C 353.191406 580.882812 351.761719 581.824219 351.664062 583.824219 C 351.554688 586.128906 353.5 587.722656 356.222656 589.085938 C 361.03125 591.484375 368.320312 592.867188 374.296875 594.09375 C 390.34375 597.359375 440.960938 599.730469 452.601562 599.429688 C 453.316406 599.414062 453.773438 599.644531 453.800781 600.367188 C 453.839844 601.332031 452.675781 601.253906 452.675781 601.253906 " fill-opacity="1" fill-rule="evenodd"/><path fill="#b37165" d="M 380.472656 582.015625 C 371.289062 580.214844 351.878906 574.195312 339.671875 566.496094 C 334.199219 563.054688 330.15625 559.320312 328.820312 555.742188 C 327.78125 552.972656 328.621094 550.660156 330.621094 549.152344 C 333.199219 547.21875 337.960938 547.121094 343.257812 549.386719 C 343.917969 549.667969 344.335938 550.019531 344.054688 550.671875 C 343.769531 551.335938 343.277344 551.304688 342.617188 551.023438 C 340.433594 550.085938 337.804688 549.492188 335.980469 549.527344 C 333.730469 549.582031 332.125 549.957031 330.929688 551.523438 C 330.148438 552.539062 330.367188 554.140625 330.761719 555.195312 C 331.960938 558.386719 335.699219 561.917969 340.582031 565 C 352.519531 572.527344 371.800781 578.683594 380.789062 580.441406 C 381.492188 580.574219 382.007812 580.851562 381.871094 581.554688 C 381.726562 582.257812 380.472656 582.015625 380.472656 582.015625 " fill-opacity="1" fill-rule="evenodd"/><path fill="#b37165" d="M 403.03125 570.375 C 392.351562 568.535156 370.429688 562.945312 357.257812 557.523438 C 345.585938 552.714844 339.035156 549.394531 335.296875 546.816406 C 331.148438 543.96875 330.445312 541.640625 330.027344 539.621094 C 329.882812 538.917969 330.101562 538.480469 330.796875 538.335938 C 331.5 538.191406 331.753906 538.765625 331.902344 539.46875 C 332.226562 541.046875 333.300781 543.367188 336.550781 545.605469 C 340.199219 548.121094 346.671875 551.175781 358.082031 555.863281 C 371.097656 561.222656 392.832031 566.75 403.375 568.570312 C 404.085938 568.699219 404.578125 569 404.480469 569.710938 C 404.359375 570.660156 403.03125 570.375 403.03125 570.375 " fill-opacity="1" fill-rule="evenodd"/></svg>