<?xml version="1.0" standalone="yes"?>
<svg xmlns="http://www.w3.org/2000/svg" width="1080" height="1080">
<path style="fill:#ffffff; stroke:none;" d="M0 0L0 1080L1080 1080L1080 0L0 0z"/>
<path style="fill:#d7955f; stroke:none;" d="M628 33L629 34L628 33z"/>
<path style="fill:#c86d58; stroke:none;" d="M632 33L633 34L632 33z"/>
<path style="fill:#262034; stroke:none;" d="M495 99C483.628 97.077 456.401 101.397 455 116C448.222 118.21 446.724 126.01 444.467 132C438.366 148.191 435.163 162.883 433 180C437.012 180 433.827 189.881 434 193C434.68 205.238 442.334 216.328 441 229C466.95 225.72 476.779 246.31 482.96 268C485.679 277.541 485.657 289.133 496 294C495.999 287.222 497.049 267.412 492 263C495.568 251.719 495.068 230.802 509 226L511.129 157L522 130C529.524 125.984 534.791 117.93 543 114.597C560.383 107.539 579.572 106.161 598 105.407C642.937 103.566 694.993 114.016 723.33 153.089C729.049 160.975 731.895 170.058 735.319 179C738.372 186.972 741.753 195.528 743 204C760.23 194.772 763.912 165.286 757 149L759 150C747.652 128.432 726.703 113.074 723 88L709 68C694.013 55.1785 680.391 42.8816 661 36.9043C624.647 25.6985 583.436 41.5557 550 55.0771C527.916 64.0077 501.12 73.2361 495 99z"/>
<path style="fill:#d7955f; stroke:none;" d="M638.667 33.3334L639.333 33.6666L638.667 33.3334z"/>
<path style="fill:#69b5bb; stroke:none;" d="M643 33L644 34L643 33z"/>
<path style="fill:#d7955f; stroke:none;" d="M644 33L645 34L644 33M619 34L620 35L619 34z"/>
<path style="fill:#c86d58; stroke:none;" d="M624 34L625 35L624 34z"/>
<path style="fill:#69b5bb; stroke:none;" d="M625.667 34.3334L626.333 34.6666L625.667 34.3334z"/>
<path style="fill:#c86d58; stroke:none;" d="M630 34L631 35L630 34M647 34L648 35L647 34z"/>
<path style="fill:#69b5bb; stroke:none;" d="M648 34L649 35L648 34z"/>
<path style="fill:#d7955f; stroke:none;" d="M649 34L650 35L649 34z"/>
<path style="fill:#69b5bb; stroke:none;" d="M609 35L610 36L609 35z"/>
<path style="fill:#c86d58; stroke:none;" d="M612 35L613 36L612 35z"/>
<path style="fill:#69b5bb; stroke:none;" d="M613 35L614 36L613 35z"/>
<path style="fill:#c86d58; stroke:none;" d="M614 35L615 36L614 35M652 35L653 36L652 35z"/>
<path style="fill:#69b5bb; stroke:none;" d="M653.667 35.3334L654.333 35.6666L653.667 35.3334z"/>
<path style="fill:#d7955f; stroke:none;" d="M655.667 35.3334L656.333 35.6666L655.667 35.3334z"/>
<path style="fill:#69b5bb; stroke:none;" d="M605 36L606 37L605 36z"/>
<path style="fill:#c86d58; stroke:none;" d="M606 36L607 37L606 36z"/>
<path style="fill:#69b5bb; stroke:none;" d="M660 36L661 37L660 36z"/>
<path style="fill:#d7955f; stroke:none;" d="M601 37L602 38L601 37z"/>
<path style="fill:#c86d58; stroke:none;" d="M602 37L603 38L602 37M662 37L663 38L662 37z"/>
<path style="fill:#d7955f; stroke:none;" d="M663 37L664 38L663 37M597 38L598 39L597 38z"/>
<path style="fill:#69b5bb; stroke:none;" d="M598 38L599 39L598 38z"/>
<path style="fill:#c86d58; stroke:none;" d="M599 38L600 39L599 38M665 38L666 39L665 38M594 39L595 40L594 39M667 39L668 40L667 39z"/>
<path style="fill:#d7955f; stroke:none;" d="M590.667 40.3334L591.333 40.6666L590.667 40.3334z"/>
<path style="fill:#69b5bb; stroke:none;" d="M592 40L593 41L592 40z"/>
<path style="fill:#c86d58; stroke:none;" d="M669 40L670 41L669 40z"/>
<path style="fill:#69b5bb; stroke:none;" d="M587 41L588 42L587 41z"/>
<path style="fill:#c86d58; stroke:none;" d="M671 41L672 42L671 41z"/>
<path style="fill:#d7955f; stroke:none;" d="M584 42L585 43L584 42z"/>
<path style="fill:#c86d58; stroke:none;" d="M585 42L586 43L585 42z"/>
<path style="fill:#d7955f; stroke:none;" d="M673 42L674 43L673 42M580 43L581 44L580 43z"/>
<path style="fill:#c86d58; stroke:none;" d="M581 43L582 44L581 43M675 43L676 44L675 43M576 44L577 45L576 44z"/>
<path style="fill:#69b5bb; stroke:none;" d="M578 44L579 45L578 44z"/>
<path style="fill:#d7955f; stroke:none;" d="M678 44L679 45L678 44M681 45L682 46L681 45M572 46L573 47L572 46M682 46L683 47L682 46M683 47L684 48L683 47z"/>
<path style="fill:#c86d58; stroke:none;" d="M684 47L685 48L684 47z"/>
<path style="fill:#d7955f; stroke:none;" d="M685 47L686 48L685 47z"/>
<path style="fill:#69b5bb; stroke:none;" d="M565 48L566 49L565 48z"/>
<path style="fill:#c86d58; stroke:none;" d="M567.667 48.3334L568.333 48.6666L567.667 48.3334M686 48L687 49L686 48z"/>
<path style="fill:#d7955f; stroke:none;" d="M688.333 49.6666L688.667 50.3334L688.333 49.6666z"/>
<path style="fill:#69b5bb; stroke:none;" d="M557 51L558 52L557 51z"/>
<path style="fill:#d7955f; stroke:none;" d="M689.667 51.3334L690.333 51.6666L689.667 51.3334z"/>
<path style="fill:#c86d58; stroke:none;" d="M555 52L556 53L555 52M553 53L554 54L553 53z"/>
<path style="fill:#d7955f; stroke:none;" d="M551 54L552 55L551 54M547 55L548 56L547 55z"/>
<path style="fill:#69b5bb; stroke:none;" d="M548 55L549 56L548 55z"/>
<path style="fill:#c86d58; stroke:none;" d="M549 55L550 56L549 55M694 55L695 56L694 55z"/>
<path style="fill:#d7955f; stroke:none;" d="M695 55L696 56L695 55z"/>
<path style="fill:#c86d58; stroke:none;" d="M545 56L546 57L545 56z"/>
<path style="fill:#d7955f; stroke:none;" d="M696 56L697 57L696 56z"/>
<path style="fill:#c86d58; stroke:none;" d="M543 57L544 58L543 57M541 58L542 59L541 58z"/>
<path style="fill:#d7955f; stroke:none;" d="M698 58L699 59L698 58z"/>
<path style="fill:#69b5bb; stroke:none;" d="M699 58L700 59L699 58z"/>
<path style="fill:#d7955f; stroke:none;" d="M537 59L538 60L537 59z"/>
<path style="fill:#c86d58; stroke:none;" d="M538 59L539 60L538 59z"/>
<path style="fill:#d7955f; stroke:none;" d="M700 59L701 60L700 59z"/>
<path style="fill:#c86d58; stroke:none;" d="M536 60L537 61L536 60z"/>
<path style="fill:#69b5bb; stroke:none;" d="M534 61L535 62L534 61z"/>
<path style="fill:#d7955f; stroke:none;" d="M701 61L702 62L701 61M532 62L533 63L532 62z"/>
<path style="fill:#69b5bb; stroke:none;" d="M530 63L531 64L530 63M528 64L529 65L528 64M525 66L526 67L525 66z"/>
<path style="fill:#c86d58; stroke:none;" d="M526 66L527 67L526 66z"/>
<path style="fill:#d7955f; stroke:none;" d="M522 67L523 68L522 67z"/>
<path style="fill:#c86d58; stroke:none;" d="M707 67L708 68L707 67z"/>
<path style="fill:#69b5bb; stroke:none;" d="M518 69L519 70L518 69z"/>
<path style="fill:#c86d58; stroke:none;" d="M519 69L520 70L519 69z"/>
<path style="fill:#d7955f; stroke:none;" d="M708 69L709 70L708 69M517 70L518 71L517 70z"/>
<path style="fill:#69b5bb; stroke:none;" d="M516 71L517 72L516 71z"/>
<path style="fill:#c86d58; stroke:none;" d="M710 71L711 74L712 74L710 71z"/>
<path style="fill:#d7955f; stroke:none;" d="M711 71L712 72L711 71M512 72L513 73L512 72M514 72L515 73L514 72M712 74L713 75L712 74M713 75L714 76L713 75M714 76L715 77L714 76M505 78L506 79L505 78M504 79L505 80L504 79z"/>
<path style="fill:#c86d58; stroke:none;" d="M716 79L717 80L716 79z"/>
<path style="fill:#d7955f; stroke:none;" d="M503 80L504 81L503 80M717 80L718 81L717 80z"/>
<path style="fill:#c86d58; stroke:none;" d="M717 81L718 82L717 81z"/>
<path style="fill:#69b5bb; stroke:none;" d="M502 82L503 83L502 82z"/>
<path style="fill:#c86d58; stroke:none;" d="M718 83L719 84L718 83z"/>
<path style="fill:#69b5bb; stroke:none;" d="M501 84L502 85L501 84M720 85L721 86L720 85M499 87L500 88L499 87M721 87L722 88L721 87z"/>
<path style="fill:#d7955f; stroke:none;" d="M722 87L723 88L722 87z"/>
<path style="fill:#c86d58; stroke:none;" d="M721 88L722 89L721 88z"/>
<path style="fill:#d7955f; stroke:none;" d="M723 88L724 89L723 88z"/>
<path style="fill:#69b5bb; stroke:none;" d="M498 89L499 90L498 89M723.333 89.6667L723.667 90.3333L723.333 89.6667z"/>
<path style="fill:#d7955f; stroke:none;" d="M497 91L498 92L497 91z"/>
<path style="fill:#c86d58; stroke:none;" d="M723 91L724 92L723 91M496 93L497 94L496 93z"/>
<path style="fill:#69b5bb; stroke:none;" d="M724 93L725 94L724 93z"/>
<path style="fill:#c86d58; stroke:none;" d="M724 94L725 95L724 94z"/>
<path style="fill:#69b5bb; stroke:none;" d="M495 96L496 97L495 96M494 97L495 98L494 97z"/>
<path style="fill:#c86d58; stroke:none;" d="M725 97L726 98L725 97z"/>
<path style="fill:#d7955f; stroke:none;" d="M487 98L488 99L487 98z"/>
<path style="fill:#69b5bb; stroke:none;" d="M488 98L489 99L488 98z"/>
<path style="fill:#d7955f; stroke:none;" d="M489.667 98.3333L490.333 98.6667L489.667 98.3333z"/>
<path style="fill:#c86d58; stroke:none;" d="M491 98L492 99L491 98M494 98L495 99L494 98z"/>
<path style="fill:#69b5bb; stroke:none;" d="M474 99L475 100L474 99z"/>
<path style="fill:#c86d58; stroke:none;" d="M475 99L477 101L475 99z"/>
<path style="fill:#69b5bb; stroke:none;" d="M476 99L478 101L476 99z"/>
<path style="fill:#d7955f; stroke:none;" d="M477 99L478 100L477 99z"/>
<path style="fill:#69b5bb; stroke:none;" d="M484 99L485 100L484 99z"/>
<path style="fill:#c86d58; stroke:none;" d="M726 99L727 100L726 99z"/>
<path style="fill:#d7955f; stroke:none;" d="M471 100L472 101L471 100z"/>
<path style="fill:#c86d58; stroke:none;" d="M478 100L479 101L478 100z"/>
<path style="fill:#69b5bb; stroke:none;" d="M727.667 100.333L728.333 100.667L727.667 100.333z"/>
<path style="fill:#d7955f; stroke:none;" d="M467 101L468 102L467 101z"/>
<path style="fill:#c86d58; stroke:none;" d="M468 101L470 103L468 101z"/>
<path style="fill:#d7955f; stroke:none;" d="M469.667 101.333L470.333 101.667L469.667 101.333M729 101L730 102L729 101M465.667 103.333L466.333 103.667L465.667 103.333z"/>
<path style="fill:#69b5bb; stroke:none;" d="M467 103L468 104L467 103z"/>
<path style="fill:#d7955f; stroke:none;" d="M463 104L464 105L463 104z"/>
<path style="fill:#c86d58; stroke:none;" d="M611 104L611 105L619 105L611 104M462 105L463 106L462 105M582 105L583 106L582 105z"/>
<path style="fill:#d7955f; stroke:none;" d="M506 227L498 237L500 239C487.846 253.989 496 277.592 496 295C488.137 287.115 483.096 278.393 483 267L482 267L482 270L481 270C479.748 249.115 462.522 216.422 437 232C437.624 235.12 432.134 239.464 431 244C428.928 252.29 427.922 261.69 430 270C433.877 285.508 445.884 301.768 452 314C453.444 316.889 456.359 316.154 458 318C463.358 324.028 471.857 330.142 477 337C482.431 344.241 483.608 353.858 487 362C491.136 371.927 498.954 381.35 504 390C511.383 402.657 524.084 415.056 536 423C539.833 425.556 549.565 430.74 549 433C561.255 434.548 572.019 443.517 584 446.32C618.883 454.483 658.565 446.623 685 422.025C691.051 416.394 695.191 409.778 701.004 404.015C704.172 400.873 708.073 398.673 708 394C716.113 390.281 721.801 376.825 725.528 369.06C738.441 342.156 737 317.093 737 288C737 275.295 736.909 263.145 738.977 250.588C740.608 240.687 745.069 230.177 744.806 220C743.741 178.801 721.208 140.653 685 121.292C668.082 112.245 648.439 109.201 630 105.324C620.675 103.363 610.346 105.632 601 105.982C563.281 107.393 523.817 111.532 511.824 154C506.765 171.915 514.282 192.307 511.528 210.259C510.776 215.162 512.351 225.378 506 227z"/>
<path style="fill:#c86d58; stroke:none;" d="M584 105L585 106L584 105M590 105L590 106L596 106L590 105M598 105L598 106L606 106L598 105M631.667 105.333L632.333 105.667L631.667 105.333z"/>
<path style="fill:#d7955f; stroke:none;" d="M730 105L731 106L730 105z"/>
<path style="fill:#c86d58; stroke:none;" d="M461 106L462 107L461 106M574.667 106.333L575.333 106.667L574.667 106.333M577.667 106.333L578.333 106.667L577.667 106.333M633 106L634 107L633 106z"/>
<path style="fill:#69b5bb; stroke:none;" d="M730.333 106.667L730.667 107.333L730.333 106.667z"/>
<path style="fill:#d7955f; stroke:none;" d="M459.667 107.333L460.333 107.667L459.667 107.333z"/>
<path style="fill:#c86d58; stroke:none;" d="M569.667 107.333L570.333 107.667L569.667 107.333M635 107L635 108L643 108L635 107M458 108L459 109L458 108z"/>
<path style="fill:#ffffff; stroke:none;" d="M459 108L460 109L459 108z"/>
<path style="fill:#c86d58; stroke:none;" d="M566 108L567 109L566 108M643 108L643 109L647 109L643 108M730 108L731 109L730 108z"/>
<path style="fill:#d7955f; stroke:none;" d="M458 109L459 110L458 109z"/>
<path style="fill:#c86d58; stroke:none;" d="M561 109L562 110L561 109M650 109L651 110L650 109z"/>
<path style="fill:#d7955f; stroke:none;" d="M731 109L732 110L731 109z"/>
<path style="fill:#c86d58; stroke:none;" d="M457 110L458 111L457 110M558 110L559 111L558 110z"/>
<path style="fill:#d7955f; stroke:none;" d="M455 111L456 112L455 111z"/>
<path style="fill:#c86d58; stroke:none;" d="M556 111L557 112L556 111M655 111L655 112L658 112L655 111M659 111L660 112L659 111z"/>
<path style="fill:#d7955f; stroke:none;" d="M732 111L733 112L732 111z"/>
<path style="fill:#c86d58; stroke:none;" d="M455 112L456 113L455 112M551 112L551 113L554 113L551 112M662 112L663 113L662 112z"/>
<path style="fill:#69b5bb; stroke:none;" d="M732 112L733 113L732 112z"/>
<path style="fill:#c86d58; stroke:none;" d="M544.667 113.333L545.333 113.667L544.667 113.333M548 113L549 114L548 113M665.667 113.333L666.333 113.667L665.667 113.333M732 113L733 114L732 113M542 114L543 115L542 114M669 114L670 115L669 114M453.667 115.333L454.333 115.667L453.667 115.333M672 115L673 116L672 115M732 115L733 116L732 115M674 116L675 117L674 116z"/>
<path style="fill:#69b5bb; stroke:none;" d="M732 116L733 117L732 116z"/>
<path style="fill:#c86d58; stroke:none;" d="M451 117L452 118L451 117M676 117L677 118L676 117z"/>
<path style="fill:#d7955f; stroke:none;" d="M450 118L451 119L450 118z"/>
<path style="fill:#c86d58; stroke:none;" d="M534 118L535 119L534 118M536 118L537 119L536 118M678 118L679 119L678 118z"/>
<path style="fill:#d7955f; stroke:none;" d="M734 118L735 119L734 118z"/>
<path style="fill:#c86d58; stroke:none;" d="M535 119L536 120L535 119M681 119L682 120L681 119z"/>
<path style="fill:#69b5bb; stroke:none;" d="M735 119L736 120L735 119z"/>
<path style="fill:#d7955f; stroke:none;" d="M448 120L449 121L448 120z"/>
<path style="fill:#c86d58; stroke:none;" d="M449 120L450 121L449 120M534 120L535 121L534 120M683 120L684 121L683 120M736 120L737 121L736 120M532 121L533 122L532 121M685 121L686 122L685 121z"/>
<path style="fill:#69b5bb; stroke:none;" d="M447 122L448 123L447 122z"/>
<path style="fill:#c86d58; stroke:none;" d="M530.667 122.333L531.333 122.667L530.667 122.333z"/>
<path style="fill:#69b5bb; stroke:none;" d="M739 122L740 123L739 122z"/>
<path style="fill:#c86d58; stroke:none;" d="M447 123L448 124L447 123M688 123L689 124L688 123M740 123L741 124L740 123M691 125L692 126L691 125M446 126L447 127L446 126M692 126L693 127L692 126z"/>
<path style="fill:#69b5bb; stroke:none;" d="M743 126L744 127L743 126z"/>
<path style="fill:#c86d58; stroke:none;" d="M525 127L526 128L525 127M694 127L695 128L694 127z"/>
<path style="fill:#d7955f; stroke:none;" d="M745 127L746 128L745 127z"/>
<path style="fill:#c86d58; stroke:none;" d="M445 128L446 129L445 128M524 129L525 130L524 129M698 129L699 130L698 129z"/>
<path style="fill:#d7955f; stroke:none;" d="M444 130L445 131L444 130z"/>
<path style="fill:#c86d58; stroke:none;" d="M522.667 130.333L523.333 130.667L522.667 130.333z"/>
<path style="fill:#d7955f; stroke:none;" d="M746 130L747 131L746 130z"/>
<path style="fill:#c86d58; stroke:none;" d="M747 130L748 131L747 130z"/>
<path style="fill:#69b5bb; stroke:none;" d="M444 131L445 132L444 131z"/>
<path style="fill:#c86d58; stroke:none;" d="M701 131L702 132L701 131M746 131L747 132L746 131M444 132L445 133L444 132z"/>
<path style="fill:#d7955f; stroke:none;" d="M747 132L748 133L747 132z"/>
<path style="fill:#c86d58; stroke:none;" d="M521 133L522 134L521 133z"/>
<path style="fill:#69b5bb; stroke:none;" d="M443 134L444 135L443 134z"/>
<path style="fill:#c86d58; stroke:none;" d="M520 134L521 135L520 134M704 134L705 135L704 134z"/>
<path style="fill:#d7955f; stroke:none;" d="M442 135L443 136L442 135z"/>
<path style="fill:#c86d58; stroke:none;" d="M519 135L520 136L519 135M705 135L706 136L705 135M749 135L750 136L749 135M442 136L443 137L442 136M706 136L707 137L706 136M750 136L751 137L750 136M518.333 137.667L518.667 138.333L518.333 137.667z"/>
<path style="fill:#d7955f; stroke:none;" d="M751 137L752 138L751 137z"/>
<path style="fill:#c86d58; stroke:none;" d="M441 138L442 139L441 138M708 138L709 139L708 138M710 139L711 140L710 139M517 140L516 144L517 144L517 140M712 140L713 141L712 140z"/>
<path style="fill:#d7955f; stroke:none;" d="M440 141L441 142L440 141z"/>
<path style="fill:#c86d58; stroke:none;" d="M713 141L714 142L713 141M754 141L755 142L754 141z"/>
<path style="fill:#69b5bb; stroke:none;" d="M440 142L441 143L440 142z"/>
<path style="fill:#c86d58; stroke:none;" d="M714 143L715 144L714 143z"/>
<path style="fill:#d7955f; stroke:none;" d="M755 143L756 144L755 143z"/>
<path style="fill:#c86d58; stroke:none;" d="M515 144L516 145L515 144z"/>
<path style="fill:#d7955f; stroke:none;" d="M439 145L440 146L439 145z"/>
<path style="fill:#c86d58; stroke:none;" d="M716 145L717 146L716 145z"/>
<path style="fill:#d7955f; stroke:none;" d="M756 145L757 146L756 145z"/>
<path style="fill:#c86d58; stroke:none;" d="M439 146L440 147L439 146M514 146L515 147L514 146M717 146L718 147L717 146M718 147L719 148L718 147z"/>
<path style="fill:#d7955f; stroke:none;" d="M757 147L758 148L757 147z"/>
<path style="fill:#c86d58; stroke:none;" d="M438 148L439 149L438 148M513.333 149.667L513.667 150.333L513.333 149.667z"/>
<path style="fill:#69b5bb; stroke:none;" d="M757.333 149.667L757.667 150.333L757.333 149.667M437.333 150.667L437.667 151.333L437.333 150.667z"/>
<path style="fill:#c86d58; stroke:none;" d="M721 150L722 151L721 150M758.333 150.667L758.667 151.333L758.333 150.667M722 151L723 152L722 151M437 152L438 153L437 152M723 152L724 153L723 152M511.333 153.667L511.667 154.333L511.333 153.667z"/>
<path style="fill:#d7955f; stroke:none;" d="M759 153L760 154L759 153z"/>
<path style="fill:#69b5bb; stroke:none;" d="M435 154L436 155L435 154z"/>
<path style="fill:#d7955f; stroke:none;" d="M436 154L437 155L436 154z"/>
<path style="fill:#c86d58; stroke:none;" d="M724.333 154.667L724.667 155.333L724.333 154.667z"/>
<path style="fill:#69b5bb; stroke:none;" d="M759.333 154.667L759.667 155.333L759.333 154.667z"/>
<path style="fill:#c86d58; stroke:none;" d="M435.667 155.333L436.333 155.667L435.667 155.333M759 156L759 159L760 159L759 156M511.333 157.667L511.667 158.333L511.333 157.667z"/>
<path style="fill:#69b5bb; stroke:none;" d="M435.333 159.667L435.667 160.333L435.333 159.667z"/>
<path style="fill:#c86d58; stroke:none;" d="M727 159L728 160L727 159M435 161L436 162L435 161M728 161L729 162L728 161z"/>
<path style="fill:#d7955f; stroke:none;" d="M760 161L761 162L760 161z"/>
<path style="fill:#69b5bb; stroke:none;" d="M760 162L761 163L760 162z"/>
<path style="fill:#c86d58; stroke:none;" d="M729 163L730 164L729 163M760 163L761 164L760 163M510 164L510 170L511 170L510 164M730 166L731 167L730 166z"/>
<path style="fill:#d7955f; stroke:none;" d="M433 167L435 169L433 167z"/>
<path style="fill:#69b5bb; stroke:none;" d="M433.333 168.667L433.667 169.333L433.333 168.667z"/>
<path style="fill:#c86d58; stroke:none;" d="M731 168L732 169L731 168z"/>
<path style="fill:#d7955f; stroke:none;" d="M761.333 168.667L761.667 169.333L761.333 168.667M433 170L433 175L434 175L433 170z"/>
<path style="fill:#c86d58; stroke:none;" d="M733.333 172.667L733.667 173.333L733.333 172.667M760 172L761 173L760 172M510 176L510 184L511 184L510 176M759 176L760 177L759 176M734 177L735 178L734 177z"/>
<path style="fill:#d7955f; stroke:none;" d="M759 177L760 178L759 177M434 179L433 183L434 179z"/>
<path style="fill:#c86d58; stroke:none;" d="M735 179L736 180L735 179M758 179L757 182L758 179M433 180L434 181L433 180z"/>
<path style="fill:#69b5bb; stroke:none;" d="M433 181L434 182L433 181z"/>
<path style="fill:#c86d58; stroke:none;" d="M736 181L737 182L736 181z"/>
<path style="fill:#d7955f; stroke:none;" d="M758 181L759 182L758 181M757 182L758 183L757 182z"/>
<path style="fill:#c86d58; stroke:none;" d="M434 183L435 184L434 183M756 183L757 184L756 183M737.333 184.667L737.667 185.333L737.333 184.667z"/>
<path style="fill:#d7955f; stroke:none;" d="M756.333 184.667L756.667 185.333L756.333 184.667z"/>
<path style="fill:#69b5bb; stroke:none;" d="M434 185L434 189L435 189L434 185z"/>
<path style="fill:#c86d58; stroke:none;" d="M511 187L511 190L512 190L511 187M738 188L739 189L738 188M755 188L756 189L755 188M434 189L435 190L434 189M739 191L740 192L739 191z"/>
<path style="fill:#69b5bb; stroke:none;" d="M754 191L755 192L754 191z"/>
<path style="fill:#c86d58; stroke:none;" d="M740.333 193.667L740.667 194.333L740.333 193.667z"/>
<path style="fill:#d7955f; stroke:none;" d="M752 193L753 194L752 193z"/>
<path style="fill:#c86d58; stroke:none;" d="M753 193L754 194L753 193z"/>
<path style="fill:#d7955f; stroke:none;" d="M433 194L434 195L433 194z"/>
<path style="fill:#c86d58; stroke:none;" d="M751 194L752 195L751 194z"/>
<path style="fill:#69b5bb; stroke:none;" d="M750 196L751 197L750 196z"/>
<path style="fill:#c86d58; stroke:none;" d="M741 197L742 198L741 197z"/>
<path style="fill:#69b5bb; stroke:none;" d="M435 199L436 200L435 199z"/>
<path style="fill:#d7955f; stroke:none;" d="M748 199L749 200L748 199z"/>
<path style="fill:#c86d58; stroke:none;" d="M742.333 200.667L742.667 201.333L742.333 200.667M747 200L748 201L747 200M746 201L747 202L746 201z"/>
<path style="fill:#69b5bb; stroke:none;" d="M436 202L437 203L436 202z"/>
<path style="fill:#c86d58; stroke:none;" d="M512 202L511 209L512 202z"/>
<path style="fill:#69b5bb; stroke:none;" d="M437 205L438 206L437 205z"/>
<path style="fill:#c86d58; stroke:none;" d="M438 208L439 209L438 208z"/>
<path style="fill:#d7955f; stroke:none;" d="M438 209L439 210L438 209z"/>
<path style="fill:#c86d58; stroke:none;" d="M511 212L512 213L511 212M586 212L585 214L586 212M439 213L440 214L439 213M577.667 213.333L578.333 213.667L577.667 213.333M580 213L581 214L580 213z"/>
<path style="fill:#262034; stroke:none;" d="M558 217L547 225L541 240L557 233C562.615 234.22 566.65 231.572 572.089 231.419C582.613 231.122 601.604 237.049 610.891 231.821C621.607 225.789 611.439 214.026 602 216L589.861 214.25L558 217z"/>
<path style="fill:#c86d58; stroke:none;" d="M582 213L583 214L582 213M597 213L597 214L600 214L597 213M601 213L602 214L601 213z"/>
<path style="fill:#d7955f; stroke:none;" d="M439 214L440 215L439 214z"/>
<path style="fill:#c86d58; stroke:none;" d="M567 214L568 215L567 214M569 214L569 215L572 215L569 214M575 214L576 215L575 214M588 214L589 215L588 214M591 214L592 215L591 214M600 214L601 215L600 214M606.667 214.333L607.333 214.667L606.667 214.333M693 214L694 215L693 214M565.667 215.333L566.333 215.667L565.667 215.333M573 215L574 216L573 215M602.667 215.333L603.333 215.667L602.667 215.333M677 215L676 217L678 217L677 215z"/>
<path style="fill:#262034; stroke:none;" d="M678 215C675.43 216.96 672.003 216.943 669.569 219.148C663.851 224.328 666.57 234.625 674.004 236.361C678.104 237.319 682.869 235.247 686.996 234.913C698.502 233.982 708.722 233.383 719 239L721 237L720 239C723.699 238.857 727.947 238.858 729 243L733 239C728.442 235.012 728.39 228.089 723.622 223.719C711.911 212.986 692.364 216 678 215z"/>
<path style="fill:#c86d58; stroke:none;" d="M679 215L680 216L679 215M686 215L687 216L686 215M688 215L688 216L691 216L688 215M696 215L696 216L699 216L696 215M700 215L701 216L700 215M511 216L512 217L511 216M564 216L565 217L564 216M609 216L610 217L609 216M672.667 216.333L673.333 216.667L672.667 216.333M701 216L702 217L701 216M705 216L706 217L705 216M707 216L708 217L707 216M709 216L710 217L709 216M559 217L559 218L562 218L559 217M670 217L671 218L670 217M710 217L711 218L710 217M557 218L558 219L557 218M614 218L615 219L614 218M712 218L713 219L712 218M714.667 218.333L715.333 218.667L714.667 218.333M555 219L556 220L555 219M717 219L720 221L720 220L717 219M510 220L511 221L510 220M614.333 220.667L614.667 221.333L614.333 220.667M668 220L669 221L668 220M440 221L441 222L440 221M721 221L722 222L721 221z"/>
<path style="fill:#69b5bb; stroke:none;" d="M440 222L441 223L440 222z"/>
<path style="fill:#c86d58; stroke:none;" d="M551 222L552 223L551 222M666 222L666 225L667 225L666 222z"/>
<path style="fill:#d7955f; stroke:none;" d="M440 223L441 224L440 223z"/>
<path style="fill:#c86d58; stroke:none;" d="M509.333 223.667L509.667 224.333L509.333 223.667M723 223L724 224L723 223M615 224L615 228L616 228L615 224M441 225L442 226L441 225M507 225L506 226L506 227L507 228L508 228L509 227L509 226L507 225M548 225L549 226L548 225M725 225L726 226L725 225z"/>
<path style="fill:#69b5bb; stroke:none;" d="M441 226L442 227L441 226z"/>
<path style="fill:#c86d58; stroke:none;" d="M547 226L548 227L547 226M726.333 226.667L726.667 227.333L726.333 226.667M444.667 228.333L445.333 228.667L444.667 228.333M451 228L451 229L454 229L451 228M505 228L506 229L505 228M614 228L615 229L614 228M455 229L456 230L455 229M545 229L546 230L545 229M457 230L458 231L457 230M544.333 230.667L544.667 231.333L544.333 230.667M461 231L462 232L461 231M503 231L504 232L503 231M568 231L569 232L568 231M570 233L573 232L570 233M574 231L575 232L574 231M579 231L580 232L579 231M584.667 231.333L585.333 231.667L584.667 231.333M612 231L613 232L612 231M463 232L464 233L463 232M502 232L503 233L502 232M567 232L563 233L563 234L567 232M581.667 232.333L582.333 232.667L581.667 232.333M587.667 232.333L588.333 232.667L587.667 232.333M591 232L592 233L591 232M596.667 232.333L597.333 232.667L596.667 232.333M611 232L612 233L611 232M557 233L558 234L557 233M606 233L607 234L606 233M704.667 233.333L705.333 233.667L704.667 233.333M730 233L731 234L730 233M466 234L467 235L466 234M542 234L541 236L543 236L542 234M559.667 234.333L560.333 234.667L559.667 234.333M669.667 234.333L670.333 234.667L669.667 234.333M688.667 234.333L689.333 234.667L688.667 234.333M696 234L697 235L696 234M699 234L699 235L702 235L699 234M703 234L704 235L703 234M707 234L708 235L707 234M709 234L710 235L709 234M467 235L468 236L467 235M500 235L501 236L500 235M555 235L556 236L555 235M671 235L672 236L671 235M682 235L682 236L686 236L682 235M691 235L692 236L691 235M702 235L703 236L702 235M708 235L709 236L708 235M712.667 235.333L713.333 235.667L712.667 235.333M716 235L717 236L716 235M729 235L730 236L729 235M468 236L469 237L468 236M498 236L499 237L498 236M672 236L673 237L672 236M677.667 236.333L678.333 236.667L677.667 236.333M680 236L681 237L680 236M714 236L715 237L714 236M730 236L733 239L730 236M469 237L470 238L469 237M540 237L542 241L540 237M547 237L547 238L551 238L547 237M716 237L717 238L716 237M718 237L719 239L720 239L721 237L718 237z"/>
<path style="fill:#ffffff; stroke:none;" d="M741 237L742 238L741 237z"/>
<path style="fill:#c86d58; stroke:none;" d="M470.333 238.667L470.667 239.333L470.333 238.667M497 238L497 239L500 239L497 238M544 238L544 239L547 239L544 238M724 238L724 241L725 241L724 238z"/>
<path style="fill:#d7955f; stroke:none;" d="M497 239L498 240L497 239z"/>
<path style="fill:#262034; stroke:none;" d="M498 239L499 240L498 239z"/>
<path style="fill:#c86d58; stroke:none;" d="M726 239L726 242L727 242L726 239M496 240L495 247L496 247L499 240L496 240M728 240L729 241L728 240M733 240L732 242L734 242L733 240M729 241L730 242L729 241M731.333 242.667L731.667 243.333L731.333 242.667M474 244L475 245L474 244M475.333 246.667L475.667 247.333L475.333 246.667M476 249L477 250L476 249M477 251L478 252L477 251M494.333 251.667L494.667 252.333L494.333 251.667M479 254L480 255L479 254M493 256L493 259L494 259L493 256M479 257L480 258L479 257M584 260L585 260L588 258L584 260M687 258L687 259L692 259L687 258z"/>
<path style="fill:#262034; stroke:none;" d="M585.443 258.858C576.755 262.157 575.528 280.577 577.827 287.985C579.179 292.342 583.695 297.54 588.819 295.873C597.871 292.929 600.359 274.503 597.405 267C595.513 262.195 591.443 256.58 585.443 258.858z"/>
<path style="fill:#c86d58; stroke:none;" d="M589 258L590 259L589 258M593.333 258.667L593.667 259.333L593.333 258.667z"/>
<path style="fill:#262034; stroke:none;" d="M681 286C680.193 288.831 679.849 290.608 683 291C686.312 297.694 692.494 297.088 696.285 290.981C701.156 283.135 704.078 266.711 695.352 259.988C683.226 250.647 674.335 280.146 681 286z"/>
<path style="fill:#c86d58; stroke:none;" d="M480 260L481 261L480 260M594 260L595 261L594 260M696 260L697 263L698 263L698 260L696 260M595.333 261.667L595.667 262.333L595.333 261.667M492 262L493 263L492 262M580.333 262.667L580.667 263.333L580.333 262.667M481 263L480 268L483 267L481 263M596 263L596 266L597 266L596 263M682 263L683 264L682 263M698 263L698 266L699 266L698 263M682 265L683 266L682 265M579.333 266.667L579.667 267.333L579.333 266.667M699 266L700 267L699 266z"/>
<path style="fill:#262034; stroke:none;" d="M481.333 267.667L481.667 268.333L481.333 267.667z"/>
<path style="fill:#c86d58; stroke:none;" d="M598 267L599 268L598 267M681 267L682 268L681 267M700 267L700 270L701 270L700 267M578 268L579 269L578 268M680 268L680 271L681 271L680 268M481 269L482 270L481 269M483 269L483 275L484 275L483 269M598 269L599 270L598 269M599 271L600 272L599 271M701 271L702 272L701 271M494 272L494 275L495 275L494 272M577.333 272.667L577.667 273.333L577.333 272.667M598 273L599 274L598 273M651 273L653 276L651 273M679 273L680 274L679 273M700 273L701 274L700 273M576 274L577 275L576 274M701.333 274.667L701.667 275.333L701.333 274.667M577.333 275.667L577.667 276.333L577.333 275.667M598 275L599 276L598 275M679 275L680 276L679 275M700 276L701 277L700 276M484 277L485 278L484 277M598 277L599 278L598 277M651 277L652 284L653 284L652 280L655 281L655 280L653 279L655 278L654 277L651 277M679 277L678 280L679 277M577 278L576 282L577 282L577 278M495 279L495 284L496 284L495 279M597 280L598 281L597 280z"/>
<path style="fill:#262034; stroke:none;" d="M652 280L655 285L657 292C657.236 301.503 666.347 313.862 672 321L672 322L670 330L660 337C651.527 344.867 640.744 334.835 633 339C641.453 342.894 649.02 347.296 658.714 344.17C680.224 337.233 675.978 317.313 665.224 303.576C662.354 299.91 661.338 296.167 657 294C658.046 289.71 656.329 282.13 652 280z"/>
<path style="fill:#c86d58; stroke:none;" d="M700.333 281.667L700.667 282.333L700.333 281.667M486 282L487 283L486 282M654.667 282.333L655.333 282.667L654.667 282.333M678 282L679 283L678 282M576 283L576 286L577 286L576 283M597.333 283.667L597.667 284.333L597.333 283.667M656.333 283.667L656.667 284.333L656.333 283.667M487.333 284.667L487.667 285.333L487.333 284.667M596.333 285.667L596.667 286.333L596.333 285.667M653 285L655 287L655 285L653 285M577 286L577 290L578 290L577 286M656 286L657 287L656 286M680 286L681 287L680 286M698 286L699 287L698 286M488 287L489 288L488 287M595 287L596 288L595 287M653 287L654 288L653 287M679.333 287.667L679.667 288.333L679.333 287.667M656 288L657 289L656 288M697 288L698 289L697 288M657.333 289.667L657.667 290.333L657.333 289.667M594 290L595 291L594 290M654.333 290.667L654.667 291.333L654.333 290.667M578 291L579 292L578 291M593 291L594 292L593 291M680 291L681 292L680 291M682 291L684 294L682 291M656 292L657 293L656 292M580.667 293.333L581.333 293.667L580.667 293.333M592 293L593 294L592 293M657 293L658 294L657 293M694.667 293.333L695.333 293.667L694.667 293.333M495 294L496 295L495 294M582 294L583 295L582 294M591 294L592 295L591 294M659 294L661 296L661 294L659 294M684 294L685 295L684 294M657.333 295.667L657.667 296.333L657.333 295.667M685 295L686 296L685 295M584.667 296.333L585.333 296.667L584.667 296.333M587 296L588 297L587 296M686.667 296.333L687.333 296.667L686.667 296.333M689 296L690 297L689 296M662.333 298.667L662.667 299.333L662.333 298.667M658 299L659 300L658 299M663 300L664 304L665 304L663 300M660.333 302.667L660.667 303.333L660.333 302.667M661 305L662 306L661 305M667.333 305.667L667.667 306.333L667.333 305.667M662 306L663 307L662 306M668 307L669 308L668 307M663.667 308.333L664.333 308.667L663.667 308.333M669 308L670 309L669 308M665.333 309.667L665.667 310.333L665.333 309.667M670 309L671 310L670 309M671 310L672 311L671 310M672.333 312.667L672.667 313.333L672.333 312.667M668.333 313.667L668.667 314.333L668.333 313.667M669 315L669 318L670 318L669 315M674 316L674 320L675 320L674 316M670 320L671 321L670 320M675 320L675 324L676 324L675 320M671 321L672 322L671 321M670 322L671 323L670 322M670 324L671 325L670 324M674 324L675 325L674 324M669 326L670 327L669 326M675.333 326.667L675.667 327.333L675.333 326.667M669 328L667 331L669 328M673.667 330.333L674.333 330.667L673.667 330.333M666.333 331.667L666.667 332.333L666.333 331.667M673 332L674 333L673 332M672 334L673 335L672 334M628.667 335.333L629.333 335.667L628.667 335.333z"/>
<path style="fill:#262034; stroke:none;" d="M630 338L632 335L630 338z"/>
<path style="fill:#c86d58; stroke:none;" d="M632 335L631 339L635 338L632 335M671 335L672 336L671 335M662 336L663 337L662 336M670 336L671 337L670 336M629 337L630 338L629 337M639 337L638 339L640 339L639 337M657 337C658.127 339.006 658.873 339.006 660 337L657 337M661 337L662 338L661 337M667 338L668 339L667 338M646.667 339.333L647.333 339.667L646.667 339.333M652.667 339.333L653.333 339.667L652.667 339.333M634 340L634 341L638 342L634 340M642 340L643 341L642 340M648.667 340.333L649.333 340.667L648.667 340.333M655 340L656 341L655 340M665 340L665 342L667 340L665 340M662 342L663 343L662 342M640 343L641 344L640 343M659 343L660 344L659 343M661 343L662 344L661 343M480 344L480 347L482 346L482 345L480 344M643 344L644 345L643 344M645.667 344.333L646.333 344.667L645.667 344.333M649 344L650 345L649 344M658 344L659 345L658 344M647.667 345.333L648.333 345.667L647.667 345.333M653 345L654 346L653 345M655 345L656 346L655 345z"/>
<path style="fill:#262034; stroke:none;" d="M481 346C481 360.356 485.136 375.738 490.344 389C492.504 394.5 497.119 399.229 498 405C504.705 405 508.742 431.214 517 430L537 452L583 483.177L607 477.532L631.089 479.362L648 474L661 459L662 459L663 462L647 478C639.537 478.577 624.081 487.745 620 494C631.763 492.421 660.918 480.83 660 466C669.294 464.451 662.107 451.777 667 453L669 445L668 436L650 443.729L613 451L614 449L613 449C589.471 454.537 569.781 436.265 548 433C547.125 428.788 542.458 427.365 539 425.136C532.121 420.7 526.418 416.047 520.925 410C508.844 396.701 498.787 382.608 490.056 367C486.338 360.355 484.969 352.456 481 346z"/>
<path style="fill:#d7955f; stroke:none;" d="M479 347C480.964 362.541 479.359 377.645 476.921 393C476.175 397.695 475.2 405.83 481 407C484.822 413.985 495.369 420.349 501.735 425.258C514.067 434.766 526.069 445.233 537.728 455.553C549.209 465.715 557.468 482.493 569.299 491.386C574.81 495.528 582.844 489.247 586 485C571.418 477.233 548.799 464.423 539 451L536 452C531.559 444.115 519.94 432.467 512 428L513 425C504.888 418.9 499.945 407.084 496 398L494 399C488.846 381.922 481.002 365.124 481 347L479 347z"/>
<path style="fill:#c86d58; stroke:none;" d="M482.333 347.667L482.667 348.333L482.333 347.667M483.333 351.667L483.667 352.333L483.333 351.667M484 353L485 354L484 353M485 355L486 356L485 355M481 357L482 358L481 357M486.333 358.667L486.667 359.333L486.333 358.667M482 360L483 361L482 360M488 363L489 364L488 363M483 365L484 366L483 365M489.333 365.667L489.667 366.333L489.333 365.667M484 366L485 367L484 366M630 366L630 367L633 368L630 366M637.667 366.333L638.333 366.667L637.667 366.333M643 366L643 367L646 367L646 366L643 366M622 367L625 369L625 368L622 367M627 367L626 369L627 367z"/>
<path style="fill:#262034; stroke:none;" d="M613 373C611.429 376.436 602.478 390.273 608 391L606 389L610 387C615.536 368.285 639.336 383.965 649 390L649 391L626 395.954L612 396L619 396L625 399L625 397C639.144 402.297 665.621 394.438 656 375L655 368L629.87 367.314L613 373z"/>
<path style="fill:#c86d58; stroke:none;" d="M634.667 367.333L635.333 367.667L634.667 367.333M647.667 367.333L648.333 367.667L647.667 367.333M655.333 367.667L655.667 368.333L655.333 367.667M490 368L491 369L490 368M650 368L651 369L650 368M652 368L653 369L652 368M484 369L485 370L484 369M491 369L492 370L491 369M620 369L621 370L620 369M492 370L493 371L492 370M655 370L656 371L655 370M617 371L618 372L617 371M656 371L657 372L656 371M485 372L486 373L485 372M615.667 372.333L616.333 372.667L615.667 372.333M657.333 372.667L657.667 373.333L657.333 372.667M486 373L487 374L486 373M494.333 373.667L494.667 374.333L494.333 373.667M612.333 373.667L612.667 374.333L612.333 373.667M614 373L615 374L614 373M611 375L612 376L611 375M656 375L657 376L656 375M487 376L488 377L487 376M495.333 376.667L495.667 377.333L495.333 376.667M610 377L611 378L610 377M610 387C607.886 387.419 605.576 388.357 608 390L606 393C610.231 395.899 612.279 394.418 617 394.723C628.126 395.441 638.903 397.748 649 391C642.178 382.118 613.03 368.585 610 387M487 378L488 379L487 378M496 379L497 380L496 379M610 379L611 380L610 379M657.333 379.667L657.667 380.333L657.333 379.667M497 380L498 381L497 380M609 380L610 381L609 380M498 381L499 382L498 381M607.667 381.333L608.333 381.667L607.667 381.333M607.333 383.667L607.667 384.333L607.333 383.667M657.333 383.667L657.667 384.333L657.333 383.667z"/>
<path style="fill:#69b5bb; stroke:none;" d="M387 423L384 422C384 426.313 373.802 428.803 371.333 433C366.864 440.598 367 452.395 367 461C363.047 461.279 348.638 463.092 348 467C338.854 465.621 328.803 471.893 320 474.105C284.575 483.005 251.361 500.418 225.015 525.964C188.262 561.601 166.16 608.38 142.602 653C129.997 676.874 115.925 701.094 105.465 726C98.6352 742.26 94.635 759.794 87.6242 776C78.9702 796.004 69.3405 816.464 62.0077 837C59.6236 843.677 60.0603 851.141 58.7909 858C55.0327 878.308 51.4128 900.627 61.01 920.015C67.993 934.121 80.2775 944.832 92 954.869C101.067 962.632 111.442 971.437 123 975L122 977L136 981L136 982L134 983L154 988L154 987L152 987L152 986L159 987L159 988L156 988L156 989C169.053 989 180.583 990.104 193 987C196.698 986.076 202.807 984.773 202 988L227 982L227 981L224 981L224 980L262 980L262 981L257 981L257 982L295 986L295 985L286 984C285.337 975.663 282.262 967.446 282.951 959C285.826 923.704 314.654 874.113 354 874C347.161 864.008 323.15 869.415 327 853L324 851L326 852L324 845C320.733 841.537 319.142 836.946 315.877 833.44C308.33 825.336 299.913 824.488 290 822L290 825L289 825L274 826C274 830.022 257.251 830.35 254 831L259 828C264.472 821.719 275.082 820.531 283.015 819.866C285.388 819.667 289.338 821.084 291.383 819.717C293.196 818.504 295.729 804.131 297.001 801C304.552 782.409 312.128 765.953 316 746L318 746L333.806 773L364.876 816.826L384 838C390.014 839.779 396.004 848.314 400.449 852.803C411.592 864.056 426.582 880.089 442 885C444.72 898.091 467.388 889.579 476 891L476 890L474 890L474 889L521 887.911L546 887L546 885L586 897L585 899L603 907L606 906C606.7 911.294 621.015 915.887 626 917L629 904L634 884L635 860L657 857L657 859C665.955 858.033 684.393 861.593 688.45 871.126C690.214 875.271 686.829 881.069 688 886L686 889L683 888C683.166 892.654 675.466 904.433 682 907C680.143 914.125 680.019 921.546 678.136 928.576C677.153 932.245 674.453 935.979 676.087 939.877C679.092 947.042 696.236 950.997 693.802 960.914C690.565 974.106 668.348 968.23 666 979C677.976 981.256 694.513 985.581 696 1000L747 995L759 992.37L796 988L796 987L794 987L794 986L824 982L817 880L818 880C823.286 891.336 837.254 900.486 847 907.899C887.621 938.799 938.313 939.579 982 915.514C997.06 907.218 1014.59 891.536 1021 875L1019 876L1019 875C1023.83 868.511 1024.68 859.768 1026.52 852C1033.68 821.937 1027.18 792.942 1021 763L1020 763L1020 765L1019 765C1020.27 758.052 1017.81 751.76 1016.24 745C1012.52 728.987 1008.7 705.959 998 693L998 692C1000.26 690.058 998.229 688.883 996 690L989 676C984.154 675.473 969.304 662.819 970 658L958 643L957 643C954.918 662.187 927.482 682.565 909 683C909 687.255 903.908 685.496 901 686.167C892.037 688.235 885.633 692.789 876 690L877 692L876 692L841 690L842 688L836 687L840.31 713.997L841 737L838.046 750L830 783L832 783L830 790L833 800L832 800L828 780L827 780C821.144 810.197 814.172 841.123 814 872L816 871L815 877L809 859L809 858C811.695 853.273 808.601 847.986 807.799 843C805.715 830.027 807.736 807.632 800 797C803.825 792.483 799.998 773.425 800 767C800.008 742.975 801.687 711.982 791.318 690C787.7 682.331 780.975 669.875 772 668L768 656C762.478 654.301 761.63 645.738 759.613 640.961C754.049 627.788 749.18 612.357 747.558 598C746.877 591.977 748.643 579.229 744 575L744 574C749.521 568.389 745.787 556.018 746.13 549C746.482 541.812 751.601 536.151 757 532C756.173 527.038 751.489 525.267 749 521C745.784 515.487 747.537 510.926 750 506C751.497 503.006 750.035 501.259 753 502L752 499L754 500L755 494C744.169 491.222 733.146 485.613 722.588 481.62C718.618 480.119 712.66 476.155 711 482L708 477L711 478C704.692 464.667 685.831 449.452 670 452L669 447L668 447L667 453C665.112 453.283 661.197 467.3 658.644 470.741C652.346 479.226 643.01 485.699 633.412 489.935C629.193 491.797 623.492 492.218 620 495L619 492L647 478L663 462L662 459L661 459L648 474C642.134 474.279 637.186 478.395 631.089 478.9C618.994 479.904 609.059 475.914 597 480.231C589.864 482.785 579.694 493.851 572.019 492.096C564.593 490.397 555.61 472.597 549.989 467.039C538.306 455.484 526.07 443.677 513.039 433.613C502.584 425.537 489.385 417.147 481 407C472.992 404.527 477.875 390.077 478 384C463.088 384.01 450.208 388.375 439.04 398.428C431.917 404.841 427.358 412.954 418 416.742C410.082 419.948 392.361 416.833 387 423z"/>
<path style="fill:#c86d58; stroke:none;" d="M500 384L501 385L500 384M489.333 386.667L489.667 387.333L489.333 386.667M501 386L503 390L504 390L501 386M657 386L657 389L658 389L657 386M656.333 389.667L656.667 390.333L656.333 389.667M504 390L505 391L504 390M505 391L506 392L505 391M655 391L656 392L655 391M491 392L492 393L491 392z"/>
<path style="fill:#262034; stroke:none;" d="M608 392L609 393L608 392z"/>
<path style="fill:#c86d58; stroke:none;" d="M492 393L493 394L492 393M652 394L653 395L652 394M650 395L651 396L650 395z"/>
<path style="fill:#ffffff; stroke:none;" d="M707 395L708 396L707 395z"/>
<path style="fill:#c86d58; stroke:none;" d="M493.333 396.667L493.667 397.333L493.333 396.667M509 396L510 397L509 396M612 396L613 397L612 396M618 396L619 397L618 396M647 396L648 397L647 396M510 397L511 398L510 397M615 397L615 398L618 398L615 397M625 397L626 398L625 397M643 397L643 398L647 398L643 397M494 398L495 399L494 398M620 398L620 399L624 399L620 398M626 398L627 399L626 398M629 398L630 399L629 398M636 398L637 399L636 398M640 398L640 399L643 399L640 398M634 399L635 400L634 399M638 399L639 400L638 399M497.333 400.667L497.667 401.333L497.333 400.667M512 400L513 401L512 400M513 401L514 402L513 401M499 404L498 406L500 406L499 404z"/>
<path style="fill:#d7955f; stroke:none;" d="M819 447L816 450L815 450C808.407 443.845 783.089 437.752 775.329 444.654C771.249 448.282 772.001 455.107 772 460L782 464L784 463L798 477C792.324 474.55 786.572 472.751 781.286 469.457C778.346 467.625 774.367 463.356 770.845 463.02C767.424 462.694 764.545 466.982 762.641 469.286C756.358 476.889 753.901 490.357 754 500L752 499L753 502C749.067 502.532 746.931 509.213 747.153 513C747.837 524.671 758.9 529.212 763 539L766 537L782 557C785.221 557 785.356 560.243 785 563L814 595L813 593L814 593L817 597L817 598L821 598L823.38 617.17L833 685L842 688L841 690L877 692L876 690C884.929 692.938 892.42 689.314 901 686.931C904.186 686.046 908.48 686.78 909 683C926.025 683 945.757 668.486 953 654C954.531 650.938 960.048 644.095 958 640C954.09 632.181 947.814 625.619 943 619C938.184 612.378 936.349 603.523 932 597C924.176 585.264 916.38 572.141 912 559C909.04 550.119 908.527 538.107 906 528C905.257 525.028 907.17 520.807 906 518C901.417 507.002 899.896 493.583 897 482C895.596 476.384 896.813 470.438 895 465C891.943 455.828 890.981 445.974 885 438C881.873 433.831 873.077 433.694 874 430C867.136 429.312 861.131 425.633 854.424 424.301C835.75 420.592 816.437 418.241 798 413.561C784.832 410.218 769.8 403.161 755.964 404.084C747.895 404.623 746.862 414.211 750.228 420C754.783 427.833 767.885 437.974 777 439.799C781.497 440.7 786.067 436.35 791 436.679C800.554 437.316 810.421 443.167 819 447z"/>
<path style="fill:#c86d58; stroke:none;" d="M516 405L517 406L516 405M517 406L518 407L517 406M500 407L501 408L500 407M501 409L502 410L501 409M502 410L503 411L502 410M440 412L440 414L442 414L440 412z"/>
<path style="fill:#262034; stroke:none;" d="M440.667 414.333L441.333 414.667L440.667 414.333z"/>
<path style="fill:#c86d58; stroke:none;" d="M504 414L505 415L504 414M524 414L525 415L524 414M505.333 415.667L505.667 416.333L505.333 415.667M525 415L526 416L525 415M526 416L527 417L526 416M443 417L441 418L441 419L443 417M527 417L528 418L527 417M748 418C737.144 427.271 737.17 449.033 756 447.609C763.187 447.065 766.45 441.658 771 437L771 436L748 418M507 419L508 420L507 419M530 419L531 420L530 419z"/>
<path style="fill:#d7955f; stroke:none;" d="M746 419L747 420L746 419z"/>
<path style="fill:#c86d58; stroke:none;" d="M442.333 420.667L442.667 421.333L442.333 420.667z"/>
<path style="fill:#262034; stroke:none;" d="M443 420L449 427L451 435L454 436C453.797 430.504 447.82 422.622 443 420z"/>
<path style="fill:#c86d58; stroke:none;" d="M508 420L509 421L508 420M533 421L534 422L533 421M447 422L448 423L447 422z"/>
<path style="fill:#69b5bb; stroke:none;" d="M382 423L383 424L382 423z"/>
<path style="fill:#c86d58; stroke:none;" d="M444.333 423.667L444.667 424.333L444.333 423.667M448 423L450 427L448 423M536 423L537 424L536 423z"/>
<path style="fill:#d7955f; stroke:none;" d="M742 423L743 424L742 423z"/>
<path style="fill:#c86d58; stroke:none;" d="M537 424L538 425L537 424z"/>
<path style="fill:#d7955f; stroke:none;" d="M741 424L742 425L741 424z"/>
<path style="fill:#c86d58; stroke:none;" d="M539 425L540 426L539 425M512 426L512 428L514 428L512 426z"/>
<path style="fill:#d7955f; stroke:none;" d="M740.333 426.667L740.667 427.333L740.333 426.667z"/>
<path style="fill:#c86d58; stroke:none;" d="M448 427L449 428L448 427M542 427L543 428L542 427M447.333 428.667L447.667 429.333L447.333 428.667M544 428L545 429L544 428M451 430L452 431L451 430M516.333 430.667L516.667 431.333L516.333 430.667z"/>
<path style="fill:#d7955f; stroke:none;" d="M739 430L739 434L740 434L739 430z"/>
<path style="fill:#c86d58; stroke:none;" d="M549 431L550 432L549 431z"/>
<path style="fill:#d7955f; stroke:none;" d="M875 431L876 432L875 431z"/>
<path style="fill:#ffffff; stroke:none;" d="M373 432L372 434L373 432z"/>
<path style="fill:#c86d58; stroke:none;" d="M449 432L450 433L449 432M548 432L549 433L548 432M550 432L551 433L550 432M450 433L451 434L450 433M551 433L552 434L551 433M554 434L555 435L554 434M453 437L456 435L453 437M521.333 435.667L521.667 436.333L521.333 435.667M666 435L667 436L666 435z"/>
<path style="fill:#69b5bb; stroke:none;" d="M667 435L669 437L669 435L667 435z"/>
<path style="fill:#ffffff; stroke:none;" d="M880 435L881 436L880 435z"/>
<path style="fill:#262034; stroke:none;" d="M456 436L455 437L467 452C477.458 454.666 483.745 470.593 495 471L494 474C501.5 477.839 511.332 486.127 512 495L492 489C492.861 494.166 504.874 498.146 510 499C513.032 499.505 518.942 495.455 518 492C513.69 476.195 490.748 464.442 479 454C475.412 450.811 464.186 445.257 465 442L456 436M458 436L459 437L458 436z"/>
<path style="fill:#c86d58; stroke:none;" d="M558.667 436.333L559.333 436.667L558.667 436.333z"/>
<path style="fill:#d7955f; stroke:none;" d="M738 436L739 437L738 436z"/>
<path style="fill:#262034; stroke:none;" d="M739 436C732.622 451.118 750.339 465.863 756 479L757 479C760.465 471.941 765.218 463.668 773 461C776.05 467.214 785.925 474.03 793 473L794 476L797 473L779 463L779 461C764.98 461.487 774.48 446.575 777 440L769 437C761.146 453.831 748.062 446.044 739 436z"/>
<path style="fill:#c86d58; stroke:none;" d="M780 439L780 440L794 438C789.363 434.878 784.679 436.82 780 439M522 437L523 438L522 437M562 437L563 438L562 437M663 437L664 438L663 437M668 437L669 438L668 437M772 437L773 438L772 437z"/>
<path style="fill:#262034; stroke:none;" d="M778 441L778 442C788.3 441.978 797.014 443.105 806.985 445.822C810.686 446.83 815.483 449.549 818 446L815 447C807.08 436.716 788.52 435.645 778 441z"/>
<path style="fill:#c86d58; stroke:none;" d="M795 437L797 439L797 437L795 437M564 438L565 439L564 438M661 438L662 439L661 438z"/>
<path style="fill:#69b5bb; stroke:none;" d="M668 438L667 446L668 446L668 438z"/>
<path style="fill:#c86d58; stroke:none;" d="M774 438L775 439L774 438M799 438L800 439L799 438M565 439L565 440L571 442L565 439M659 439L660 440L659 439M737 439L738 440L737 439M800 439L801 440L800 439M657 440L658 441L657 440M803 440L804 441L803 440M525 441L526 442L525 441M654.667 441.333L655.333 441.667L654.667 441.333M776 441L784 443L784 442L776 441M786 441L787 442L786 441M804 441L804 442L807 442L804 441M526 442L527 443L526 442M573 442L574 443L573 442M652 442L653 443L652 442M791 442L792 443L791 442M793 442L794 443L793 442M809 442L810 443L809 442M870.333 442.667L870.667 443.333L870.333 442.667M528 443L529 444L528 443M575.667 443.333L576.333 443.667L575.667 443.333M645 443L645 444L649 445L645 443M651 443L652 444L651 443M667 443L668 444L667 443M795 443L796 444L795 443M797 443L797 444L800 444L797 443M810 443L811 444L810 443z"/>
<path style="fill:#262034; stroke:none;" d="M869.333 443.667L869.667 444.333L869.333 443.667z"/>
<path style="fill:#c86d58; stroke:none;" d="M529 444L530 445L529 444M578 444L579 445L578 444M642.667 444.333L643.333 444.667L642.667 444.333M668 444L669 445L668 444M801 444L802 445L801 444M811 444L811 445L815 445L811 444M865 444L865 446L862 445L862 446L866 448L867 444L865 444M530 445L531 446L530 445M580 445L581 446L580 445M638.667 445.333L639.333 445.667L638.667 445.333M804 445L804 446L807 446L804 445M815.333 445.667L815.667 446.333L815.333 445.667z"/>
<path style="fill:#262034; stroke:none;" d="M864 445L865 446L864 445z"/>
<path style="fill:#c86d58; stroke:none;" d="M531 446L532 447L531 446M583.667 446.333L584.333 446.667L583.667 446.333M635.667 446.333L636.333 446.667L635.667 446.333M737 446L738 447L737 446M773 446L774 447L773 446M807.667 446.333L808.333 446.667L807.667 446.333M811 446L812 447L811 446z"/>
<path style="fill:#262034; stroke:none;" d="M859 451L851 455L851 456C856.091 454.315 862.385 451.372 864 446L859 451z"/>
<path style="fill:#c86d58; stroke:none;" d="M532 447L533 448L532 447M589 447L589 448L592 448L589 447M631.667 447.333L632.333 447.667L631.667 447.333z"/>
<path style="fill:#d7955f; stroke:none;" d="M737 447L738 448L737 447z"/>
<path style="fill:#c86d58; stroke:none;" d="M810 447L811 448L810 447M812.667 447.333L813.333 447.667L812.667 447.333M818 447L819 448L818 447M859.667 447.333L860.333 447.667L859.667 447.333M534 448L535 449L534 448M597 448L597 449L601 449L597 448M604 448L612 450L612 449L604 448M628.667 448.333L629.333 448.667L628.667 448.333M772.333 448.667L772.667 449.333L772.333 448.667M814 448L815 449L814 448M819.333 448.667L819.667 449.333L819.333 448.667M535.333 449.667L535.667 450.333L535.333 449.667M614 449L613 451L615 451L614 449M617 449L617 450L620 450L617 449M738 449L739 450L738 449M815 449L816 450L815 449M817 449L818 450L817 449M856 449L857 450L856 449M861 449L862 450L861 449M855 450L856 451L855 450M858 450L859 451L858 450M862 450L863 451L862 450M536 451L537 452L536 451z"/>
<path style="fill:#69b5bb; stroke:none;" d="M739 451L740 452L739 451z"/>
<path style="fill:#c86d58; stroke:none;" d="M853 451L854 452L853 451M859.667 451.333L860.333 451.667L859.667 451.333M539 452L540 453L539 452M771 452L771 460L772 460L771 452M852 452L853 453L852 452M857.667 452.333L858.333 452.667L857.667 452.333z"/>
<path style="fill:#d7955f; stroke:none;" d="M740 453L741 454L740 453z"/>
<path style="fill:#c86d58; stroke:none;" d="M856 453L857 454L856 453M541 454L542 455L541 454M741 454L742 455L741 454M850 454L849 460L850 460L853 456L851 456L851 455L853 455L850 454M855 454L856 455L855 454M542 455L543 456L542 455M853.667 455.333L854.333 455.667L853.667 455.333M544 456L545 457L544 456z"/>
<path style="fill:#262034; stroke:none;" d="M666 456L667 457L666 456z"/>
<path style="fill:#d7955f; stroke:none;" d="M742 456L743 457L742 456z"/>
<path style="fill:#262034; stroke:none;" d="M849 456C835.845 463.75 818.392 467.045 816 485C806.337 486.447 798.055 500.835 800 510L791 526C802.363 520.923 801.327 507.727 807.513 499.001C810.635 494.596 816.041 492.403 818.95 487.985C822.05 483.279 822.584 476.944 826.708 472.975C831.092 468.756 838.463 467.74 842 463L844 464L845 461C848.04 460.448 849.667 459.239 849 456z"/>
<path style="fill:#c86d58; stroke:none;" d="M664 457L665 458L664 457M743 457L744 458L743 457M845.667 457.333L846.333 457.667L845.667 457.333M546 458L547 459L546 458M666 458L667 459L666 458M843.667 458.333L844.333 458.667L843.667 458.333M547 459L548 460L547 459z"/>
<path style="fill:#d7955f; stroke:none;" d="M744 459L745 460L744 459z"/>
<path style="fill:#c86d58; stroke:none;" d="M842 459L843 460L842 459z"/>
<path style="fill:#262034; stroke:none;" d="M850 459L851 460L850 459z"/>
<path style="fill:#c86d58; stroke:none;" d="M549 460L550 461L549 460M745 460L746 461L745 460M773.667 460.333L774.333 460.667L773.667 460.333M776 460L778 462L778 460L776 460M839 460L839 461L842 461L839 460M770 461L773 463L770 461M779.333 461.667L779.667 462.333L779.333 461.667M837 461L838 462L837 461M845 461L846 462L845 461M847 461L848 462L847 461M552 462L553 463L552 462z"/>
<path style="fill:#d7955f; stroke:none;" d="M746 462L747 463L746 462z"/>
<path style="fill:#c86d58; stroke:none;" d="M768 462L769 463L768 462M781 462L782 463L781 462M846 462L847 463L846 462M368 463L369 464L368 463z"/>
<path style="fill:#262034; stroke:none;" d="M369 463L370 464L369 463z"/>
<path style="fill:#c86d58; stroke:none;" d="M747 463L748 464L747 463M767 463L768 464L767 463M773 463L773 465L775 465L773 463M783 463L784 464L783 463M833.667 463.333L834.333 463.667L833.667 463.333M842.333 463.667L842.667 464.333L842.333 463.667z"/>
<path style="fill:#262034; stroke:none;" d="M370 464C371.907 467.364 375.353 470.341 379 468L370 464z"/>
<path style="fill:#c86d58; stroke:none;" d="M371.667 464.333L372.333 464.667L371.667 464.333M766 464L767 465L766 464M784 464L785 465L784 464M375 465L376 466L375 465z"/>
<path style="fill:#d7955f; stroke:none;" d="M748 465L749 466L748 465z"/>
<path style="fill:#c86d58; stroke:none;" d="M775 465L776 466L775 465M838 465L839 466L838 465M372 466L373 467L372 466M558 466L559 467L558 466M660 466L661 467L660 466M765 466L766 467L765 466M776.667 466.333L777.333 466.667L776.667 466.333M828 466L829 467L828 466M374 467L375 468L374 467M378 467L379 468L378 467M764 467L765 468L764 467M778.667 467.333L779.333 467.667L778.667 467.333M787 467L788 468L787 467M834.667 467.333L835.333 467.667L834.667 467.333M373 468L374 469L373 468z"/>
<path style="fill:#69b5bb; stroke:none;" d="M376 468L377 469L376 468M750 468L751 469L750 468z"/>
<path style="fill:#c86d58; stroke:none;" d="M824 468L825 469L824 468M832.667 468.333L833.333 468.667L832.667 468.333M375 469L376 470L375 469z"/>
<path style="fill:#69b5bb; stroke:none;" d="M377 469L378 470L377 469z"/>
<path style="fill:#c86d58; stroke:none;" d="M378 469L380 471L380 469L378 469M562 469L563 470L562 469M762 469L763 470L762 469M780.667 469.333L781.333 469.667L780.667 469.333M789.667 469.333L790.333 469.667L789.667 469.333M831 469L832 470L831 469M377 470L378 471L377 470z"/>
<path style="fill:#262034; stroke:none;" d="M380 470L380 471L384 472L384 471L380 470z"/>
<path style="fill:#d7955f; stroke:none;" d="M751 470L752 471L751 470z"/>
<path style="fill:#c86d58; stroke:none;" d="M761 470L762 471L761 470M783 470L785 472L785 470L783 470M791 470L792 471L791 470M822 470L823 471L822 470M830 470L831 471L830 470z"/>
<path style="fill:#262034; stroke:none;" d="M379 471L380 472L379 471z"/>
<path style="fill:#c86d58; stroke:none;" d="M565 471L566 472L565 471M792 471L792 472L795 472L792 471M821 471L822 472L821 471M827.333 471.667L827.667 472.333L827.333 471.667M383 472L384 473L383 472M567 472L568 473L567 472z"/>
<path style="fill:#d7955f; stroke:none;" d="M752 472L753 473L752 472z"/>
<path style="fill:#c86d58; stroke:none;" d="M786 472L787 473L786 472M795 472L796 473L795 472M820 472L820 475L821 475L820 472M753 473L754 474L753 473M759 473L760 474L759 473M788.667 473.333L789.333 473.667L788.667 473.333M792 473L793 474L792 473M826 473L827 474L826 473z"/>
<path style="fill:#262034; stroke:none;" d="M385 474C387.72 478.234 391 480.345 396 481C395.972 483.437 396.556 483.303 399 483C404.477 492.194 416.927 496.372 425.715 501.735C447.505 515.034 470.055 526.932 493 538.11C501.881 542.436 512.692 552.229 523 551C523.843 556.334 539.32 558.461 544 560.602C565.926 570.63 588.277 567.028 609 556.491C614.505 553.692 625.4 548.534 628 543C634.91 543.405 653.929 533.287 655 526L636 537L609 550C591.261 568.844 563.727 561.11 542.961 554.704C536.179 552.613 522.447 549.403 519 543C509.234 541.749 492.543 534.296 486 527L480 527L470.995 520.005L444 505C437.997 504.666 433.898 500.297 429 497.353C420.347 492.154 407.544 489.973 402 481L385 474z"/>
<path style="fill:#c86d58; stroke:none;" d="M569.667 474.333L570.333 474.667L569.667 474.333M706 474L706 476L708 476L708 474L706 474M790.667 474.333L791.333 474.667L790.667 474.333M793 474L794 475L793 474M795 475L795 476L798 477L798 474L795 475M754 475L755 476L754 475M824.333 475.667L824.667 476.333L824.333 475.667M818.667 476.333L819.333 476.667L818.667 476.333M573 477L574 478L573 477M639 477L640 478L639 477M708 477L709 478L708 477z"/>
<path style="fill:#262034; stroke:none;" d="M709 477L709 481L710 481L709 477z"/>
<path style="fill:#69b5bb; stroke:none;" d="M755 477L756 478L755 477z"/>
<path style="fill:#c86d58; stroke:none;" d="M757 477L758 478L757 477M823.333 477.667L823.667 478.333L823.333 477.667M575 478L576 479L575 478M710 478L710 482L711 482L710 478M633 479L634 480L633 479M708 479L709 480L708 479M822.333 479.667L822.667 480.333L822.333 479.667M817 480L818 481L817 480M579 481L580 482L579 481M581 482L582 483L581 482M822 482L823 483L822 482M582 483L583 484L582 483M589 483L590 484L589 483M814 483L815 484L814 483M585 484L585 485L589 485L585 484M813 484L814 485L813 484M815 484L816 485L815 484M820 484L821 487L820 484M488 485L489 486L488 485M486 486L489 489L489 488L486 486z"/>
<path style="fill:#262034; stroke:none;" d="M487 486L492 489L492 488L487 486z"/>
<path style="fill:#c86d58; stroke:none;" d="M490 486L490 488L492 488L490 486M812 486L813 487L812 486M706 487L706 492L707 492L706 487M810.333 487.667L810.667 488.333L810.333 487.667z"/>
<path style="fill:#262034; stroke:none;" d="M706 488L707 489L706 488M705.333 489.667L705.667 490.333L705.333 489.667z"/>
<path style="fill:#c86d58; stroke:none;" d="M809 489L810 490L809 489z"/>
<path style="fill:#262034; stroke:none;" d="M707 490L708 491L707 490z"/>
<path style="fill:#c86d58; stroke:none;" d="M806 490L807 491L806 490M817 490L818 491L817 490M621 491L622 492L621 491M704 491L705 492L704 491M758 491L759 492L758 491M761 491L762 492L761 491M815 491L816 492L815 491M619.333 492.667L619.667 493.333L619.333 492.667M703 492L704 493L703 492z"/>
<path style="fill:#262034; stroke:none;" d="M757 492C759.761 496.789 771.971 505.292 777 500L757 492z"/>
<path style="fill:#c86d58; stroke:none;" d="M763.667 492.333L764.333 492.667L763.667 492.333M804 492L805 493L804 492M813 492L814 493L813 492z"/>
<path style="fill:#262034; stroke:none;" d="M702 493L685 511L658 523L658 524L667 523L687 509C691.222 508.994 693.587 507.267 694 503L697 504L702 493z"/>
<path style="fill:#c86d58; stroke:none;" d="M757 493L758 494L757 493M765.667 493.333L766.333 493.667L765.667 493.333M803 493L804 494L803 493M620 494L621 495L620 494M702.667 494.333L703.333 494.667L702.667 494.333z"/>
<path style="fill:#262034; stroke:none;" d="M704.333 494.667L704.667 495.333L704.333 494.667z"/>
<path style="fill:#c86d58; stroke:none;" d="M767 494L768 495L767 494M811 494L812 495L811 494M758 495L759 496L758 495M768 495L770 497L770 495L768 495M810 495L811 496L810 495M698 496L699 497L698 496M701 496L702 497L701 496M760 496L761 497L760 496M801 496L801 499L802 499L801 496M809 496L810 497L809 496M697 497L698 498L697 497M700 497L701 498L700 497M762 497L763 498L762 497M771.667 497.333L772.333 497.667L771.667 497.333M763 498L764 499L763 498M773 498L776 501L773 498M807.333 498.667L807.667 499.333L807.333 498.667M764 499L764 500L767 500L764 499M695 500L696 501L695 500M699 500L700 501L699 500M801 500L802 501L801 500M694 501L695 502L694 501M770 501L770 502L774 502L770 501M800 501L801 502L800 501M692 502L693 503L692 502M697 502L698 503L697 502M774 502L774 503L777 503L774 502M799.333 502.667L799.667 503.333L799.333 502.667M805.333 502.667L805.667 503.333L805.333 502.667M690 503L691 504L690 503M694 503L696 505L696 503L694 503M691 504L691 507L692 507L691 504M805 505L806 506L805 505M687 506L688 507L687 506M693 506L694 507L693 506M804 506L805 507L804 506M686 507L687 508L686 507M799 507L800 508L799 507z"/>
<path style="fill:#69b5bb; stroke:none;" d="M446 508L447 509L446 508z"/>
<path style="fill:#c86d58; stroke:none;" d="M691 508L692 509L691 508M803 508L804 509L803 508M687.333 509.667L687.667 510.333L687.333 509.667M689 509L690 510L689 509M798.667 509.333L799.333 509.667L798.667 509.333M684 510L685 511L684 510M797 510L797 513L798 513L797 510M803.333 510.667L803.667 511.333L803.333 510.667M686 511L687 512L686 511M683 512L684 513L683 512M675 513L676 514L675 513M679.667 514.333L680.333 514.667L679.667 514.333M796 514L797 515L796 514M801 514L802 515L801 514M677 515L678 516L677 515M800 515L801 516L800 515M675 516L676 517L675 516M668 517L669 518L668 517M674 517L675 518L674 517M795 517L793 520L795 517M665 518L666 519L665 518M798 519L799 520L798 519M796 521L797 522L796 521M664 522L665 523L664 522M795.333 522.667L795.667 523.333L795.333 522.667z"/>
<path style="fill:#69b5bb; stroke:none;" d="M474 523L475 524L474 523z"/>
<path style="fill:#c86d58; stroke:none;" d="M657 523L657 527L658 527L657 523M663 523L664 524L663 523M661 524L662 525L661 524M791 524L792 525L791 524z"/>
<path style="fill:#262034; stroke:none;" d="M656 525L656 527L658 525L656 525z"/>
<path style="fill:#c86d58; stroke:none;" d="M789 526L789 530L793 526L789 526z"/>
<path style="fill:#262034; stroke:none;" d="M789 527L789 529L791 527L789 527M791 528L792 529L791 528M757 531C744.432 541.327 748.155 549.024 746.857 562.961C744.813 584.894 748.661 604.561 754.021 626C755.771 633.001 760.191 654.44 768 656L772 668C778.258 668 786.418 681.792 789.167 687C801.091 709.594 800 740.607 800 766C800 774.273 801.002 782.98 800.333 791C800.121 793.545 802.252 795.761 800 797C806.646 809.021 805.576 828.456 807.38 842.17C808.092 847.577 811.291 852.701 809 858L809 859L812 868C817.022 864.048 814.274 852.863 815.375 847C819.328 825.937 819.619 799.737 828 780C828.964 785.976 827.209 792.728 832 797L830 789L832 789C828.444 774.956 834.932 764.354 838.12 751C839.332 745.923 837.447 741.345 841 737L840.701 714L836 687L832 686L832 672L829 651L828 651L828 654L827 654L828 643L825 641L825.824 633L820 606L821 606L821 608L822 608L820 598L817 599L817 595C801.109 593.381 796.391 568.884 784 562C783.568 551.127 771.127 544.47 765 537L764 537L765 539L764 539L757 531z"/>
<path style="fill:#c86d58; stroke:none;" d="M758 531L759 532L758 531M759 532L760 533L759 532M760 533L761 534L760 533M761 535L762 536L761 535M762 537L763 538L762 537M765 537L766 538L765 537M764 538L765 539L764 538M510 539L511 540L510 539z"/>
<path style="fill:#69b5bb; stroke:none;" d="M634 539L635 540L634 539z"/>
<path style="fill:#c86d58; stroke:none;" d="M766 539L767 540L766 539M768 541L768 542L771 542L768 541M774 546L775 547L774 546M775 547L776 548L775 547M777 548L778 549L777 548M778 550L779 551L778 550M780 554L781 555L780 554M781.667 555.333L782.333 555.667L781.667 555.333M783.333 556.667L783.667 557.333L783.333 556.667M784 558L785 559L784 558M784 560L784 562L786 560L784 560M789 566L789 568L791 568L789 566M790 569L791 570L790 569M791 570L792 571L791 570M792 571L793 572L792 571M793 572L794 573L793 572M744.667 574.333L745.333 574.667L744.667 574.333M795 575L796 576L795 575M796 576L797 577L796 576M797.333 577.667L797.667 578.333L797.333 577.667M798.667 580.333L799.333 580.667L798.667 580.333M800 581L801 582L800 581M804 586L805 587L804 586M805 587L806 588L805 587M810 592L811 593L810 592M812 592L813 593L812 592M811 593L812 594L811 593M813 593L816 596L813 593M812 594L813 595L812 594M817 595L816 598L819 596L817 595M817 598L818 599L817 598M820 598L819 600L821 600L820 598M820 602L821 603L820 602M820 604L821 605L820 604M821 605L822 606L821 605M820 606L821 607L820 606z"/>
<path style="fill:#d7955f; stroke:none;" d="M820 607L821 608L820 607z"/>
<path style="fill:#c86d58; stroke:none;" d="M820 608L821 614L822 614L823 608L820 608M822 615L824 620L824 615L822 615z"/>
<path style="fill:#262034; stroke:none;" d="M823 616L823 619L824 619L823 616z"/>
<path style="fill:#c86d58; stroke:none;" d="M823 624L823 627L824 627L823 624z"/>
<path style="fill:#ffffff; stroke:none;" d="M158 626L157 628L158 626z"/>
<path style="fill:#c86d58; stroke:none;" d="M824 629L825 630L824 629M825 630L826 631L825 630M826 635L826 638L827 638L826 635M827 640L825 641L827 644L827 640z"/>
<path style="fill:#d7955f; stroke:none;" d="M825 642L826 643L825 642z"/>
<path style="fill:#c86d58; stroke:none;" d="M828 647L827 652L828 652L828 647z"/>
<path style="fill:#ffffff; stroke:none;" d="M961 649L962 650L961 649z"/>
<path style="fill:#d7955f; stroke:none;" d="M827.333 652.667L827.667 653.333L827.333 652.667z"/>
<path style="fill:#69b5bb; stroke:none;" d="M766 654L767 655L766 654z"/>
<path style="fill:#c86d58; stroke:none;" d="M829.333 655.667L829.667 656.333L829.333 655.667z"/>
<path style="fill:#ffffff; stroke:none;" d="M967 657L968 658L967 657z"/>
<path style="fill:#69b5bb; stroke:none;" d="M970 658L971 659L970 658z"/>
<path style="fill:#c86d58; stroke:none;" d="M830 661L830 664L831 664L830 661M831 668L831 671L832 671L831 668M830 671L830 676L831 676L830 671M831 676L832 680L833 680L831 676z"/>
<path style="fill:#ffffff; stroke:none;" d="M987 677L990 680L987 677z"/>
<path style="fill:#69b5bb; stroke:none;" d="M991 680L992 681L991 680z"/>
<path style="fill:#c86d58; stroke:none;" d="M833 682L834 686L833 682M835 686L836 687L835 686z"/>
<path style="fill:#ffffff; stroke:none;" d="M997.333 690.667L997.667 691.333L997.333 690.667M1009 724L1009 728L1010 728L1009 724M1012 734L1012 737L1013 737L1012 734M1013 738L1014 742L1015 742L1013 738z"/>
<path style="fill:#262034; stroke:none;" d="M316 746C313.777 752.668 314.256 760.232 312 767C307.236 781.291 299.134 796.159 292 809C290.251 812.149 294.582 815.836 293 819C290.043 824.913 274.327 816.366 273 823L272 823L271 821L254 831L274 828L276 827C287.051 818.498 305.214 823.755 314.242 832.62C318.015 836.324 319.755 842.02 324 845L326 852L324 851L324 852L327 853C323.124 866.149 345.975 870.19 356 873.293C376.767 879.723 398.586 892.531 420 895.787C430.075 897.319 441.928 894.255 452 893L452 892L442 885C427.087 877.955 413.715 865.085 402.084 853.611C397.225 848.817 390.741 839.249 384 838C380.139 829.298 370.642 823.288 364.876 815.91C348.274 794.666 328.769 770.959 318 746L316 746M184 777L184 779L186 777L184 777z"/>
<path style="fill:#c86d58; stroke:none;" d="M186 777L184 780L188 778L186 777z"/>
<path style="fill:#262034; stroke:none;" d="M187 777L188 778L187 777M188 778L213.015 784.774L251.711 801.685L275 816L275 815L269 813C268.838 809.342 267.645 808.165 264 808C258.228 793.258 230.254 786.054 216.972 780.278C213.461 778.751 204.928 779.931 203 777L188 778z"/>
<path style="fill:#c86d58; stroke:none;" d="M183 778L184 779L183 778M828 781L829 782L828 781M828 783L828 787L829 787L828 783M831 783L832 784L831 783M831 785L831 788L832 788L831 785M828 788L828 791L829 791L828 788M831 791L832 792L831 791M829 792L830 793L829 792M832 792L833 793L832 792M828 793L829 794L828 793M829 795L830 796L829 795M832.333 796.667L832.667 797.333L832.333 796.667M830 797L831 798L830 797z"/>
<path style="fill:#262034; stroke:none;" d="M832 798L833 799L832 798z"/>
<path style="fill:#c86d58; stroke:none;" d="M830 799L831 800L830 799M832 799L833 800L832 799M831 801L833 804L831 801z"/>
<path style="fill:#262034; stroke:none;" d="M832 802L833 803L832 802z"/>
<path style="fill:#c86d58; stroke:none;" d="M264.333 806.667L264.667 807.333L264.333 806.667M266 807L267 808L266 807M263 808L264 809L263 808M264 809L265 810L264 809M267 812L268 813L267 812M269 812L270 813L269 812M272.333 812.667L272.667 813.333L272.333 812.667M268.333 813.667L268.667 814.333L268.333 813.667M274 814L275 815L274 814M269 815L270 816L269 815M274 816L274 819L275 819L274 816z"/>
<path style="fill:#69b5bb; stroke:none;" d="M274 817L275 818L274 817z"/>
<path style="fill:#262034; stroke:none;" d="M275 817L276 818L275 817z"/>
<path style="fill:#c86d58; stroke:none;" d="M276 817L277 818L276 817M277 819L278 820L277 819M281 820L281 821L287 820L281 820M278.667 820.333L279.333 820.667L278.667 820.333M274 821L275 822L274 821z"/>
<path style="fill:#69b5bb; stroke:none;" d="M293 821L294 822L293 821z"/>
<path style="fill:#c86d58; stroke:none;" d="M266.667 822.333L267.333 822.667L266.667 822.333M269 822L270 823L269 822M272 822L273 823L272 822M289 822L290 825L289 822M262 824L263 825L262 824M282.667 824.333L283.333 824.667L282.667 824.333M260 825L261 826L260 825M276.667 825.333L277.333 825.667L276.667 825.333M279 825L280 826L279 825M259 826L260 827L259 826M257 827L258 828L257 827M270.667 827.333L271.333 827.667L270.667 827.333M274 827L275 828L274 827M267 828L268 829L267 828M269 828L270 829L269 828M263 829L263 830L266 830L263 829M256 830L257 831L256 830M261 830L262 831L261 830M255 831L256 832L255 831M257 831L258 832L257 831z"/>
<path style="fill:#ffffff; stroke:none;" d="M62.3333 840.667L62.6667 841.333L62.3333 840.667z"/>
<path style="fill:#69b5bb; stroke:none;" d="M323 843L324 844L323 843M327 856L327 859L328 859L327 856z"/>
<path style="fill:#ffffff; stroke:none;" d="M635 860C628.233 872.201 635.039 883.983 648 887.583C651.499 888.555 662.244 892.347 664 889L665 889C667.1 891.403 669.9 891.403 672 889L684 890L683 888L686 889L688 886L687 878L682 879L664 882L636 868L636 863L644 870L653 870C660.076 878.869 680.171 874.162 690 875C687.835 863.174 667.685 856 657 859L657 857L635 860z"/>
<path style="fill:#d7955f; stroke:none;" d="M636 863L640 866L639 863L636 863z"/>
<path style="fill:#c86d58; stroke:none;" d="M637 863L638 864L637 863z"/>
<path style="fill:#262034; stroke:none;" d="M637 866C643.394 877.82 680.138 888.454 688 874L687 874C677.704 879.634 647.277 875.024 641 866L637 866z"/>
<path style="fill:#c86d58; stroke:none;" d="M638 866L639 867L638 866z"/>
<path style="fill:#d7955f; stroke:none;" d="M641 866L644 869L641 866z"/>
<path style="fill:#262034; stroke:none;" d="M337.667 867.333L338.333 867.667L337.667 867.333z"/>
<path style="fill:#d7955f; stroke:none;" d="M636 867L637 868L636 867z"/>
<path style="fill:#c86d58; stroke:none;" d="M641 867L642 868L641 867M337 868L338 869L337 868M638 868L639 869L638 868M812 868L812 870L814 868L812 868M342 869L345 871L345 870L342 869z"/>
<path style="fill:#262034; stroke:none;" d="M343 869L344 870L343 869z"/>
<path style="fill:#d7955f; stroke:none;" d="M638 869L640 871L640 869L638 869z"/>
<path style="fill:#c86d58; stroke:none;" d="M643 869L644 870L643 869z"/>
<path style="fill:#d7955f; stroke:none;" d="M645.667 869.333L646.333 869.667L645.667 869.333z"/>
<path style="fill:#262034; stroke:none;" d="M813 869L816 876L816 872L813 869z"/>
<path style="fill:#c86d58; stroke:none;" d="M644 870L645 871L644 870M646 870L647 871L646 870z"/>
<path style="fill:#d7955f; stroke:none;" d="M648.667 870.333L649.333 870.667L648.667 870.333M652 870L650 871L650 872L652 870M640 871L641 872L640 871z"/>
<path style="fill:#c86d58; stroke:none;" d="M641 871L641 872L644 872L641 871M815 871L816 872L815 871z"/>
<path style="fill:#d7955f; stroke:none;" d="M642 872L642 873L645 873L642 872M654 872L655 873L654 872z"/>
<path style="fill:#c86d58; stroke:none;" d="M655 872L656 873L655 872z"/>
<path style="fill:#d7955f; stroke:none;" d="M656 872L657 873L656 872z"/>
<path style="fill:#c86d58; stroke:none;" d="M812 872L813 873L812 872M814 872L815 873L814 872M354.667 873.333L355.333 873.667L354.667 873.333M357.667 873.333L358.333 873.667L357.667 873.333M645 873L646 874L645 873z"/>
<path style="fill:#d7955f; stroke:none;" d="M658 873L659 874L658 873M660 873L661 874L660 873M286 984C298.631 984 314.881 987.97 327 991C339.717 994.179 348.736 992.912 361 997C371.676 1000.56 385.284 997.321 396 1000C401.782 1001.45 429.118 1001.53 428 1006C488.832 1013.86 540.983 1067.38 605 1039L605 1038L565 1034L554 1027L551 1028C554.296 1023.49 569.903 1026.85 574 1030L582 1032L610 1037L615 1036L613 1040L614 1040C618.039 1036.67 623.988 1038.11 629 1037.99C638.604 1037.75 653.849 1035.1 659 1026C666.552 1024.63 662.984 1015.35 669.144 1012.6C676.785 1009.19 694.725 1009.42 695.667 998C696.467 988.305 682.56 982.444 675 980.515C661.666 977.112 648.071 977.63 635 973.367C617.827 967.767 602.187 957.814 585 952L585 951C612.335 956.639 637.981 970.704 666 973.711C674.184 974.589 692.383 970.766 694.253 960.914C696.44 949.393 677.291 946.996 676 938L661.004 932.966L627 918L628 911L627 911L627 917C621.881 916.147 605.265 908.939 606 906L603 907C602.382 902.859 589.134 899.911 585 899L586 897L546 885L546 887L520 887.911L474 889L474 890L476 890C463.942 890.793 451.999 892.789 440 894.286C433.21 895.134 427.337 897.719 420.424 896.031C397.284 890.38 372.3 871.806 348 874.104C311.446 877.562 285.297 925.651 282.633 959C281.97 967.302 284.946 975.837 286 984z"/>
<path style="fill:#c86d58; stroke:none;" d="M360 874L361 875L360 874M646.667 874.333L647.333 874.667L646.667 874.333M659 874L660 875L659 874z"/>
<path style="fill:#d7955f; stroke:none;" d="M661 874L662 875L661 874M663 874L664 875L663 874z"/>
<path style="fill:#c86d58; stroke:none;" d="M664 874L665 875L664 874M666 874L667 875L666 874z"/>
<path style="fill:#d7955f; stroke:none;" d="M667 874L668 875L667 874M684 874L685 875L684 874z"/>
<path style="fill:#c86d58; stroke:none;" d="M686 874L685 876L687 876L686 874M815 874L816 875L815 874M362 875L363 876L362 875z"/>
<path style="fill:#d7955f; stroke:none;" d="M648 875L649 876L648 875z"/>
<path style="fill:#c86d58; stroke:none;" d="M649 875L650 876L649 875M651 875L652 876L651 875M668 875L668 876L671 876L668 875z"/>
<path style="fill:#d7955f; stroke:none;" d="M671 875L672 876L671 875z"/>
<path style="fill:#c86d58; stroke:none;" d="M672 875L673 876L672 875z"/>
<path style="fill:#d7955f; stroke:none;" d="M674.667 875.333L675.333 875.667L674.667 875.333z"/>
<path style="fill:#c86d58; stroke:none;" d="M676 875L677 876L676 875M678 875L679 876L678 875z"/>
<path style="fill:#d7955f; stroke:none;" d="M679 875L680 876L679 875z"/>
<path style="fill:#c86d58; stroke:none;" d="M680 875L680 876L684 876L680 875M688 875L687 877L688 875M364 876L365 877L364 876z"/>
<path style="fill:#d7955f; stroke:none;" d="M650 876L651 877L650 876M652.667 876.333L653.333 876.667L652.667 876.333z"/>
<path style="fill:#c86d58; stroke:none;" d="M654 876L655 877L654 876z"/>
<path style="fill:#d7955f; stroke:none;" d="M688 876L689 877L688 876z"/>
<path style="fill:#c86d58; stroke:none;" d="M814 876L815 877L814 876M367 877L368 878L367 877z"/>
<path style="fill:#d7955f; stroke:none;" d="M655 877L656 878L655 877z"/>
<path style="fill:#c86d58; stroke:none;" d="M656 877L657 878L656 877z"/>
<path style="fill:#d7955f; stroke:none;" d="M686 877L687 878L686 877z"/>
<path style="fill:#c86d58; stroke:none;" d="M371 878L372 879L371 878z"/>
<path style="fill:#d7955f; stroke:none;" d="M657 878L658 879L657 878z"/>
<path style="fill:#c86d58; stroke:none;" d="M658 878L659 879L658 878z"/>
<path style="fill:#d7955f; stroke:none;" d="M659 878L660 879L659 878z"/>
<path style="fill:#c86d58; stroke:none;" d="M682 878L682 879L685 879L682 878z"/>
<path style="fill:#d7955f; stroke:none;" d="M685 878L686 879L685 878z"/>
<path style="fill:#c86d58; stroke:none;" d="M374.667 879.333L375.333 879.667L374.667 879.333z"/>
<path style="fill:#d7955f; stroke:none;" d="M634 879L639 883L639 882L634 879M660.667 879.333L661.333 879.667L660.667 879.333z"/>
<path style="fill:#c86d58; stroke:none;" d="M662 879L662 880L666 881L666 880L662 879M681 879L682 880L681 879z"/>
<path style="fill:#d7955f; stroke:none;" d="M684 879L685 880L684 879z"/>
<path style="fill:#c86d58; stroke:none;" d="M377.667 880.333L378.333 880.667L377.667 880.333M634 880L631 895L634 898C650.657 902.482 661.281 908.196 679 905L682 890L672 890L671 893L651 888.622L634 880z"/>
<path style="fill:#d7955f; stroke:none;" d="M666 880L667 881L666 880z"/>
<path style="fill:#c86d58; stroke:none;" d="M667 880L668 881L667 880z"/>
<path style="fill:#d7955f; stroke:none;" d="M668 880L668 881L672 882L672 881L668 880z"/>
<path style="fill:#c86d58; stroke:none;" d="M670 880L671 881L670 880z"/>
<path style="fill:#d7955f; stroke:none;" d="M674 880L675 881L674 880M677.667 880.333L678.333 880.667L677.667 880.333M680.667 880.333L681.333 880.667L680.667 880.333z"/>
<path style="fill:#c86d58; stroke:none;" d="M380.667 881.333L381.333 881.667L380.667 881.333z"/>
<path style="fill:#d7955f; stroke:none;" d="M664 881L665 882L664 881z"/>
<path style="fill:#c86d58; stroke:none;" d="M672 881L673 882L672 881z"/>
<path style="fill:#d7955f; stroke:none;" d="M673 881L674 882L673 881M675.667 881.333L676.333 881.667L675.667 881.333z"/>
<path style="fill:#c86d58; stroke:none;" d="M383 882L384 883L383 882z"/>
<path style="fill:#d7955f; stroke:none;" d="M633 882L634 883L633 882z"/>
<path style="fill:#c86d58; stroke:none;" d="M388.667 884.333L389.333 884.667L388.667 884.333z"/>
<path style="fill:#d7955f; stroke:none;" d="M640 884L641 885L640 884z"/>
<path style="fill:#c86d58; stroke:none;" d="M391 885L392 886L391 885z"/>
<path style="fill:#d7955f; stroke:none;" d="M641 885L641 886L644 886L641 885z"/>
<path style="fill:#c86d58; stroke:none;" d="M392 886L393 887L392 886z"/>
<path style="fill:#d7955f; stroke:none;" d="M644 886L645 887L644 886z"/>
<path style="fill:#c86d58; stroke:none;" d="M394 887L394 888L397 888L394 887z"/>
<path style="fill:#d7955f; stroke:none;" d="M646.667 887.333L647.333 887.667L646.667 887.333z"/>
<path style="fill:#69b5bb; stroke:none;" d="M395 888L396 889L395 888z"/>
<path style="fill:#c86d58; stroke:none;" d="M399 888L400 889L399 888z"/>
<path style="fill:#d7955f; stroke:none;" d="M650 888L650 889L653 889L650 888z"/>
<path style="fill:#c86d58; stroke:none;" d="M401 889L402 890L401 889z"/>
<path style="fill:#d7955f; stroke:none;" d="M654 889L654 890L659 890L654 889M664.333 889.667L664.667 890.333L664.333 889.667M672.667 889.333L673.333 889.667L672.667 889.333M680.667 889.333L681.333 889.667L680.667 889.333z"/>
<path style="fill:#c86d58; stroke:none;" d="M403 890L404 891L403 890z"/>
<path style="fill:#d7955f; stroke:none;" d="M659 890L660 891L659 890M661 890L662 891L661 890M674 890L674 891L680 891L674 890z"/>
<path style="fill:#c86d58; stroke:none;" d="M406 891L407 892L406 891z"/>
<path style="fill:#69b5bb; stroke:none;" d="M566.667 891.333L567.333 891.667L566.667 891.333z"/>
<path style="fill:#d7955f; stroke:none;" d="M662 891L663 892L662 891M665 891L665 892L669 892L665 891M670 891L670 893L672 891L670 891z"/>
<path style="fill:#c86d58; stroke:none;" d="M408 892L409 893L408 892M410 892L410 894L412 892L410 892z"/>
<path style="fill:#69b5bb; stroke:none;" d="M570 892L571 893L570 892z"/>
<path style="fill:#d7955f; stroke:none;" d="M631 892L632 893L631 892M681.333 892.667L681.667 893.333L681.333 892.667z"/>
<path style="fill:#c86d58; stroke:none;" d="M413 893L414 894L413 893M443 893L444 894L443 893M448 893L449 894L448 893M436 894L436 895L439 895L436 894z"/>
<path style="fill:#ffffff; stroke:none;" d="M632 894L630 895L627 904L627 905L630 911L627 918L674 940L682 907L680 905C664.131 909.626 643.513 907.215 632 894z"/>
<path style="fill:#c86d58; stroke:none;" d="M432 895L433 896L432 895z"/>
<path style="fill:#d7955f; stroke:none;" d="M631 895L632 896L631 895M633.333 895.667L633.667 896.333L633.333 895.667z"/>
<path style="fill:#c86d58; stroke:none;" d="M682 895L683 896L682 895M420 896L421 897L420 896M423 896L423 897L431 897L423 896z"/>
<path style="fill:#d7955f; stroke:none;" d="M635 897L636 898L635 897M636 898L637 899L636 898M629 899L630 900L629 899M637 899L638 900L637 899z"/>
<path style="fill:#c86d58; stroke:none;" d="M681 899L682 900L681 899z"/>
<path style="fill:#d7955f; stroke:none;" d="M628.333 900.667L628.667 901.333L628.333 900.667M638 900L639 901L638 900M639 901L640 902L639 901M640.667 902.333L641.333 902.667L640.667 902.333M643.667 902.333L644.333 902.667L643.667 902.333M646 903L647 904L646 903M648 904L648 905L652 905L648 904M677 904L676 906L678 906L677 904M679 904L680 905L679 904M627 905L629 911L630 911L627 905M652 905L652 906L655 906L652 905M649 906L650 907L649 906M659.667 906.333L660.333 906.667L659.667 906.333M665 906L666 907L665 906M674.667 906.333L675.333 906.667L674.667 906.333M661 907L661 908L664 908L661 907M668.667 907.333L669.333 907.667L668.667 907.333M673 907L674 908L673 907z"/>
<path style="fill:#c86d58; stroke:none;" d="M627 908L627 911L629 911L629 908L627 908z"/>
<path style="fill:#d7955f; stroke:none;" d="M672 908L673 909L672 908z"/>
<path style="fill:#c86d58; stroke:none;" d="M626 912L627 913L626 912M627 913L628 914L627 913z"/>
<path style="fill:#ffffff; stroke:none;" d="M859 914L861 916L859 914z"/>
<path style="fill:#c86d58; stroke:none;" d="M626 915L627 916L626 915z"/>
<path style="fill:#ffffff; stroke:none;" d="M626 916L627 917L626 916M976 917L977 918L976 917M680 918L681 919L680 918M680 920L681 921L680 920M675 939L676 940L675 939M674 940L675 941L674 940z"/>
<path style="fill:#69b5bb; stroke:none;" d="M585 951L585 952L615 965L615 960L585 951z"/>
<path style="fill:#c86d58; stroke:none;" d="M615 961L615 966L644 976.367L665 979L667 974L615 961z"/>
<path style="fill:#ffffff; stroke:none;" d="M107 964L113 969L107 964M221.667 981.333L222.333 981.667L221.667 981.333M136 982L136 983L139 983L136 982M140 983L140 984L145 985L145 984L140 983z"/>
<path style="fill:#69b5bb; stroke:none;" d="M274 983L275 984L274 983z"/>
<path style="fill:#ffffff; stroke:none;" d="M203 985L203 986L206 986L203 985z"/>
<path style="fill:#69b5bb; stroke:none;" d="M303.667 987.333L304.333 987.667L303.667 987.333M314.667 988.333L315.333 988.667L314.667 988.333M318 989L318 990L323 990L318 989M323 990L324 991L323 990M343 992L344 993L343 992M754 993L755 994L754 993z"/>
<path style="fill:#c86d58; stroke:none;" d="M561.667 997.333L562.333 997.667L561.667 997.333z"/>
<path style="fill:#262034; stroke:none;" d="M561 999L564 997L561 999z"/>
<path style="fill:#c86d58; stroke:none;" d="M564 997L566 1001L564 997z"/>
<path style="fill:#262034; stroke:none;" d="M565 998L566 999L565 998z"/>
<path style="fill:#c86d58; stroke:none;" d="M561 999L562 1000L561 999z"/>
<path style="fill:#262034; stroke:none;" d="M566 999L566 1002L569 1001C572.742 1006.66 582.782 1007.72 589 1009.37C608.131 1014.47 626.428 1014.47 646 1016L663 1013L663 1012L656 1014C650.173 1009.98 636.155 1011.71 629 1011.83C617.325 1012.02 604.244 1007.64 593 1004.9C588.628 1003.84 583.613 1003.75 580 1001L566 999z"/>
<path style="fill:#c86d58; stroke:none;" d="M568.667 999.333L569.333 999.667L568.667 999.333M571 999L572 1000L571 999z"/>
<path style="fill:#d7955f; stroke:none;" d="M394.667 1000.33L395.333 1000.67L394.667 1000.33z"/>
<path style="fill:#c86d58; stroke:none;" d="M568.333 1001.67L568.667 1002.33L568.333 1001.67M573 1001L573 1002L579 1002L573 1001M580.667 1002.33L581.333 1002.67L580.667 1002.33M584.667 1002.33L585.333 1002.67L584.667 1002.33M571.667 1004.33L572.333 1004.67L571.667 1004.33M590 1004L591 1005L590 1004M593 1004L594 1005L593 1004M575 1005L576 1006L575 1005M595.667 1005.33L596.333 1005.67L595.667 1005.33M578 1006L579 1007L578 1006M597 1006L598 1007L597 1006M601 1006L602 1007L601 1006M580 1007L581 1008L580 1007M582 1007L583 1008L582 1007M602.667 1007.33L603.333 1007.67L602.667 1007.33M605 1007L607 1009L607 1007L605 1007M583 1008L583 1009L586 1009L583 1008M608 1008L609 1009L608 1008M610 1008L611 1009L610 1008M587 1009L587 1010L590 1010L587 1009M614 1009L615 1010L614 1009M618 1009L619 1010L618 1009M590 1010L590 1011L594 1011L590 1010M616 1010L617 1011L616 1010M620.667 1010.33L621.333 1010.67L620.667 1010.33M594.667 1011.33L595.333 1011.67L594.667 1011.33M597.667 1011.33L598.333 1011.67L597.667 1011.33M624.667 1011.33L625.333 1011.67L624.667 1011.33M628.667 1011.33L629.333 1011.67L628.667 1011.33M633 1011L633 1012L636 1012L633 1011M639.667 1011.33L640.333 1011.67L639.667 1011.33M650 1011L650 1012L655 1012L650 1011M658 1011L659 1012L658 1011M660 1011L660 1012L663 1012L660 1011M664 1011L664 1015L665 1015L664 1011M600 1012L601 1013L600 1012M644 1012L645 1013L644 1012M647 1012L647 1013L650 1013L647 1012M656 1012L657 1013L656 1012M666 1014L669 1012L666 1014M606 1015L612 1015C609.664 1013.41 607.992 1012.8 606 1015M612 1013L613 1014L612 1013M655 1013L656 1014L655 1013M659 1013L660 1014L659 1013z"/>
<path style="fill:#d7955f; stroke:none;" d="M668 1013L669 1014L668 1013z"/>
<path style="fill:#c86d58; stroke:none;" d="M614 1014L614 1015L617 1015L614 1014M618 1014L619 1015L618 1014M646 1016L651 1015L646 1016M653.667 1014.33L654.333 1014.67L653.667 1014.33M660 1014L661 1015L660 1014M662 1014L663 1015L662 1014M619 1015L619 1016L622 1016L619 1015M623 1015L624 1016L623 1015M634.667 1015.33L635.333 1015.67L634.667 1015.33M640 1015L641 1016L640 1015M643.667 1015.33L644.333 1015.67L643.667 1015.33M656 1015L656 1016L659 1016L656 1015M638 1016L639 1017L638 1016M641 1016L642 1017L641 1016M645 1016L646 1017L645 1016M551 1025L552 1026L551 1025z"/>
<path style="fill:#262034; stroke:none;" d="M551 1026L557 1028C562.066 1036.05 583.124 1037.23 592 1038.22C595.594 1038.62 600.399 1039.84 603 1037L610 1040L611 1040L613 1036L606 1035L606 1037C593.976 1032.4 570.638 1025.44 558 1028L553 1025L551 1026z"/>
<path style="fill:#c86d58; stroke:none;" d="M553 1025L554 1026L553 1025M554 1026L555 1027L554 1026M561 1026L561 1027L566 1028L566 1027L561 1026M551.667 1027.33L552.333 1027.67L551.667 1027.33M558.667 1027.33L559.333 1027.67L558.667 1027.33M567 1027L568 1028L567 1027M554 1028L555 1029L554 1028M556.333 1028.67L556.667 1029.33L556.333 1028.67M568.667 1028.33L569.333 1028.67L568.667 1028.33M571 1028L571 1029L574 1030L571 1028M576 1029L577 1030L576 1029M557 1030L558 1031L557 1030M577 1030L577 1031L581 1032L581 1031L577 1030M581 1030L582 1031L581 1030M560 1031L561 1032L560 1031M584 1031L584 1033L586 1033L584 1031M587 1032L588 1033L587 1032M565 1033L566 1034L565 1033M567.667 1033.33L568.333 1033.67L567.667 1033.33M589 1033L590 1034L589 1033M569 1034L570 1035L569 1034M573 1034L574 1035L573 1034M594.667 1034.33L595.333 1034.67L594.667 1034.33M599.667 1034.33L600.333 1034.67L599.667 1034.33M575 1035L576 1036L575 1035M601.667 1035.33L602.333 1035.67L601.667 1035.33M604 1035L606 1037L606 1035L604 1035M607.667 1035.33L608.333 1035.67L607.667 1035.33M611.667 1035.33L612.333 1035.67L611.667 1035.33M576.667 1036.33L577.333 1036.67L576.667 1036.33M579.667 1036.33L580.333 1036.67L579.667 1036.33M582 1036L583 1037L582 1036M613.667 1036.33L614.333 1036.67L613.667 1036.33M586 1037L587 1038L586 1037M603.667 1037.33L604.333 1037.67L603.667 1037.33M616 1037L616 1039L618 1037L616 1037M589 1038L589 1039L594 1039L589 1038M595 1038L596 1039L595 1038M598.667 1038.33L599.333 1038.67L598.667 1038.33M605.667 1038.33L606.333 1038.67L605.667 1038.33z"/>
<path style="fill:#d7955f; stroke:none;" d="M607 1038L608 1039L607 1038z"/>
<path style="fill:#c86d58; stroke:none;" d="M608 1038L609 1039L608 1038M612 1038L613 1039L612 1038M614 1038L615 1039L614 1038z"/>
<path style="fill:#d7955f; stroke:none;" d="M609 1039L610 1040L609 1039M611 1039L612 1040L611 1039z"/>
</svg>
