<svg xmlns="http://www.w3.org/2000/svg" xmlns:xlink="http://www.w3.org/1999/xlink" width="1080" zoomAndPan="magnify" viewBox="0 0 810 809.999993" height="1080" preserveAspectRatio="xMidYMid meet" version="1.0"><defs><clipPath id="a840b2b13e"><path d="M 193 287 L 616 287 L 616 680.957031 L 193 680.957031 Z M 193 287 " clip-rule="nonzero"/></clipPath></defs><rect x="-81" width="972" fill="#ffffff" y="-80.999999" height="971.999992" fill-opacity="1"/><rect x="-81" width="972" fill="#ffffff" y="-80.999999" height="971.999992" fill-opacity="1"/><rect x="-81" width="972" fill="#ffffff" y="-80.999999" height="971.999992" fill-opacity="1"/><path fill="#fbd0b1" d="M 757.265625 282.292969 C 749.226562 257.910156 720.179688 199.695312 707.625 161.40625 C 707.605469 161.34375 707.585938 161.292969 707.566406 161.226562 C 707.449219 160.28125 707.285156 159.292969 707.046875 158.246094 C 702.789062 139.382812 690.570312 129.835938 666.882812 142.457031 C 649.820312 151.550781 642.699219 141.988281 637.804688 161.738281 C 630.109375 192.828125 668.785156 197.453125 676.789062 183.941406 C 678.742188 183.503906 680.660156 183.078125 682.523438 182.652344 C 682.578125 185.179688 682.597656 187.773438 682.523438 190.445312 C 681.742188 218.980469 682.273438 283.285156 690.816406 336.03125 C 677.03125 324.644531 648.242188 319.699219 616.417969 324.765625 C 599.035156 327.535156 583.445312 332.863281 571.3125 339.585938 C 563.667969 328.179688 551.847656 319.429688 537.816406 314.542969 C 534.289062 324.457031 531.402344 334.585938 528.953125 344.828125 C 526.054688 356.960938 522.429688 371.460938 521.375 382.289062 C 520.933594 386.839844 520.628906 391.417969 520.558594 395.917969 C 521.707031 403.296875 523.109375 410.695312 524.707031 418.1875 C 525.800781 423.320312 526.945312 428.316406 528.167969 433.207031 C 530.421875 437.714844 532.882812 442.117188 535.714844 446.292969 C 537.0625 448.285156 538.441406 450.261719 539.890625 452.1875 C 539.878906 452.085938 543.140625 456.085938 543.519531 456.515625 C 547.085938 460.570312 550.789062 464.511719 554.707031 468.230469 C 560.90625 474.117188 566.933594 479.214844 573.179688 483.996094 C 575.183594 478.640625 576.902344 473.167969 578.324219 467.6875 C 585.457031 467.769531 593.074219 467.339844 601.207031 466.289062 C 651.179688 459.816406 675.453125 442.132812 731.179688 421.90625 C 738.960938 427.445312 755.613281 418.039062 761.25 414.207031 C 786.324219 397.183594 776.5 340.609375 757.265625 282.292969 Z M 757.265625 282.292969 " fill-opacity="1" fill-rule="nonzero"/><path fill="#fbd0b1" d="M 545.429688 373.941406 C 543.511719 361.894531 553.808594 349.28125 571.3125 339.585938 C 583.445312 332.859375 599.035156 327.535156 616.414062 324.765625 C 648.242188 319.699219 677.023438 324.644531 690.8125 336.027344 C 695.417969 339.828125 698.347656 344.351562 699.160156 349.457031 " fill-opacity="1" fill-rule="nonzero"/><path fill="#fbd0b1" d="M 682.523438 182.652344 C 682.523438 182.652344 692.996094 178.941406 695.960938 172.386719 " fill-opacity="1" fill-rule="nonzero"/><path fill="#fbd0b1" d="M 554.707031 468.230469 C 555.375 468.863281 556.039062 469.476562 556.707031 470.097656 C 558.390625 463.351562 558.925781 458.753906 558.925781 458.753906 L 554.164062 467.699219 C 554.347656 467.875 554.523438 468.054688 554.707031 468.230469 Z M 554.707031 468.230469 " fill-opacity="1" fill-rule="nonzero"/><path fill="#e8e5e5" d="M 701.425781 351.117188 C 701.425781 351.117188 702.757812 341.410156 702.757812 341.410156 C 702.179688 300.242188 692.09375 224.550781 692.878906 196.019531 C 692.949219 193.347656 692.347656 179.5625 692.292969 177.035156 C 690.097656 178.726562 687.3125 181 685.359375 181.4375 C 681.632812 182.984375 684.433594 192.800781 682.441406 193.9375 C 681.800781 223.835938 682.597656 284.800781 690.710938 335.375 C 694.769531 337.15625 698.535156 345.519531 701.425781 351.117188 Z M 701.425781 351.117188 " fill-opacity="1" fill-rule="nonzero"/><path fill="#e8e5e5" d="M 653.359375 190.152344 C 648.289062 185.375 645.542969 177.875 648.160156 167.308594 C 653.050781 147.558594 660.167969 157.121094 677.234375 148.027344 C 686.335938 143.179688 693.738281 141.609375 699.652344 142.578125 C 692.992188 135.429688 682.398438 134.1875 666.878906 142.457031 C 649.816406 151.546875 642.695312 141.984375 637.804688 161.738281 C 633.703125 178.3125 642.777344 187.359375 653.359375 190.152344 Z M 653.359375 190.152344 " fill-opacity="1" fill-rule="nonzero"/><path fill="#e8e5e5" d="M 553.417969 322.160156 C 548.652344 319.058594 543.410156 316.5 537.816406 314.546875 C 537.269531 316.085938 536.734375 317.632812 536.21875 319.179688 C 542.105469 320.101562 547.902344 321.351562 553.417969 322.160156 Z M 553.417969 322.160156 " fill-opacity="1" fill-rule="nonzero"/><path fill="#e8e5e5" d="M 549.070312 358.785156 C 549.070312 358.785156 624.324219 325.691406 689.019531 334.671875 C 683.105469 330.390625 674.953125 327.128906 665.257812 325.117188 C 665.207031 325.109375 665.160156 325.097656 665.109375 325.085938 C 664.765625 325.015625 664.410156 324.953125 664.066406 324.882812 C 654.300781 322.984375 643.0625 322.316406 631.066406 323.113281 C 630.949219 323.121094 630.832031 323.132812 630.71875 323.140625 C 626.046875 323.460938 621.269531 323.996094 616.417969 324.769531 C 600.953125 327.234375 586.917969 331.726562 575.464844 337.425781 C 566.203125 342.628906 558.664062 343.839844 549.070312 358.785156 Z M 549.070312 358.785156 " fill-opacity="1" fill-rule="nonzero"/><path fill="#e8e5e5" d="M 757.265625 282.292969 C 749.226562 257.910156 720.179688 199.695312 707.625 161.40625 C 707.605469 161.34375 707.585938 161.292969 707.566406 161.226562 C 707.449219 160.28125 707.285156 159.292969 707.046875 158.246094 C 705.445312 151.136719 702.703125 145.363281 698.648438 141.589844 C 704.253906 155.800781 766.800781 360.492188 727.898438 391.5625 C 722.570312 395.820312 711.925781 401.765625 697.472656 405.011719 C 639.632812 418.011719 617.824219 437.175781 567.851562 443.644531 C 559.71875 444.695312 552.101562 445.125 544.964844 445.046875 C 544.121094 448.308594 543.15625 451.566406 542.097656 454.804688 C 542.769531 455.621094 543.371094 456.347656 543.519531 456.515625 C 547.085938 460.570312 550.789062 464.511719 554.707031 468.230469 C 560.90625 474.117188 566.933594 479.214844 573.179688 483.996094 C 575.183594 478.640625 576.902344 473.167969 578.324219 467.6875 C 585.457031 467.769531 593.074219 467.339844 601.207031 466.289062 C 651.179688 459.816406 675.453125 442.132812 731.179688 421.90625 C 738.960938 427.445312 755.609375 418.039062 761.25 414.207031 C 786.324219 397.183594 776.5 340.609375 757.265625 282.292969 Z M 757.265625 282.292969 " fill-opacity="1" fill-rule="nonzero"/><path fill="#334865" d="M 573.992188 487.613281 C 573.167969 487.613281 572.332031 487.4375 571.535156 487.066406 C 568.609375 485.707031 567.335938 482.230469 568.695312 479.300781 L 568.914062 478.828125 C 570.691406 475.007812 571.5 473.261719 571.5 469.40625 C 571.5 466.351562 573.851562 463.808594 576.898438 463.578125 C 627.347656 459.699219 671.78125 440.941406 720.5 418.671875 C 720.6875 418.582031 720.882812 418.507812 721.082031 418.4375 C 725.988281 416.804688 730.535156 416.804688 736.285156 416.804688 C 736.425781 416.804688 736.5625 416.808594 736.703125 416.820312 C 752.433594 417.929688 767.046875 406.40625 769.230469 391.097656 C 774.714844 340.613281 755.484375 293.542969 736.882812 248.027344 C 733.5625 239.902344 730.132812 231.507812 726.902344 223.230469 C 725.191406 219.570312 723.433594 215.949219 721.683594 212.339844 C 713.972656 196.445312 706 180.003906 702.554688 160.925781 C 700.300781 154.199219 698.097656 148.667969 693.046875 144.402344 C 688.035156 142.089844 682.605469 142.210938 674.609375 144.792969 C 667.152344 149.1875 659.875 151.871094 651.765625 153.222656 C 644.710938 154.636719 641.777344 161.394531 643.226562 173.277344 C 644.203125 178.347656 647.546875 181.152344 650.191406 182.617188 C 655.265625 185.421875 662.238281 185.808594 668.113281 183.652344 C 668.726562 183.230469 669.308594 182.8125 669.875 182.40625 C 672.875 180.25 676.277344 177.804688 681.519531 176.898438 C 681.613281 176.878906 681.710938 176.867188 681.808594 176.855469 C 681.816406 176.855469 681.824219 176.84375 681.839844 176.851562 C 681.84375 176.851562 681.851562 176.851562 681.859375 176.851562 C 681.863281 176.847656 681.867188 176.851562 681.871094 176.847656 C 681.875 176.847656 681.878906 176.84375 681.886719 176.847656 C 681.890625 176.84375 681.894531 176.847656 681.898438 176.84375 C 681.90625 176.84375 681.910156 176.84375 681.917969 176.84375 C 681.921875 176.84375 681.929688 176.84375 681.933594 176.84375 C 681.941406 176.84375 681.945312 176.84375 681.953125 176.84375 C 681.957031 176.84375 681.960938 176.84375 681.96875 176.84375 C 681.972656 176.839844 681.980469 176.84375 681.980469 176.839844 C 681.988281 176.839844 681.992188 176.839844 682 176.839844 C 682.003906 176.839844 682.007812 176.835938 682.011719 176.839844 C 682.019531 176.839844 682.023438 176.839844 682.03125 176.839844 C 682.035156 176.839844 682.039062 176.839844 682.042969 176.839844 C 682.050781 176.839844 682.054688 176.839844 682.0625 176.839844 C 682.0625 176.839844 682.070312 176.839844 682.074219 176.839844 C 682.078125 176.839844 682.085938 176.839844 682.09375 176.839844 C 682.09375 176.839844 682.097656 176.839844 682.105469 176.839844 C 682.109375 176.839844 682.121094 176.839844 682.121094 176.839844 C 682.128906 176.839844 682.132812 176.839844 682.132812 176.839844 C 682.140625 176.839844 682.144531 176.839844 682.152344 176.839844 C 682.164062 176.839844 682.167969 176.839844 682.183594 176.839844 C 682.828125 176.808594 683.46875 176.875 684.082031 177.042969 C 684.085938 177.042969 684.089844 177.042969 684.097656 177.046875 C 684.101562 177.046875 684.105469 177.046875 684.109375 177.046875 C 684.113281 177.046875 684.121094 177.050781 684.125 177.054688 C 684.132812 177.054688 684.136719 177.058594 684.144531 177.058594 C 684.148438 177.058594 684.148438 177.058594 684.152344 177.058594 C 684.789062 177.246094 685.402344 177.542969 685.949219 177.941406 C 685.957031 177.945312 685.957031 177.945312 685.960938 177.953125 C 685.964844 177.953125 685.96875 177.957031 685.972656 177.960938 C 685.976562 177.960938 685.980469 177.964844 685.984375 177.96875 C 685.996094 177.972656 685.996094 177.976562 685.996094 177.980469 C 686.003906 177.980469 686.003906 177.984375 686.007812 177.988281 C 686.015625 177.992188 686.015625 177.992188 686.019531 178 C 686.019531 178 686.023438 178 686.023438 178 C 686.027344 178.003906 686.03125 178.003906 686.03125 178.007812 C 686.03125 178.007812 686.03125 178.007812 686.035156 178.007812 C 686.039062 178.011719 686.035156 178.007812 686.046875 178.015625 C 686.050781 178.019531 686.054688 178.023438 686.054688 178.023438 C 686.054688 178.023438 686.054688 178.023438 686.058594 178.023438 C 686.0625 178.027344 686.0625 178.027344 686.070312 178.035156 C 686.074219 178.035156 686.078125 178.039062 686.078125 178.039062 C 686.085938 178.042969 686.085938 178.046875 686.089844 178.050781 C 686.097656 178.054688 686.101562 178.0625 686.101562 178.058594 C 686.109375 178.0625 686.109375 178.0625 686.113281 178.070312 C 686.121094 178.074219 686.125 178.078125 686.128906 178.082031 C 687.496094 179.164062 688.308594 180.800781 688.34375 182.542969 C 688.40625 185.1875 688.457031 187.476562 688.382812 189.417969 C 688.402344 194.046875 688.414062 198.6875 688.421875 203.34375 C 688.519531 246.660156 688.617188 291.453125 696.535156 334.945312 C 696.542969 334.988281 696.550781 335.03125 696.558594 335.074219 C 696.746094 336.195312 696.601562 337.316406 696.175781 338.320312 C 696.175781 338.324219 696.171875 338.328125 696.167969 338.332031 C 696.167969 338.335938 696.164062 338.34375 696.164062 338.34375 C 696.164062 338.347656 696.164062 338.347656 696.164062 338.355469 C 696.160156 338.355469 696.160156 338.359375 696.15625 338.367188 C 696.15625 338.367188 696.15625 338.367188 696.15625 338.371094 C 696.15625 338.371094 696.15625 338.375 696.152344 338.378906 C 696.152344 338.378906 696.152344 338.382812 696.148438 338.390625 C 696.144531 338.390625 696.144531 338.394531 696.144531 338.402344 C 696.140625 338.40625 696.140625 338.40625 696.140625 338.414062 C 696.027344 338.664062 695.898438 338.90625 695.753906 339.140625 C 695.75 339.140625 695.75 339.148438 695.75 339.148438 C 695.75 339.148438 695.75 339.148438 695.746094 339.152344 C 695.746094 339.152344 695.742188 339.15625 695.742188 339.160156 C 695.742188 339.164062 695.738281 339.167969 695.734375 339.171875 C 695.734375 339.175781 695.730469 339.175781 695.726562 339.183594 C 695.726562 339.183594 695.726562 339.1875 695.722656 339.191406 C 695.71875 339.195312 695.71875 339.195312 695.714844 339.199219 C 695.714844 339.203125 695.714844 339.207031 695.707031 339.210938 C 695.238281 339.9375 694.601562 340.566406 693.832031 341.035156 C 693.832031 341.039062 693.828125 341.039062 693.820312 341.042969 C 693.582031 341.1875 693.335938 341.3125 693.085938 341.417969 C 692.207031 341.792969 691.269531 341.941406 690.34375 341.863281 C 690.339844 341.863281 690.335938 341.863281 690.332031 341.863281 C 690.332031 341.863281 690.324219 341.863281 690.320312 341.863281 C 690.316406 341.863281 690.3125 341.863281 690.308594 341.863281 C 690.003906 341.839844 689.703125 341.789062 689.40625 341.714844 C 689.398438 341.714844 689.398438 341.714844 689.390625 341.714844 C 689.386719 341.710938 689.382812 341.710938 689.378906 341.710938 C 688.761719 341.554688 688.167969 341.300781 687.625 340.945312 C 658.070312 322.144531 615.855469 323.667969 574.6875 345.019531 C 572.152344 346.335938 569.035156 345.625 567.320312 343.335938 C 561.523438 335.605469 551.839844 325.464844 538.648438 321.082031 C 535.585938 320.0625 533.925781 316.75 534.945312 313.6875 C 535.964844 310.625 539.277344 308.96875 542.335938 309.984375 C 556.203125 314.59375 566.652344 324.113281 573.625 332.464844 C 611.050781 314.265625 649.28125 311.265625 679.632812 323.707031 C 680.535156 323.097656 681.601562 322.726562 682.699219 322.65625 C 676.917969 282.792969 676.828125 242.484375 676.742188 203.363281 C 676.734375 200.164062 676.726562 196.964844 676.71875 193.773438 C 676.539062 193.308594 676.386719 192.78125 676.28125 192.195312 C 675.578125 192.703125 674.851562 193.21875 674.074219 193.734375 C 673.738281 193.957031 673.378906 194.148438 673.003906 194.296875 C 663.746094 198 652.835938 197.441406 644.527344 192.847656 C 637.625 189.027344 633.0625 182.765625 631.691406 175.21875 C 631.671875 175.113281 631.652344 175.003906 631.640625 174.898438 C 629.351562 156.5625 635.914062 144.464844 649.652344 141.71875 C 656.757812 140.53125 662.714844 138.292969 669.160156 134.421875 C 669.527344 134.203125 669.914062 134.027344 670.320312 133.890625 C 678.105469 131.292969 688.386719 128.984375 698.824219 134.207031 C 699.191406 134.390625 699.542969 134.613281 699.863281 134.871094 C 707.835938 141.25 710.992188 149.277344 713.777344 157.625 C 713.867188 157.898438 713.9375 158.175781 713.988281 158.457031 C 717.105469 176.117188 724.433594 191.230469 732.195312 207.234375 C 734 210.953125 735.808594 214.679688 737.566406 218.457031 C 737.617188 218.570312 737.671875 218.683594 737.714844 218.800781 C 740.929688 227.042969 744.371094 235.460938 747.695312 243.601562 C 766.84375 290.46875 786.648438 338.929688 780.820312 392.554688 C 777.722656 414.292969 758.121094 429.984375 736.074219 428.5 C 731.273438 428.5 728.03125 428.511719 725.042969 429.445312 C 678.734375 450.613281 632.957031 469.964844 582.714844 474.8125 C 582.074219 478.238281 580.851562 480.863281 579.503906 483.761719 L 579.289062 484.226562 C 578.3125 486.355469 576.199219 487.613281 573.992188 487.613281 Z M 573.992188 487.613281 " fill-opacity="1" fill-rule="nonzero"/><path fill="#334865" d="M 545.429688 373.941406 C 545.429688 373.941406 545.367188 373.757812 545.238281 373.410156 C 545.101562 373.0625 544.941406 372.539062 544.746094 371.816406 C 544.382812 370.398438 544.046875 368.191406 544.355469 365.347656 C 544.625 362.5 545.652344 359.09375 547.492188 355.535156 C 549.382812 352.023438 552.023438 348.328125 555.441406 344.902344 C 558.804688 341.40625 562.914062 338.179688 567.460938 335.148438 L 568.320312 334.582031 L 569.292969 334 L 570.992188 333.003906 C 572.140625 332.332031 573.242188 331.652344 574.59375 330.980469 C 575.90625 330.335938 577.230469 329.683594 578.574219 329.027344 C 579.894531 328.4375 581.242188 327.875 582.609375 327.324219 C 588.074219 325.140625 593.898438 323.382812 599.878906 322.039062 C 605.828125 320.628906 611.992188 319.523438 618.050781 318.609375 C 624.265625 317.730469 630.398438 317.144531 636.542969 316.863281 C 642.671875 316.59375 648.742188 316.664062 654.632812 317.160156 C 660.523438 317.660156 666.214844 318.65625 671.542969 320.125 C 676.851562 321.652344 681.835938 323.585938 686.171875 326.113281 C 690.480469 328.628906 694.363281 331.484375 697.003906 335.105469 C 699.457031 338.476562 700.824219 341.683594 701.640625 344.480469 C 702.4375 347.273438 702.65625 349.617188 702.542969 351.21875 C 702.5 352.023438 702.386719 352.625 702.285156 353.03125 C 702.1875 353.429688 702.117188 353.628906 702.117188 353.628906 C 702.117188 353.628906 701.585938 352.933594 700.617188 351.871094 C 699.617188 350.8125 698.144531 349.375 696.273438 347.652344 C 694.425781 345.941406 692.164062 343.875 689.703125 341.839844 C 687.453125 340.023438 684.476562 338.085938 680.832031 336.457031 C 677.167969 334.886719 672.980469 333.398438 668.335938 332.308594 C 663.703125 331.179688 658.675781 330.269531 653.382812 329.683594 C 648.097656 329.046875 642.546875 328.777344 636.886719 328.820312 C 631.246094 328.898438 625.429688 329.347656 619.785156 330.175781 L 617.5625 330.507812 L 615.476562 330.890625 L 611.230469 331.6875 C 608.445312 332.386719 605.632812 332.953125 602.929688 333.808594 C 597.464844 335.316406 592.269531 337.289062 587.269531 339.15625 C 586.035156 339.660156 584.800781 340.144531 583.566406 340.589844 C 582.402344 341.085938 581.246094 341.578125 580.105469 342.0625 C 577.878906 342.914062 575.085938 344.320312 573.160156 345.160156 C 568.761719 347.21875 564.816406 349.53125 561.316406 351.839844 C 557.878906 354.21875 554.875 356.613281 552.597656 359.097656 C 550.253906 361.527344 548.601562 363.996094 547.515625 366.210938 C 546.453125 368.4375 545.933594 370.402344 545.699219 371.777344 C 545.578125 372.457031 545.503906 373.007812 545.484375 373.378906 C 545.445312 373.746094 545.429688 373.941406 545.429688 373.941406 Z M 545.429688 373.941406 " fill-opacity="1" fill-rule="nonzero"/><path fill="#334865" d="M 680.527344 177.15625 C 680.515625 177.160156 680.625 177.148438 680.707031 177.160156 C 680.792969 177.171875 680.910156 177.195312 681.136719 177.191406 C 681.550781 177.199219 682.175781 177.175781 682.929688 177.132812 C 684.445312 177.03125 686.496094 176.773438 688.507812 176.273438 C 689.515625 176.023438 690.496094 175.703125 691.414062 175.339844 C 692.316406 174.972656 693.132812 174.542969 693.828125 174.121094 C 694.476562 173.675781 695.058594 173.265625 695.386719 172.921875 C 695.75 172.578125 695.960938 172.386719 695.960938 172.386719 C 695.960938 172.386719 695.914062 172.667969 695.832031 173.160156 C 695.765625 173.679688 695.554688 174.367188 695.269531 175.246094 C 694.941406 176.082031 694.492188 177.0625 693.910156 178.070312 C 693.316406 179.058594 692.613281 180.097656 691.839844 181.074219 C 690.292969 183.035156 688.511719 184.8125 687.089844 186.078125 C 686.375 186.707031 685.761719 187.222656 685.296875 187.582031 C 685.082031 187.753906 684.851562 187.910156 684.703125 188.015625 C 684.546875 188.117188 684.527344 188.148438 684.515625 188.152344 C 682.121094 190.839844 677.996094 191.074219 675.308594 188.679688 C 672.617188 186.28125 672.382812 182.15625 674.78125 179.46875 C 675.902344 178.207031 677.40625 177.484375 678.964844 177.324219 Z M 680.527344 177.15625 " fill-opacity="1" fill-rule="nonzero"/><path fill="#334865" d="M 558.925781 458.753906 C 558.925781 458.753906 559.027344 458.804688 559.21875 458.902344 C 559.390625 459 559.730469 459.152344 559.996094 459.320312 C 560.609375 459.671875 561.339844 460.148438 562.003906 460.679688 C 563.3125 461.742188 564.113281 462.992188 563.902344 464.066406 C 563.738281 465.148438 562.546875 466.046875 560.941406 466.597656 C 560.132812 466.871094 559.277344 467.070312 558.574219 467.1875 C 558.261719 467.253906 557.890625 467.285156 557.691406 467.316406 C 557.476562 467.34375 557.363281 467.359375 557.363281 467.359375 C 557.363281 467.359375 557.257812 467.308594 557.066406 467.207031 C 556.890625 467.113281 556.550781 466.957031 556.285156 466.789062 C 555.667969 466.4375 554.933594 465.960938 554.269531 465.429688 C 552.960938 464.363281 552.160156 463.117188 552.386719 462.046875 C 552.566406 460.96875 553.761719 460.066406 555.363281 459.515625 C 556.175781 459.242188 557.023438 459.046875 557.722656 458.925781 C 558.03125 458.859375 558.402344 458.828125 558.601562 458.796875 C 558.8125 458.765625 558.925781 458.753906 558.925781 458.753906 Z M 558.925781 458.753906 " fill-opacity="1" fill-rule="nonzero"/><path fill="#fbd0b1" d="M 52.214844 282.292969 C 60.257812 257.910156 89.304688 199.695312 101.855469 161.40625 C 101.875 161.34375 101.894531 161.292969 101.914062 161.226562 C 102.03125 160.28125 102.199219 159.292969 102.433594 158.246094 C 106.691406 139.382812 118.914062 129.835938 142.597656 142.457031 C 159.664062 151.550781 166.785156 141.988281 171.675781 161.738281 C 179.375 192.828125 140.699219 197.453125 132.691406 183.941406 C 130.738281 183.503906 128.824219 183.078125 126.960938 182.652344 C 126.902344 185.179688 126.886719 187.773438 126.957031 190.445312 C 127.738281 218.980469 127.210938 283.285156 118.667969 336.03125 C 132.453125 324.644531 161.238281 319.699219 193.066406 324.765625 C 210.449219 327.535156 226.035156 332.863281 238.167969 339.585938 C 245.8125 328.179688 257.632812 319.429688 271.664062 314.542969 C 275.191406 324.457031 278.082031 334.585938 280.53125 344.828125 C 283.429688 356.960938 287.050781 371.460938 288.105469 382.289062 C 288.550781 386.839844 288.855469 391.417969 288.925781 395.917969 C 287.773438 403.296875 286.375 410.695312 284.773438 418.1875 C 283.679688 423.320312 282.539062 428.316406 281.3125 433.207031 C 279.0625 437.714844 276.597656 442.117188 273.769531 446.292969 C 272.417969 448.285156 271.039062 450.261719 269.589844 452.1875 C 269.605469 452.085938 266.339844 456.085938 265.960938 456.515625 C 262.394531 460.570312 258.691406 464.511719 254.777344 468.230469 C 248.574219 474.117188 242.546875 479.214844 236.300781 483.996094 C 234.300781 478.640625 232.582031 473.167969 231.160156 467.6875 C 224.023438 467.769531 216.40625 467.339844 208.277344 466.289062 C 158.300781 459.816406 134.027344 442.132812 78.304688 421.90625 C 70.519531 427.445312 53.871094 418.039062 48.230469 414.207031 C 23.15625 397.183594 32.980469 340.609375 52.214844 282.292969 Z M 52.214844 282.292969 " fill-opacity="1" fill-rule="nonzero"/><path fill="#fbd0b1" d="M 264.050781 373.941406 C 265.96875 361.894531 255.671875 349.28125 238.171875 339.585938 C 226.039062 332.859375 210.449219 327.535156 193.066406 324.765625 C 161.242188 319.699219 132.457031 324.644531 118.667969 336.027344 C 114.066406 339.828125 111.136719 344.351562 110.320312 349.457031 " fill-opacity="1" fill-rule="nonzero"/><path fill="#fbd0b1" d="M 126.960938 182.652344 C 126.960938 182.652344 116.484375 178.941406 113.523438 172.386719 " fill-opacity="1" fill-rule="nonzero"/><path fill="#fbd0b1" d="M 254.773438 468.230469 C 254.105469 468.863281 253.441406 469.476562 252.773438 470.097656 C 251.089844 463.351562 250.554688 458.753906 250.554688 458.753906 L 255.316406 467.699219 C 255.132812 467.875 254.957031 468.054688 254.773438 468.230469 Z M 254.773438 468.230469 " fill-opacity="1" fill-rule="nonzero"/><path fill="#e8e5e5" d="M 108.054688 351.117188 C 108.054688 351.117188 106.71875 341.410156 106.71875 341.410156 C 107.300781 300.242188 117.382812 224.550781 116.601562 196.019531 C 116.53125 193.347656 117.132812 179.5625 117.1875 177.035156 C 119.378906 178.726562 122.167969 181 124.121094 181.4375 C 127.851562 182.984375 125.050781 192.800781 127.042969 193.9375 C 127.679688 223.835938 126.886719 284.800781 118.769531 335.375 C 114.710938 337.15625 110.945312 345.519531 108.054688 351.117188 Z M 108.054688 351.117188 " fill-opacity="1" fill-rule="nonzero"/><path fill="#e8e5e5" d="M 156.121094 190.152344 C 161.191406 185.375 163.9375 177.875 161.320312 167.308594 C 156.429688 147.558594 149.3125 157.121094 132.246094 148.027344 C 123.144531 143.179688 115.738281 141.609375 109.824219 142.578125 C 116.488281 135.429688 127.082031 134.1875 142.597656 142.457031 C 159.664062 151.546875 166.785156 141.984375 171.675781 161.738281 C 175.777344 178.3125 166.703125 187.359375 156.121094 190.152344 Z M 156.121094 190.152344 " fill-opacity="1" fill-rule="nonzero"/><path fill="#e8e5e5" d="M 256.0625 322.160156 C 260.828125 319.058594 266.070312 316.5 271.664062 314.546875 C 272.210938 316.085938 272.746094 317.632812 273.261719 319.179688 C 267.375 320.101562 261.578125 321.351562 256.0625 322.160156 Z M 256.0625 322.160156 " fill-opacity="1" fill-rule="nonzero"/><path fill="#e8e5e5" d="M 260.410156 358.785156 C 260.410156 358.785156 185.15625 325.691406 120.460938 334.671875 C 126.375 330.390625 134.527344 327.128906 144.222656 325.117188 C 144.273438 325.109375 144.320312 325.097656 144.371094 325.085938 C 144.714844 325.015625 145.070312 324.953125 145.414062 324.882812 C 155.179688 322.984375 166.417969 322.316406 178.414062 323.113281 C 178.53125 323.121094 178.648438 323.132812 178.761719 323.140625 C 183.429688 323.460938 188.210938 323.996094 193.0625 324.769531 C 208.527344 327.234375 222.5625 331.726562 234.015625 337.425781 C 243.273438 342.628906 250.816406 343.839844 260.410156 358.785156 Z M 260.410156 358.785156 " fill-opacity="1" fill-rule="nonzero"/><path fill="#e8e5e5" d="M 52.214844 282.292969 C 60.257812 257.910156 89.304688 199.695312 101.855469 161.40625 C 101.875 161.34375 101.894531 161.292969 101.914062 161.226562 C 102.03125 160.28125 102.199219 159.292969 102.433594 158.246094 C 104.039062 151.136719 106.777344 145.363281 110.832031 141.589844 C 105.226562 155.800781 42.679688 360.492188 81.585938 391.5625 C 86.914062 395.820312 97.558594 401.765625 112.007812 405.011719 C 169.847656 418.011719 191.660156 437.175781 241.628906 443.644531 C 249.761719 444.695312 257.378906 445.125 264.515625 445.046875 C 265.363281 448.308594 266.324219 451.566406 267.382812 454.804688 C 266.710938 455.621094 266.109375 456.347656 265.960938 456.515625 C 262.394531 460.570312 258.691406 464.511719 254.777344 468.230469 C 248.574219 474.117188 242.546875 479.214844 236.300781 483.996094 C 234.300781 478.640625 232.582031 473.167969 231.160156 467.6875 C 224.023438 467.769531 216.40625 467.339844 208.277344 466.289062 C 158.300781 459.816406 134.027344 442.132812 78.304688 421.90625 C 70.519531 427.445312 53.871094 418.039062 48.230469 414.207031 C 23.15625 397.183594 32.980469 340.609375 52.214844 282.292969 Z M 52.214844 282.292969 " fill-opacity="1" fill-rule="nonzero"/><path fill="#334865" d="M 237.472656 345.671875 C 236.558594 345.671875 235.636719 345.457031 234.785156 345.011719 C 193.613281 323.660156 151.394531 322.140625 121.839844 340.945312 C 121.398438 341.230469 120.925781 341.449219 120.433594 341.605469 C 120.429688 341.605469 120.429688 341.605469 120.425781 341.609375 C 119.925781 341.765625 119.410156 341.851562 118.890625 341.875 C 118.890625 341.875 118.886719 341.875 118.882812 341.875 C 118.074219 341.914062 117.269531 341.769531 116.503906 341.464844 C 116.5 341.460938 116.496094 341.460938 116.492188 341.460938 C 116.167969 341.328125 115.851562 341.167969 115.546875 340.976562 C 115.542969 340.972656 115.539062 340.96875 115.535156 340.96875 C 114.828125 340.519531 114.246094 339.941406 113.800781 339.269531 C 113.796875 339.265625 113.792969 339.257812 113.789062 339.25 C 113.789062 339.25 113.789062 339.246094 113.789062 339.246094 C 113.785156 339.242188 113.78125 339.242188 113.78125 339.234375 C 113.78125 339.234375 113.777344 339.230469 113.777344 339.226562 C 113.773438 339.222656 113.769531 339.21875 113.769531 339.214844 C 113.558594 338.894531 113.386719 338.554688 113.246094 338.203125 C 113.246094 338.203125 113.242188 338.199219 113.238281 338.191406 C 113.238281 338.191406 113.238281 338.1875 113.238281 338.1875 C 113.238281 338.1875 113.238281 338.183594 113.238281 338.183594 C 113.238281 338.179688 113.234375 338.175781 113.234375 338.175781 C 113.234375 338.175781 113.234375 338.175781 113.234375 338.171875 C 113.234375 338.167969 113.234375 338.164062 113.230469 338.164062 C 113.226562 338.160156 113.226562 338.15625 113.226562 338.152344 C 112.855469 337.191406 112.734375 336.132812 112.910156 335.074219 C 112.917969 335.027344 112.925781 334.984375 112.933594 334.941406 C 120.847656 291.445312 120.949219 246.652344 121.046875 203.332031 C 121.054688 198.679688 121.066406 194.039062 121.085938 189.414062 C 121.011719 187.472656 121.0625 185.179688 121.121094 182.527344 C 121.128906 182.308594 121.144531 182.085938 121.175781 181.871094 C 121.175781 181.867188 121.175781 181.863281 121.175781 181.859375 C 121.175781 181.859375 121.175781 181.855469 121.175781 181.851562 C 121.175781 181.851562 121.175781 181.847656 121.175781 181.839844 C 121.175781 181.835938 121.175781 181.835938 121.175781 181.832031 C 121.175781 181.828125 121.175781 181.828125 121.175781 181.824219 C 121.175781 181.824219 121.179688 181.816406 121.175781 181.8125 C 121.175781 181.8125 121.175781 181.808594 121.175781 181.804688 C 121.179688 181.800781 121.175781 181.796875 121.179688 181.792969 C 121.179688 181.792969 121.179688 181.789062 121.179688 181.785156 C 121.179688 181.78125 121.179688 181.777344 121.179688 181.777344 C 121.179688 181.765625 121.179688 181.769531 121.179688 181.765625 C 121.179688 181.765625 121.179688 181.765625 121.179688 181.757812 C 121.179688 181.753906 121.179688 181.753906 121.179688 181.746094 C 121.179688 181.742188 121.179688 181.742188 121.183594 181.738281 C 121.1875 181.71875 121.191406 181.695312 121.191406 181.671875 C 121.191406 181.671875 121.191406 181.667969 121.191406 181.664062 C 121.191406 181.664062 121.195312 181.660156 121.195312 181.652344 C 121.195312 181.652344 121.195312 181.648438 121.195312 181.644531 C 121.195312 181.640625 121.195312 181.636719 121.199219 181.636719 C 121.199219 181.632812 121.199219 181.628906 121.199219 181.625 C 121.199219 181.613281 121.203125 181.601562 121.203125 181.589844 C 121.28125 181.175781 121.402344 180.773438 121.566406 180.390625 C 121.566406 180.386719 121.570312 180.378906 121.570312 180.375 C 121.570312 180.371094 121.574219 180.371094 121.574219 180.367188 C 121.574219 180.367188 121.578125 180.363281 121.578125 180.359375 C 121.578125 180.359375 121.578125 180.355469 121.582031 180.351562 C 121.582031 180.347656 121.582031 180.347656 121.582031 180.34375 C 121.582031 180.34375 121.585938 180.339844 121.585938 180.332031 C 121.585938 180.328125 121.589844 180.324219 121.589844 180.324219 C 121.589844 180.320312 121.589844 180.320312 121.589844 180.316406 C 121.589844 180.3125 121.59375 180.3125 121.59375 180.308594 C 121.613281 180.265625 121.632812 180.226562 121.652344 180.183594 C 121.652344 180.183594 121.652344 180.179688 121.65625 180.175781 C 121.65625 180.171875 121.660156 180.171875 121.660156 180.167969 C 121.664062 180.164062 121.664062 180.164062 121.664062 180.15625 C 121.664062 180.15625 121.664062 180.152344 121.667969 180.148438 C 121.667969 180.144531 121.667969 180.140625 121.671875 180.140625 C 121.671875 180.136719 121.671875 180.136719 121.675781 180.132812 C 121.675781 180.128906 121.683594 180.125 121.679688 180.121094 C 121.679688 180.121094 121.683594 180.113281 121.683594 180.113281 C 121.683594 180.113281 121.6875 180.109375 121.6875 180.105469 C 121.6875 180.101562 121.691406 180.101562 121.691406 180.097656 C 121.691406 180.101562 121.695312 180.097656 121.695312 180.09375 C 121.695312 180.089844 121.699219 180.085938 121.699219 180.085938 C 121.699219 180.082031 121.703125 180.082031 121.707031 180.078125 C 121.707031 180.074219 121.710938 180.070312 121.710938 180.070312 C 121.730469 180.027344 121.75 179.988281 121.769531 179.945312 C 121.773438 179.941406 121.773438 179.933594 121.78125 179.929688 C 121.78125 179.929688 121.78125 179.925781 121.785156 179.921875 C 121.785156 179.921875 121.789062 179.917969 121.789062 179.917969 C 121.792969 179.914062 121.792969 179.910156 121.792969 179.910156 C 121.792969 179.90625 121.796875 179.90625 121.796875 179.902344 C 121.800781 179.898438 121.800781 179.898438 121.804688 179.894531 C 121.804688 179.894531 121.804688 179.890625 121.808594 179.886719 C 121.808594 179.886719 121.808594 179.882812 121.808594 179.882812 C 121.808594 179.882812 121.8125 179.878906 121.816406 179.871094 C 121.816406 179.871094 121.816406 179.867188 121.820312 179.863281 C 121.820312 179.863281 121.820312 179.859375 121.824219 179.859375 C 122.148438 179.273438 122.574219 178.738281 123.085938 178.292969 C 123.089844 178.289062 123.09375 178.289062 123.09375 178.285156 C 123.097656 178.285156 123.097656 178.285156 123.101562 178.28125 C 123.105469 178.277344 123.105469 178.277344 123.109375 178.277344 C 123.109375 178.277344 123.113281 178.273438 123.113281 178.269531 C 123.117188 178.269531 123.117188 178.265625 123.121094 178.265625 C 123.121094 178.261719 123.125 178.261719 123.128906 178.257812 C 123.132812 178.257812 123.132812 178.253906 123.136719 178.253906 C 123.136719 178.25 123.140625 178.25 123.144531 178.246094 C 123.148438 178.242188 123.148438 178.242188 123.148438 178.238281 C 123.152344 178.238281 123.152344 178.238281 123.15625 178.234375 C 123.15625 178.234375 123.160156 178.230469 123.164062 178.226562 C 123.183594 178.214844 123.203125 178.199219 123.21875 178.179688 C 123.386719 178.042969 123.558594 177.917969 123.738281 177.796875 C 123.742188 177.796875 123.742188 177.796875 123.746094 177.792969 C 123.746094 177.792969 123.75 177.789062 123.75 177.789062 C 123.75 177.789062 123.753906 177.785156 123.757812 177.785156 C 123.757812 177.785156 123.757812 177.785156 123.761719 177.785156 C 123.761719 177.78125 123.765625 177.78125 123.769531 177.777344 C 123.769531 177.777344 123.773438 177.777344 123.773438 177.777344 C 123.773438 177.777344 123.777344 177.773438 123.78125 177.773438 C 123.78125 177.773438 123.78125 177.769531 123.785156 177.769531 C 123.785156 177.765625 123.789062 177.765625 123.789062 177.765625 C 124.347656 177.410156 124.957031 177.15625 125.589844 177.007812 C 125.597656 177.007812 125.597656 177.003906 125.605469 177.003906 C 125.609375 177.003906 125.609375 177.003906 125.613281 177.003906 C 125.617188 177.003906 125.617188 177 125.621094 177.003906 C 125.621094 177 125.625 177 125.628906 177 C 125.632812 177 125.636719 177 125.636719 176.996094 C 125.640625 176.996094 125.644531 176.996094 125.644531 176.996094 C 125.644531 176.996094 125.648438 176.996094 125.648438 176.996094 C 125.652344 176.996094 125.65625 176.996094 125.65625 176.996094 C 126 176.917969 126.351562 176.875 126.703125 176.859375 C 126.703125 176.859375 126.707031 176.859375 126.707031 176.859375 C 126.710938 176.859375 126.710938 176.859375 126.714844 176.859375 C 126.714844 176.859375 126.71875 176.859375 126.722656 176.859375 C 126.722656 176.859375 126.722656 176.859375 126.726562 176.859375 C 126.730469 176.859375 126.730469 176.859375 126.734375 176.859375 C 126.734375 176.855469 126.738281 176.859375 126.742188 176.859375 C 126.742188 176.859375 126.746094 176.859375 126.75 176.859375 C 126.75 176.859375 126.753906 176.859375 126.757812 176.859375 C 126.777344 176.839844 126.859375 176.855469 126.914062 176.855469 C 127.246094 176.855469 127.578125 176.886719 127.910156 176.945312 C 127.914062 176.945312 127.914062 176.945312 127.914062 176.945312 C 133.15625 177.855469 136.558594 180.296875 139.558594 182.453125 C 140.121094 182.859375 140.703125 183.277344 141.316406 183.695312 C 147.191406 185.859375 154.160156 185.46875 159.238281 182.660156 C 161.882812 181.195312 165.226562 178.390625 166.203125 173.324219 C 167.652344 161.441406 164.71875 154.683594 157.480469 153.234375 C 149.550781 151.917969 142.277344 149.234375 134.820312 144.839844 C 126.832031 142.253906 121.398438 142.136719 116.386719 144.449219 C 111.332031 148.71875 109.132812 154.246094 106.875 160.972656 C 103.433594 180.054688 95.460938 196.492188 87.746094 212.386719 C 85.972656 216.050781 84.1875 219.726562 82.453125 223.449219 C 81.085938 226.375 77.605469 227.640625 74.679688 226.273438 C 71.753906 224.910156 70.488281 221.429688 71.855469 218.503906 C 73.617188 214.726562 75.425781 211 77.226562 207.28125 C 84.988281 191.28125 92.320312 176.164062 95.4375 158.503906 C 95.484375 158.222656 95.554688 157.945312 95.648438 157.671875 C 98.429688 149.324219 101.585938 141.296875 109.5625 134.917969 C 109.882812 134.660156 110.234375 134.4375 110.597656 134.253906 C 121.039062 129.03125 131.320312 131.339844 139.101562 133.9375 C 139.507812 134.074219 139.894531 134.25 140.261719 134.46875 C 146.707031 138.339844 152.667969 140.578125 159.585938 141.734375 C 173.507812 144.515625 180.074219 156.605469 177.78125 174.945312 C 177.769531 175.050781 177.75 175.160156 177.734375 175.265625 C 176.363281 182.8125 171.800781 189.070312 164.894531 192.894531 C 156.582031 197.492188 145.671875 198.042969 136.417969 194.34375 C 136.042969 194.195312 135.683594 194 135.347656 193.78125 C 134.574219 193.261719 133.847656 192.75 133.140625 192.242188 C 133.035156 192.828125 132.886719 193.355469 132.707031 193.820312 C 132.695312 197.011719 132.6875 200.203125 132.683594 203.40625 C 132.59375 242.527344 132.507812 282.839844 126.726562 322.707031 C 127.820312 322.773438 128.882812 323.148438 129.789062 323.753906 C 160.140625 311.3125 198.378906 314.316406 235.800781 332.515625 C 242.769531 324.164062 253.21875 314.640625 267.085938 310.03125 C 270.152344 309.011719 273.460938 310.671875 274.480469 313.738281 C 275.5 316.804688 273.839844 320.113281 270.777344 321.128906 C 257.582031 325.515625 247.902344 335.652344 242.105469 343.386719 C 241.015625 344.84375 239.261719 345.671875 237.472656 345.671875 Z M 237.472656 345.671875 " fill-opacity="1" fill-rule="nonzero"/><path fill="#334865" d="M 235.484375 487.613281 C 233.28125 487.613281 231.167969 486.359375 230.179688 484.226562 L 229.960938 483.757812 C 228.617188 480.863281 227.390625 478.234375 226.753906 474.808594 C 176.511719 469.964844 130.734375 450.609375 84.425781 429.445312 C 81.4375 428.511719 78.191406 428.496094 73.390625 428.496094 C 51.355469 429.976562 31.746094 414.296875 28.667969 392.75 C 25.613281 364.675781 29.136719 335.957031 39.730469 302.171875 C 40.695312 299.089844 43.972656 297.371094 47.054688 298.339844 C 50.136719 299.308594 51.851562 302.589844 50.882812 305.667969 C 40.792969 337.863281 37.417969 365.070312 40.269531 391.289062 C 42.429688 406.402344 57.027344 417.949219 72.773438 416.816406 C 72.914062 416.804688 73.050781 416.800781 73.1875 416.800781 C 78.941406 416.800781 83.488281 416.800781 88.394531 418.4375 C 88.589844 418.503906 88.785156 418.582031 88.976562 418.667969 C 137.691406 440.941406 182.125 459.695312 232.578125 463.578125 C 235.621094 463.808594 237.972656 466.351562 237.972656 469.40625 C 237.972656 473.261719 238.785156 475.007812 240.558594 478.828125 L 240.78125 479.300781 C 242.140625 482.226562 240.867188 485.707031 237.9375 487.066406 C 237.148438 487.4375 236.3125 487.613281 235.484375 487.613281 Z M 235.484375 487.613281 " fill-opacity="1" fill-rule="nonzero"/><path fill="#334865" d="M 264.050781 373.941406 C 264.050781 373.941406 264.035156 373.746094 264.003906 373.378906 C 263.984375 373.007812 263.90625 372.453125 263.789062 371.777344 C 263.554688 370.398438 263.03125 368.433594 261.972656 366.210938 C 260.886719 363.996094 259.234375 361.523438 256.890625 359.09375 C 254.609375 356.613281 251.605469 354.21875 248.167969 351.835938 C 244.671875 349.527344 240.722656 347.214844 236.324219 345.15625 C 234.402344 344.316406 231.609375 342.914062 229.382812 342.0625 C 228.238281 341.574219 227.085938 341.082031 225.917969 340.589844 C 224.683594 340.140625 223.453125 339.660156 222.21875 339.152344 C 217.21875 337.289062 212.023438 335.316406 206.558594 333.804688 C 203.855469 332.949219 201.042969 332.386719 198.257812 331.683594 L 194.011719 330.886719 L 191.925781 330.503906 L 189.703125 330.175781 C 184.058594 329.347656 178.242188 328.898438 172.601562 328.816406 C 166.941406 328.773438 161.390625 329.042969 156.105469 329.679688 C 150.8125 330.269531 145.785156 331.175781 141.152344 332.308594 C 136.503906 333.398438 132.320312 334.882812 128.65625 336.453125 C 125.007812 338.082031 122.03125 340.019531 119.78125 341.839844 C 117.324219 343.871094 115.058594 345.9375 113.214844 347.652344 C 111.339844 349.367188 109.871094 350.808594 108.871094 351.867188 C 107.902344 352.929688 107.367188 353.625 107.367188 353.625 C 107.367188 353.625 107.296875 353.429688 107.203125 353.027344 C 107.097656 352.625 106.988281 352.019531 106.941406 351.214844 C 106.832031 349.613281 107.046875 347.269531 107.84375 344.476562 C 108.664062 341.683594 110.03125 338.476562 112.480469 335.101562 C 115.125 331.480469 119.007812 328.625 123.316406 326.113281 C 127.648438 323.582031 132.636719 321.648438 137.945312 320.125 C 143.273438 318.65625 148.96875 317.660156 154.851562 317.15625 C 160.742188 316.660156 166.8125 316.59375 172.945312 316.863281 C 179.085938 317.140625 185.222656 317.730469 191.4375 318.605469 C 197.496094 319.523438 203.660156 320.625 209.609375 322.039062 C 215.585938 323.378906 221.410156 325.136719 226.878906 327.320312 C 228.242188 327.871094 229.59375 328.4375 230.914062 329.027344 C 232.253906 329.683594 233.582031 330.332031 234.894531 330.976562 C 236.242188 331.648438 237.347656 332.332031 238.492188 333 L 240.191406 334 L 241.167969 334.578125 L 242.027344 335.148438 C 246.574219 338.179688 250.679688 341.40625 254.042969 344.902344 C 257.460938 348.324219 260.101562 352.019531 261.996094 355.535156 C 263.832031 359.089844 264.863281 362.496094 265.128906 365.34375 C 265.4375 368.1875 265.101562 370.394531 264.738281 371.816406 C 264.546875 372.539062 264.382812 373.058594 264.246094 373.40625 C 264.117188 373.757812 264.050781 373.941406 264.050781 373.941406 Z M 264.050781 373.941406 " fill-opacity="1" fill-rule="nonzero"/><path fill="#334865" d="M 124.960938 188.148438 C 124.949219 188.144531 124.933594 188.113281 124.777344 188.011719 C 124.628906 187.910156 124.398438 187.753906 124.183594 187.578125 C 123.71875 187.222656 123.105469 186.707031 122.386719 186.078125 C 120.964844 184.808594 119.1875 183.03125 117.640625 181.070312 C 116.867188 180.097656 116.164062 179.058594 115.570312 178.070312 C 114.988281 177.058594 114.539062 176.082031 114.210938 175.242188 C 113.925781 174.367188 113.710938 173.679688 113.648438 173.15625 C 113.566406 172.664062 113.519531 172.382812 113.519531 172.382812 C 113.519531 172.382812 113.730469 172.578125 114.089844 172.917969 C 114.421875 173.265625 115.003906 173.671875 115.652344 174.121094 C 116.347656 174.542969 117.164062 174.96875 118.066406 175.339844 C 118.984375 175.699219 119.96875 176.023438 120.972656 176.269531 C 122.984375 176.773438 125.03125 177.03125 126.546875 177.128906 C 127.304688 177.175781 127.929688 177.199219 128.34375 177.1875 C 128.570312 177.195312 128.683594 177.171875 128.773438 177.15625 C 128.855469 177.140625 128.964844 177.15625 128.953125 177.152344 L 130.503906 177.316406 C 134.085938 177.6875 136.691406 180.890625 136.320312 184.476562 C 135.949219 188.0625 132.742188 190.667969 129.160156 190.292969 C 127.480469 190.125 126.007812 189.316406 124.960938 188.148438 Z M 124.960938 188.148438 " fill-opacity="1" fill-rule="nonzero"/><path fill="#334865" d="M 250.550781 458.753906 C 250.550781 458.753906 250.667969 458.765625 250.882812 458.796875 C 251.078125 458.828125 251.449219 458.855469 251.757812 458.925781 C 252.457031 459.046875 253.308594 459.242188 254.117188 459.515625 C 255.71875 460.066406 256.914062 460.96875 257.09375 462.046875 C 257.324219 463.117188 256.523438 464.363281 255.210938 465.429688 C 254.546875 465.960938 253.8125 466.4375 253.199219 466.789062 C 252.929688 466.957031 252.589844 467.113281 252.414062 467.207031 C 252.222656 467.308594 252.121094 467.359375 252.121094 467.359375 C 252.121094 467.359375 252.003906 467.34375 251.789062 467.316406 C 251.589844 467.285156 251.214844 467.257812 250.90625 467.1875 C 250.207031 467.070312 249.351562 466.871094 248.539062 466.597656 C 246.933594 466.046875 245.742188 465.148438 245.582031 464.066406 C 245.367188 462.992188 246.171875 461.742188 247.480469 460.679688 C 248.144531 460.148438 248.871094 459.671875 249.484375 459.320312 C 249.75 459.15625 250.089844 459 250.261719 458.902344 C 250.453125 458.808594 250.550781 458.753906 250.550781 458.753906 Z M 250.550781 458.753906 " fill-opacity="1" fill-rule="nonzero"/><path fill="#e95068" d="M 572.726562 325.683594 C 528.46875 278.265625 444.148438 282.960938 404.710938 336.140625 C 365.269531 282.960938 281.011719 278.265625 236.753906 325.683594 C 196.242188 369.082031 186.460938 435.222656 218.222656 483.558594 L 236.339844 504.933594 C 284.695312 550.492188 404.710938 611.511719 404.710938 675.058594 C 404.710938 607.488281 540.484375 542.765625 581.429688 496.460938 C 624.597656 447.636719 616.976562 373.085938 572.726562 325.683594 Z M 572.726562 325.683594 " fill-opacity="1" fill-rule="nonzero"/><path fill="#e8e5e5" d="M 371.15625 599.066406 C 335.496094 554.171875 265.648438 516.6875 236.019531 483.554688 C 201.140625 444.550781 220.988281 378.25 258.089844 338.507812 C 293.027344 301.074219 353.832031 297.378906 395.554688 325.453125 C 353.382812 282.558594 277.839844 281.660156 236.753906 325.679688 C 220.800781 342.769531 209.617188 363.386719 203.851562 385.058594 C 194.984375 418.414062 198.96875 454.253906 218.222656 483.554688 L 236.339844 504.929688 C 275.070312 541.421875 359.757812 587.828125 391.945312 637.507812 C 385.394531 622.488281 377.488281 607.046875 371.15625 599.066406 Z M 371.15625 599.066406 " fill-opacity="1" fill-rule="nonzero"/><path fill="#e8e5e5" d="M 391.941406 637.511719 C 399.144531 654.042969 404.707031 670.0625 404.707031 675.058594 C 404.710938 662.410156 399.941406 649.859375 391.941406 637.511719 Z M 391.941406 637.511719 " fill-opacity="1" fill-rule="nonzero"/><path fill="#e8e5e5" d="M 572.726562 325.683594 C 537.375 287.804688 476.453125 283.183594 433.269531 309.964844 C 471.515625 295.375 517.933594 302.847656 546.539062 333.492188 C 588.105469 378.027344 595.265625 448.058594 554.714844 493.925781 C 520.679688 532.414062 416.902344 584.453125 393.460938 639.90625 C 400.542969 651.480469 404.710938 663.226562 404.710938 675.054688 C 404.710938 607.484375 540.484375 542.761719 581.429688 496.460938 C 624.597656 447.636719 616.976562 373.085938 572.726562 325.683594 Z M 572.726562 325.683594 " fill-opacity="1" fill-rule="nonzero"/><g clip-path="url(#a840b2b13e)"><path fill="#334865" d="M 404.710938 680.90625 C 401.480469 680.90625 398.863281 678.289062 398.863281 675.058594 C 398.863281 632.890625 340.097656 590.335938 288.25 552.796875 C 266.832031 537.289062 246.601562 522.636719 232.332031 509.195312 C 232.175781 509.046875 232.023438 508.890625 231.882812 508.722656 L 213.738281 487.355469 C 213.582031 487.175781 213.441406 486.984375 213.308594 486.785156 C 181.007812 437.628906 189.074219 368.199219 232.484375 321.691406 C 252.988281 299.722656 283.214844 287.125 315.421875 287.125 C 350.460938 287.125 383.277344 301.824219 404.710938 326.777344 C 426.148438 301.824219 458.976562 287.125 494.035156 287.125 C 526.257812 287.125 556.496094 299.722656 577.003906 321.691406 C 599.78125 346.097656 613.527344 377.511719 615.695312 410.152344 C 617.945312 443.96875 607.332031 475.996094 585.808594 500.335938 C 571.796875 516.183594 547.21875 533.976562 521.195312 552.8125 C 469.335938 590.351562 410.558594 632.898438 410.558594 675.058594 C 410.554688 678.289062 407.9375 680.90625 404.710938 680.90625 Z M 240.582031 500.902344 C 254.292969 513.769531 274.121094 528.128906 295.105469 543.324219 C 339.226562 575.269531 388.144531 610.695312 404.710938 648.777344 C 421.277344 610.695312 470.207031 575.28125 514.335938 543.339844 C 539.820312 524.894531 563.886719 507.46875 577.046875 492.589844 C 616.183594 448.328125 612.410156 376.765625 568.453125 329.675781 C 550.152344 310.070312 523.027344 298.824219 494.03125 298.824219 C 459.984375 298.824219 428.351562 314.074219 409.402344 339.625 C 408.300781 341.113281 406.558594 341.992188 404.707031 341.992188 C 402.855469 341.992188 401.113281 341.113281 400.011719 339.625 C 381.0625 314.074219 349.441406 298.824219 315.417969 298.824219 C 286.4375 298.824219 259.328125 310.070312 241.027344 329.675781 C 201.335938 372.191406 193.730469 435.378906 222.878906 480.0625 Z M 240.582031 500.902344 " fill-opacity="1" fill-rule="nonzero"/></g></svg>