<svg xmlns="http://www.w3.org/2000/svg" xmlns:xlink="http://www.w3.org/1999/xlink" width="1080" zoomAndPan="magnify" viewBox="0 0 810 809.999993" height="1080" preserveAspectRatio="xMidYMid meet" version="1.0"><defs><clipPath id="7871c94a25"><path d="M 403.652344 47 L 774.34375 47 L 774.34375 542.835938 L 403.652344 542.835938 Z M 403.652344 47 " clip-rule="nonzero"/></clipPath><clipPath id="26a7ddc791"><path d="M 48.945312 371.851562 L 659.839844 371.851562 L 659.839844 783.824219 L 48.945312 783.824219 Z M 48.945312 371.851562 " clip-rule="nonzero"/></clipPath><clipPath id="25cc5329a6"><path d="M 149.511719 431.730469 L 551.3125 431.730469 L 551.3125 783.824219 L 149.511719 783.824219 Z M 149.511719 431.730469 " clip-rule="nonzero"/></clipPath><clipPath id="2b1a774e09"><path d="M 329 26.398438 L 462 26.398438 L 462 259 L 329 259 Z M 329 26.398438 " clip-rule="nonzero"/></clipPath></defs><path fill="#82fffb" d="M 155.445312 774.070312 C 153.503906 770.707031 153.503906 766.6875 155.445312 763.324219 L 183.402344 714.867188 L 183.402344 604.347656 C 183.402344 603.136719 184.382812 602.15625 185.59375 602.15625 C 186.800781 602.15625 187.777344 603.136719 187.777344 604.347656 L 187.777344 707.285156 L 310.957031 493.789062 C 287.550781 484.453125 268.199219 467.996094 254.949219 445.925781 L 242.613281 425.40625 L 172.355469 446.671875 C 135.265625 457.882812 106.152344 486.546875 94.480469 523.351562 C 80.625 567.15625 63.011719 637.746094 57.78125 725.277344 C 57.011719 738.351562 61.535156 750.796875 70.507812 760.324219 C 79.460938 769.828125 91.566406 775.054688 104.605469 775.054688 L 156.199219 775.054688 C 155.953125 774.722656 155.65625 774.441406 155.445312 774.070312 " fill-opacity="1" fill-rule="nonzero"/><path fill="#ffe573" d="M 654.621094 212.582031 C 630.046875 188.035156 590.097656 188.035156 565.566406 212.582031 L 512.222656 265.964844 C 512.144531 267.042969 512.070312 268.117188 511.957031 269.195312 L 571.15625 328.4375 C 573.351562 325.363281 575.757812 322.386719 578.511719 319.628906 C 598.429688 299.699219 627.554688 294.527344 652.304688 304.011719 L 654.621094 301.695312 C 666.507812 289.839844 673.054688 274.015625 673.054688 257.136719 C 673.054688 240.304688 666.507812 224.480469 654.621094 212.582031 " fill-opacity="1" fill-rule="nonzero"/><path fill="#ffffff" d="M 597.308594 395.679688 L 654.191406 338.757812 C 655.046875 337.90625 656.429688 337.90625 657.28125 338.757812 C 658.140625 339.613281 658.140625 341 657.28125 341.855469 L 600.40625 398.773438 C 599.976562 399.203125 599.417969 399.414062 598.859375 399.414062 C 598.296875 399.414062 597.738281 399.203125 597.308594 398.773438 C 596.457031 397.921875 596.457031 396.535156 597.308594 395.679688 Z M 673.308594 414.492188 C 698.59375 389.191406 698.59375 348.023438 673.308594 322.722656 C 660.667969 310.070312 644.0625 303.75 627.460938 303.75 C 610.855469 303.75 594.246094 310.070312 581.605469 322.722656 C 556.320312 348.023438 556.320312 389.191406 581.605469 414.492188 C 606.890625 439.792969 648.027344 439.792969 673.308594 414.492188 " fill-opacity="1" fill-rule="nonzero"/><path fill="#ffffff" d="M 454.820312 96.890625 C 455.65625 96.890625 456.417969 97.363281 456.785156 98.117188 C 457.152344 98.871094 457.058594 99.761719 456.542969 100.421875 L 438.71875 123.332031 C 464.8125 143.558594 483.003906 171.410156 490 202.027344 C 491.488281 208.539062 492.636719 215.332031 493.417969 222.234375 C 505.574219 226.570312 512.5 239.953125 512.5 259.261719 C 512.5 259.339844 512.496094 259.417969 512.496094 259.496094 L 562.476562 209.488281 C 588.707031 183.234375 631.433594 183.238281 657.710938 209.484375 C 670.425781 222.210938 677.429688 239.132812 677.429688 257.140625 C 677.429688 275.1875 670.425781 292.117188 657.710938 304.792969 L 656.625 305.882812 C 663.78125 309.207031 670.511719 313.730469 676.398438 319.632812 C 703.390625 346.636719 703.390625 390.582031 676.398438 417.589844 C 662.910156 431.089844 645.179688 437.847656 627.457031 437.847656 C 609.734375 437.847656 592.003906 431.089844 578.507812 417.589844 C 572.613281 411.691406 568.089844 404.957031 564.769531 397.796875 L 544.433594 418.152344 C 536.035156 426.589844 525.785156 432.46875 514.460938 435.511719 L 537.523438 442.480469 C 569.839844 452.230469 596.882812 475.230469 611.707031 505.570312 C 614.320312 510.890625 616.539062 516.429688 618.304688 522.03125 C 619.421875 525.609375 620.574219 529.339844 621.730469 533.175781 C 669.21875 510.738281 707.875 474.597656 733.582031 428.449219 C 801.203125 307.15625 757.632812 153.445312 636.457031 85.796875 C 634 84.425781 631.53125 83.101562 629.046875 81.816406 C 562.683594 47.566406 481.5625 47.089844 411.984375 80.527344 L 404.183594 96.898438 L 454.820312 96.890625 " fill-opacity="1" fill-rule="nonzero"/><path fill="#82fffb" d="M 614.125 523.34375 C 612.433594 517.960938 610.292969 512.628906 607.773438 507.5 C 593.480469 478.242188 567.414062 456.074219 536.257812 446.675781 L 505.046875 437.242188 C 505.003906 437.230469 504.964844 437.210938 504.925781 437.195312 C 504.835938 437.167969 504.75 437.132812 504.664062 437.097656 C 504.648438 437.089844 504.628906 437.085938 504.609375 437.078125 L 465.988281 425.402344 L 464.945312 427.109375 C 464.914062 427.195312 464.871094 427.28125 464.824219 427.363281 L 453.664062 445.925781 C 439.292969 469.835938 417.144531 487.523438 391.144531 496.117188 L 520.789062 720.816406 L 520.789062 604.347656 C 520.789062 603.136719 521.765625 602.15625 522.976562 602.15625 C 524.183594 602.15625 525.164062 603.136719 525.164062 604.347656 L 525.164062 728.402344 L 545.3125 763.324219 C 547.253906 766.6875 547.253906 770.707031 545.3125 774.070312 C 545.101562 774.441406 544.804688 774.722656 544.558594 775.054688 L 604.007812 775.054688 C 617.042969 775.054688 629.152344 769.828125 638.101562 760.324219 C 647.078125 750.796875 651.597656 738.351562 650.828125 725.273438 C 646.941406 660.222656 635.992188 596.839844 618.273438 536.882812 C 616.875 532.167969 615.480469 527.667969 614.125 523.34375 " fill-opacity="1" fill-rule="nonzero"/><path fill="#82b8ff" d="M 484.597656 316.273438 C 483.671875 316.273438 482.722656 316.148438 481.734375 315.898438 C 471.929688 341.289062 457.203125 362.769531 439.320312 379.109375 L 447.386719 403.03125 C 450.253906 411.523438 457.078125 418.136719 465.632812 420.722656 L 505.792969 432.859375 C 519.375 430.917969 531.65625 424.78125 541.332031 415.058594 L 562.902344 393.472656 C 555.253906 373.492188 557.1875 350.695312 568.675781 332.148438 L 511.210938 274.644531 C 507.691406 296.25 497.300781 316.273438 484.597656 316.273438 " fill-opacity="1" fill-rule="nonzero"/><path fill="#ffffff" d="M 350.378906 673.851562 C 357.765625 673.851562 363.710938 668.0625 363.90625 660.671875 L 366.921875 549.035156 C 367.042969 544.527344 365.378906 540.265625 362.238281 537.035156 C 359.097656 533.808594 354.886719 532.027344 350.378906 532.027344 C 345.875 532.027344 341.664062 533.808594 338.519531 537.035156 C 335.382812 540.265625 333.714844 544.527344 333.839844 549.035156 L 336.851562 660.671875 C 337.050781 668.0625 342.992188 673.851562 350.378906 673.851562 " fill-opacity="1" fill-rule="nonzero"/><path fill="#ff9070" d="M 335.386719 533.984375 C 339.355469 529.898438 344.683594 527.648438 350.378906 527.648438 C 356.074219 527.648438 361.398438 529.898438 365.371094 533.984375 C 369.347656 538.066406 371.449219 543.453125 371.296875 549.15625 L 368.28125 660.792969 C 368.019531 670.570312 360.152344 678.226562 350.378906 678.226562 C 340.605469 678.226562 332.742188 670.570312 332.476562 660.792969 L 329.460938 549.15625 C 329.308594 543.453125 331.410156 538.066406 335.386719 533.984375 Z M 350.378906 742.1875 C 339.03125 742.1875 329.792969 732.949219 329.792969 721.589844 C 329.792969 710.230469 339.03125 700.988281 350.378906 700.988281 C 361.730469 700.988281 370.964844 710.230469 370.964844 721.589844 C 370.964844 732.949219 361.730469 742.1875 350.378906 742.1875 Z M 159.234375 771.882812 C 160.371094 773.851562 162.398438 775.03125 164.667969 775.054688 L 536.09375 775.054688 C 538.359375 775.03125 540.386719 773.851562 541.523438 771.882812 C 542.671875 769.890625 542.671875 767.507812 541.523438 765.515625 L 355.890625 443.773438 C 354.742188 441.773438 352.679688 440.582031 350.378906 440.582031 C 348.078125 440.582031 346.015625 441.773438 344.867188 443.773438 L 159.234375 765.515625 C 158.085938 767.507812 158.085938 769.890625 159.234375 771.882812 " fill-opacity="1" fill-rule="nonzero"/><path fill="#ffffff" d="M 350.378906 705.367188 C 341.441406 705.367188 334.167969 712.644531 334.167969 721.589844 C 334.167969 730.535156 341.441406 737.8125 350.378906 737.8125 C 359.316406 737.8125 366.59375 730.535156 366.59375 721.589844 C 366.59375 712.644531 359.316406 705.367188 350.378906 705.367188 " fill-opacity="1" fill-rule="nonzero"/><path fill="#ffe573" d="M 351.339844 96.050781 C 351.40625 96.992188 350.863281 97.816406 350.050781 98.183594 L 339.089844 139.109375 L 369.402344 139.097656 C 370.09375 139.097656 370.75 139.425781 371.160156 139.984375 C 371.574219 140.542969 371.699219 141.261719 371.496094 141.921875 L 341.371094 241.300781 L 450.339844 101.265625 L 400.71875 101.277344 C 399.96875 101.277344 399.269531 100.894531 398.867188 100.257812 C 398.46875 99.621094 398.421875 98.824219 398.746094 98.148438 L 428.726562 35.222656 L 366.914062 35.242188 L 350.914062 94.96875 C 351.136719 95.28125 351.3125 95.632812 351.339844 96.050781 " fill-opacity="1" fill-rule="nonzero"/><path fill="#ffffff" d="M 246.84375 423.953125 L 258.699219 443.667969 C 271.5625 465.09375 290.382812 481.035156 313.160156 489.96875 L 341.078125 441.578125 C 343.023438 438.214844 346.5 436.203125 350.378906 436.203125 C 354.261719 436.203125 357.742188 438.214844 359.683594 441.578125 L 388.925781 492.265625 C 414.640625 484.019531 435.722656 467.285156 449.917969 443.667969 L 460.941406 425.320312 C 460.984375 425.226562 461.027344 425.132812 461.082031 425.050781 L 461.757812 423.945312 C 453.09375 420.472656 446.265625 413.371094 443.242188 404.429688 L 435.757812 382.230469 C 412.410156 402.214844 384.09375 413.660156 354.304688 413.660156 C 324.519531 413.660156 296.210938 402.21875 272.859375 382.238281 L 265.371094 404.429688 C 262.347656 413.378906 255.515625 420.480469 246.84375 423.953125 " fill-opacity="1" fill-rule="nonzero"/><path fill="#ffffff" d="M 478.386719 312.390625 C 478.597656 311.835938 479.019531 311.390625 479.558594 311.148438 C 480.105469 310.914062 480.71875 310.902344 481.269531 311.132812 C 482.519531 311.644531 483.605469 311.894531 484.597656 311.894531 C 496.253906 311.894531 508.128906 285.332031 508.128906 259.261719 C 508.128906 241.042969 501.96875 229.226562 490.789062 225.988281 C 489.933594 225.742188 489.316406 225 489.222656 224.113281 C 488.457031 216.894531 487.285156 209.792969 485.738281 203 C 478.960938 173.363281 461.332031 146.390625 436.03125 126.785156 L 337.582031 253.296875 C 337.152344 253.84375 336.507812 254.140625 335.851562 254.140625 C 335.511719 254.140625 335.167969 254.0625 334.847656 253.898438 C 333.914062 253.410156 333.457031 252.324219 333.761719 251.316406 L 366.453125 143.476562 L 336.234375 143.492188 C 335.558594 143.492188 334.917969 143.171875 334.503906 142.632812 C 334.089844 142.09375 333.949219 141.390625 334.125 140.734375 L 345.371094 98.746094 C 282.15625 104.898438 229.957031 153.445312 220.484375 215.609375 C 220.058594 218.398438 219.691406 221.238281 219.386719 224.113281 C 219.296875 225 218.675781 225.742188 217.820312 225.988281 C 206.640625 229.226562 200.480469 241.042969 200.480469 259.261719 C 200.480469 285.332031 212.355469 311.894531 224.011719 311.894531 C 225.003906 311.894531 226.089844 311.644531 227.34375 311.132812 C 227.886719 310.90625 228.503906 310.914062 229.046875 311.148438 C 229.589844 311.390625 230.015625 311.835938 230.222656 312.390625 C 252.1875 371.25 300.890625 409.285156 354.304688 409.285156 C 407.714844 409.285156 456.421875 371.25 478.386719 312.390625 " fill-opacity="1" fill-rule="nonzero"/><path fill="#ffffff" d="M 307.316406 500.097656 L 310.957031 493.789062 C 300.3125 489.542969 290.554688 483.753906 281.78125 476.703125 C 289.128906 485.847656 297.707031 493.6875 307.316406 500.097656 " fill-opacity="1" fill-rule="nonzero"/><path fill="#ffffff" d="M 75.285156 742.789062 C 80.511719 655.261719 98.125 584.667969 111.984375 540.867188 C 123.652344 504.058594 152.765625 475.394531 189.855469 464.1875 L 254.214844 444.707031 L 242.613281 425.40625 L 172.355469 446.671875 C 135.265625 457.882812 106.152344 486.546875 94.480469 523.351562 C 80.625 567.15625 63.011719 637.746094 57.78125 725.277344 C 57.011719 738.351562 61.535156 750.796875 70.507812 760.324219 C 73.769531 763.785156 77.457031 766.664062 81.449219 768.945312 C 76.921875 761.089844 74.734375 752.109375 75.285156 742.789062 " fill-opacity="1" fill-rule="nonzero"/><path fill="#ffffff" d="M 583.070312 230.09375 C 604.628906 208.519531 638.085938 205.925781 662.558594 222.269531 C 660.265625 218.824219 657.613281 215.578125 654.621094 212.582031 C 630.046875 188.035156 590.097656 188.035156 565.570312 212.582031 L 512.222656 265.964844 C 512.140625 267.042969 512.070312 268.117188 511.953125 269.191406 L 529.453125 286.710938 C 529.570312 285.628906 529.644531 284.554688 529.722656 283.476562 L 583.070312 230.09375 " fill-opacity="1" fill-rule="nonzero"/><path fill="#ffffff" d="M 460.546875 392.390625 C 459.292969 383.828125 458.804688 375.246094 460.585938 366.296875 C 463.851562 349.914062 479.6875 337.183594 490.363281 325.03125 C 499.257812 314.910156 514.945312 300.464844 523.835938 290.339844 C 529.75 290.339844 522.914062 290.46875 528.335938 293.800781 C 533.355469 296.886719 537.871094 302.636719 542.160156 306.683594 C 551.074219 315.09375 559.890625 323.605469 568.675781 332.148438 L 511.210938 274.644531 C 507.691406 296.25 497.300781 316.273438 484.597656 316.273438 C 483.671875 316.273438 482.722656 316.148438 481.734375 315.898438 C 471.929688 341.289062 457.203125 362.769531 439.320312 379.109375 C 439.320312 379.109375 447.378906 403.019531 447.386719 403.03125 C 449.214844 408.445312 452.75 413.21875 457.371094 416.574219 C 463.351562 420.921875 465.527344 420.378906 464.273438 413.148438 C 463.054688 406.125 461.550781 399.265625 460.546875 392.390625 " fill-opacity="1" fill-rule="nonzero"/><path fill="#ffffff" d="M 362.367188 461.28125 C 362.9375 460.296875 363.730469 459.515625 364.660156 458.96875 L 355.890625 443.769531 C 354.742188 441.773438 352.679688 440.582031 350.378906 440.582031 C 348.078125 440.582031 346.019531 441.773438 344.867188 443.769531 L 159.234375 765.515625 C 158.085938 767.507812 158.085938 769.890625 159.234375 771.882812 C 160.371094 773.851562 162.398438 775.03125 164.667969 775.054688 L 181.335938 775.054688 L 362.367188 461.28125 " fill-opacity="1" fill-rule="nonzero"/><path fill="#ffffff" d="M 392.675781 52.753906 L 420.378906 52.742188 L 428.726562 35.222656 L 366.914062 35.242188 L 350.914062 94.96875 C 351.136719 95.28125 351.3125 95.632812 351.339844 96.050781 C 351.40625 96.992188 350.863281 97.816406 350.050781 98.183594 L 339.089844 139.109375 L 361.285156 139.101562 L 382.277344 60.734375 C 383.539062 56.027344 387.800781 52.753906 392.675781 52.753906 " fill-opacity="1" fill-rule="nonzero"/><path fill="#ffffff" d="M 385.988281 144.15625 C 385.324219 142.910156 384.316406 141.730469 382.859375 140.644531 C 379.667969 138.261719 374.511719 138.394531 372.175781 141.621094 C 370.324219 144.179688 370.683594 147.644531 370.410156 150.796875 C 370.011719 155.335938 367.996094 158.582031 365.648438 162.308594 C 364.175781 164.648438 363.800781 167.320312 362.992188 169.976562 C 361.300781 175.550781 359.613281 181.125 357.921875 186.703125 C 354.207031 198.953125 350.496094 211.203125 346.78125 223.453125 C 344.976562 229.402344 343.171875 235.351562 341.367188 241.300781 C 341.367188 241.300781 372.902344 197.488281 372.902344 197.488281 C 375.210938 190.023438 377.519531 182.558594 379.832031 175.097656 C 381.65625 169.199219 383.476562 163.308594 385.300781 157.410156 C 386.726562 152.8125 388.113281 148.144531 385.988281 144.15625 " fill-opacity="1" fill-rule="nonzero"/><g clip-path="url(#7871c94a25)"><path fill="#001259" d="M 620.378906 542.832031 C 617.890625 542.832031 615.515625 541.414062 614.414062 539.007812 C 612.894531 535.714844 614.339844 531.8125 617.632812 530.296875 C 665.320312 508.339844 704.089844 472.386719 729.757812 426.316406 C 796.203125 307.136719 753.390625 156.097656 634.324219 89.621094 C 631.90625 88.273438 629.484375 86.96875 627.042969 85.710938 C 561.804688 52.042969 482.03125 51.617188 413.632812 84.585938 L 413.207031 84.792969 C 409.9375 86.367188 406.011719 85 404.441406 81.734375 C 402.863281 78.46875 404.234375 74.542969 407.496094 72.964844 L 407.929688 72.753906 C 480.023438 38.003906 564.183594 38.488281 633.054688 74.039062 C 635.625 75.359375 638.179688 76.734375 640.726562 78.15625 C 701.457031 112.0625 745.363281 167.625 764.34375 234.601562 C 783.320312 301.574219 775.109375 371.929688 741.21875 432.71875 C 714.195312 481.230469 673.355469 519.097656 623.113281 542.230469 C 622.226562 542.640625 621.292969 542.832031 620.378906 542.832031 " fill-opacity="1" fill-rule="nonzero"/></g><path fill="#001259" d="M 271.175781 386.914062 C 268.027344 386.914062 265.402344 384.738281 264.761719 381.792969 L 264.453125 380.820312 C 264.292969 380.304688 264.140625 379.796875 263.96875 379.3125 C 263.726562 378.617188 263.605469 377.886719 263.605469 377.152344 C 263.605469 373.523438 266.542969 370.5625 270.167969 370.5625 C 273.207031 370.5625 275.765625 372.617188 276.511719 375.421875 C 276.675781 375.917969 276.835938 376.429688 276.992188 376.945312 L 277.398438 378.230469 C 277.625 378.898438 277.734375 379.597656 277.734375 380.304688 C 277.734375 383.933594 274.800781 386.914062 271.175781 386.914062 " fill-opacity="1" fill-rule="nonzero"/><path fill="#001259" d="M 324.421875 481.421875 C 320.796875 481.421875 317.859375 478.503906 317.859375 474.878906 L 317.859375 474.832031 C 317.859375 471.207031 320.796875 468.265625 324.421875 468.265625 C 328.046875 468.265625 330.984375 471.207031 330.984375 474.832031 C 330.984375 478.460938 328.046875 481.421875 324.421875 481.421875 " fill-opacity="1" fill-rule="nonzero"/><path fill="#001259" d="M 462.945312 432.777344 C 459.644531 432.777344 456.910156 430.351562 456.453125 427.179688 C 456.144531 425.175781 456.75 423.058594 458.285156 421.523438 C 460.847656 418.960938 464.976562 418.933594 467.542969 421.503906 C 468.773438 422.734375 469.511719 424.449219 469.511719 426.1875 C 469.511719 429.820312 466.574219 432.777344 462.945312 432.777344 " fill-opacity="1" fill-rule="nonzero"/><path fill="#001259" d="M 652.882812 313.09375 C 651.203125 313.09375 649.523438 312.453125 648.242188 311.171875 C 645.675781 308.609375 645.675781 304.449219 648.242188 301.886719 L 651.523438 298.601562 C 662.589844 287.566406 668.675781 272.84375 668.675781 257.140625 C 668.675781 241.476562 662.585938 226.75 651.523438 215.679688 C 628.664062 192.84375 591.488281 192.835938 568.660156 215.679688 L 514.75 269.625 C 512.1875 272.1875 508.03125 272.1875 505.46875 269.625 C 502.90625 267.058594 502.90625 262.898438 505.46875 260.335938 L 559.378906 206.390625 C 587.316406 178.4375 632.820312 178.433594 660.800781 206.386719 C 674.347656 219.941406 681.804688 237.96875 681.804688 257.140625 C 681.804688 276.359375 674.347656 294.386719 660.800781 307.898438 L 657.523438 311.171875 C 656.242188 312.453125 654.5625 313.09375 652.882812 313.09375 " fill-opacity="1" fill-rule="nonzero"/><path fill="#001259" d="M 505.554688 441.6875 C 502.320312 441.6875 499.5 439.292969 499.058594 435.996094 C 498.574219 432.402344 501.09375 429.09375 504.6875 428.613281 C 517.519531 426.882812 529.117188 421.128906 538.238281 411.964844 L 560.777344 389.40625 C 563.339844 386.839844 567.496094 386.839844 570.058594 389.40625 C 572.625 391.96875 572.625 396.128906 570.058594 398.695312 L 547.53125 421.242188 C 536.363281 432.460938 522.152344 439.515625 506.441406 441.632812 C 506.140625 441.667969 505.851562 441.6875 505.554688 441.6875 " fill-opacity="1" fill-rule="nonzero"/><path fill="#001259" d="M 571.414062 338.359375 C 569.734375 338.359375 568.050781 337.71875 566.773438 336.433594 L 505.015625 274.636719 C 502.453125 272.074219 502.453125 267.910156 505.015625 265.347656 C 507.578125 262.785156 511.730469 262.785156 514.296875 265.347656 L 576.054688 327.148438 C 578.617188 329.714844 578.617188 333.871094 576.054688 336.433594 C 574.773438 337.71875 573.09375 338.359375 571.414062 338.359375 " fill-opacity="1" fill-rule="nonzero"/><path fill="#001259" d="M 627.457031 308.128906 C 611.972656 308.128906 596.488281 314.019531 584.699219 325.820312 C 561.121094 349.414062 561.121094 387.804688 584.699219 411.398438 C 608.277344 434.992188 646.636719 434.992188 670.214844 411.398438 C 693.792969 387.804688 693.792969 349.414062 670.214844 325.820312 C 658.425781 314.019531 642.941406 308.128906 627.457031 308.128906 Z M 627.457031 442.222656 C 608.613281 442.222656 589.765625 435.042969 575.414062 420.683594 C 546.71875 391.96875 546.71875 345.25 575.414062 316.535156 C 604.109375 287.820312 650.804688 287.820312 679.496094 316.535156 C 708.191406 345.25 708.191406 391.96875 679.496094 420.683594 C 665.148438 435.042969 646.300781 442.222656 627.457031 442.222656 " fill-opacity="1" fill-rule="nonzero"/><path fill="#001259" d="M 598.855469 403.792969 C 597.175781 403.792969 595.496094 403.152344 594.21875 401.871094 C 591.652344 399.308594 591.652344 395.148438 594.21875 392.582031 L 651.09375 335.664062 C 653.65625 333.097656 657.8125 333.097656 660.378906 335.664062 C 662.9375 338.230469 662.9375 342.390625 660.378906 344.953125 L 603.5 401.871094 C 602.214844 403.152344 600.535156 403.792969 598.855469 403.792969 " fill-opacity="1" fill-rule="nonzero"/><g clip-path="url(#26a7ddc791)"><path fill="#001259" d="M 604.007812 783.816406 L 104.605469 783.816406 C 89.132812 783.816406 74.765625 777.605469 64.140625 766.332031 C 53.496094 755.03125 48.132812 740.265625 49.046875 724.757812 C 54.328125 636.328125 72.132812 564.988281 86.140625 520.707031 C 98.6875 481.140625 129.96875 450.335938 169.824219 438.289062 L 241.710938 416.53125 C 248.917969 414.355469 254.664062 408.78125 257.082031 401.625 L 264.835938 378.644531 C 264.875 378.5 264.917969 378.359375 264.964844 378.21875 L 265.578125 376.429688 C 266.75 372.996094 270.488281 371.175781 273.910156 372.339844 C 277.34375 373.511719 279.171875 377.25 277.996094 380.679688 L 277.507812 382.113281 C 277.472656 382.242188 277.433594 382.371094 277.394531 382.492188 L 269.519531 405.828125 C 265.742188 417.003906 256.765625 425.703125 245.507812 429.105469 L 173.621094 450.863281 C 137.914062 461.65625 109.886719 489.25 98.652344 524.675781 C 84.871094 568.242188 67.347656 638.457031 62.152344 725.535156 C 61.453125 737.390625 65.550781 748.679688 73.691406 757.320312 C 81.808594 765.9375 92.785156 770.679688 104.605469 770.679688 L 604.007812 770.679688 C 615.832031 770.679688 626.804688 765.9375 634.917969 757.320312 C 643.058594 748.683594 647.160156 737.390625 646.464844 725.53125 C 642.59375 660.816406 631.699219 597.761719 614.078125 538.125 C 612.691406 533.429688 611.300781 528.953125 609.953125 524.652344 C 608.328125 519.484375 606.273438 514.363281 603.851562 509.433594 C 590.085938 481.257812 564.992188 459.914062 534.996094 450.863281 L 503.886719 441.460938 C 503.609375 441.386719 503.335938 441.292969 503.074219 441.1875 L 463.105469 429.105469 C 451.847656 425.703125 442.875 417.003906 439.097656 405.835938 L 430.605469 380.652344 C 429.449219 377.214844 431.292969 373.492188 434.726562 372.332031 C 438.179688 371.171875 441.890625 373.019531 443.042969 376.453125 L 451.53125 401.628906 C 453.949219 408.78125 459.695312 414.355469 466.902344 416.53125 L 507.460938 428.789062 C 507.664062 428.851562 507.863281 428.921875 508.054688 429 L 538.789062 438.289062 C 572.265625 448.390625 600.28125 472.214844 615.640625 503.648438 C 618.34375 509.160156 620.648438 514.90625 622.480469 520.714844 C 623.847656 525.089844 625.257812 529.636719 626.667969 534.398438 C 644.574219 594.996094 655.640625 659.039062 659.566406 724.753906 C 660.480469 740.265625 655.117188 755.035156 644.472656 766.332031 C 633.851562 777.605469 619.480469 783.816406 604.007812 783.816406 " fill-opacity="1" fill-rule="nonzero"/></g><path fill="#001259" d="M 314.097656 499.308594 C 313.332031 499.308594 312.558594 499.175781 311.800781 498.894531 C 286.371094 489.402344 265.414062 471.863281 251.199219 448.179688 L 237.988281 426.203125 C 236.117188 423.09375 237.121094 419.0625 240.226562 417.191406 C 243.335938 415.316406 247.367188 416.328125 249.234375 419.429688 L 262.445312 441.410156 C 275.121094 462.523438 293.773438 478.140625 316.390625 486.585938 C 319.785156 487.855469 321.511719 491.636719 320.246094 495.035156 C 319.261719 497.675781 316.753906 499.308594 314.097656 499.308594 " fill-opacity="1" fill-rule="nonzero"/><path fill="#001259" d="M 387.949219 501.5 C 385.136719 501.5 382.535156 499.675781 381.675781 496.839844 C 380.617188 493.367188 382.574219 489.703125 386.042969 488.644531 C 411.453125 480.921875 432.238281 464.589844 446.164062 441.414062 L 457.070312 423.269531 C 457.15625 423.097656 457.246094 422.929688 457.339844 422.773438 L 459.398438 419.398438 C 461.285156 416.300781 465.316406 415.324219 468.421875 417.210938 C 471.511719 419.101562 472.492188 423.140625 470.605469 426.242188 L 468.804688 429.191406 C 468.730469 429.335938 468.65625 429.476562 468.570312 429.617188 L 457.414062 448.183594 C 442.011719 473.816406 418.019531 492.648438 389.859375 501.214844 C 389.226562 501.40625 388.582031 501.5 387.949219 501.5 " fill-opacity="1" fill-rule="nonzero"/><path fill="#001259" d="M 522.976562 735.5625 C 519.351562 735.5625 516.414062 732.625 516.414062 728.996094 L 516.414062 604.34375 C 516.414062 600.71875 519.351562 597.777344 522.976562 597.777344 C 526.605469 597.777344 529.542969 600.71875 529.542969 604.34375 L 529.542969 728.996094 C 529.542969 732.625 526.605469 735.5625 522.976562 735.5625 " fill-opacity="1" fill-rule="nonzero"/><path fill="#001259" d="M 185.59375 722.035156 C 181.964844 722.035156 179.027344 719.097656 179.027344 715.464844 L 179.027344 604.347656 C 179.027344 600.71875 181.964844 597.777344 185.59375 597.777344 C 189.21875 597.777344 192.15625 600.71875 192.15625 604.347656 L 192.15625 715.464844 C 192.15625 719.097656 189.21875 722.035156 185.59375 722.035156 " fill-opacity="1" fill-rule="nonzero"/><path fill="#001259" d="M 354.304688 418.039062 C 298.808594 418.039062 248.199219 380.003906 224.050781 320.652344 C 224.039062 320.652344 224.027344 320.652344 224.011719 320.652344 C 203.226562 320.652344 191.730469 284.351562 191.730469 259.261719 C 191.730469 233.078125 203.203125 223.023438 211.148438 219.203125 C 211.355469 217.550781 211.585938 215.910156 211.832031 214.285156 C 222.214844 146.15625 278.132812 94.929688 347.808594 89.71875 C 351.4375 89.421875 354.574219 92.160156 354.84375 95.777344 C 355.113281 99.390625 352.402344 102.542969 348.789062 102.8125 C 286.253906 107.496094 234.117188 155.207031 224.808594 216.265625 C 224.394531 218.996094 224.035156 221.765625 223.738281 224.574219 C 223.460938 227.230469 221.601562 229.449219 219.039062 230.191406 C 209.894531 232.839844 204.859375 243.164062 204.859375 259.261719 C 204.859375 283.660156 215.828125 307.515625 224.011719 307.515625 C 224.289062 307.515625 224.804688 307.441406 225.675781 307.082031 C 227.316406 306.40625 229.171875 306.421875 230.796875 307.136719 C 232.429688 307.847656 233.699219 309.191406 234.320312 310.855469 C 255.640625 367.988281 302.738281 404.902344 354.304688 404.902344 C 405.871094 404.902344 452.96875 367.988281 474.289062 310.855469 C 474.910156 309.191406 476.183594 307.847656 477.808594 307.136719 C 479.4375 306.425781 481.289062 306.40625 482.929688 307.082031 C 483.632812 307.367188 484.195312 307.515625 484.597656 307.515625 C 492.789062 307.515625 503.753906 283.660156 503.753906 259.261719 C 503.753906 243.164062 498.71875 232.839844 489.574219 230.191406 C 487.011719 229.449219 485.148438 227.230469 484.875 224.574219 C 484.128906 217.523438 482.984375 210.597656 481.472656 203.972656 C 474.777344 174.6875 457.105469 148.042969 431.714844 128.953125 C 428.816406 126.777344 428.230469 122.660156 430.40625 119.761719 C 432.582031 116.859375 436.699219 116.273438 439.597656 118.453125 C 467.464844 139.402344 486.878906 168.734375 494.265625 201.046875 C 495.609375 206.921875 496.679688 213.015625 497.460938 219.203125 C 505.40625 223.023438 516.878906 233.078125 516.878906 259.261719 C 516.878906 284.351562 505.386719 320.652344 484.597656 320.652344 C 484.589844 320.652344 484.574219 320.652344 484.558594 320.652344 C 460.410156 380.003906 409.804688 418.039062 354.304688 418.039062 " fill-opacity="1" fill-rule="nonzero"/><g clip-path="url(#25cc5329a6)"><path fill="#001259" d="M 536.007812 783.824219 C 532.382812 783.824219 529.445312 780.886719 529.445312 777.257812 C 529.445312 773.628906 532.382812 770.691406 536.007812 770.691406 C 537.007812 770.691406 537.519531 770.066406 537.734375 769.691406 C 537.945312 769.320312 538.234375 768.566406 537.734375 767.703125 L 352.101562 445.960938 C 351.601562 445.09375 350.808594 444.964844 350.378906 444.964844 C 349.949219 444.964844 349.152344 445.09375 348.65625 445.960938 L 163.023438 767.703125 C 162.523438 768.566406 162.8125 769.320312 163.023438 769.691406 C 163.238281 770.066406 163.75 770.691406 164.746094 770.691406 C 168.375 770.691406 171.3125 773.628906 171.3125 777.257812 C 171.3125 780.886719 168.375 783.824219 164.746094 783.824219 C 159.28125 783.824219 154.390625 781 151.65625 776.261719 C 148.925781 771.527344 148.925781 765.871094 151.660156 761.136719 L 337.289062 439.390625 C 340.019531 434.65625 344.914062 431.828125 350.378906 431.828125 C 355.84375 431.828125 360.734375 434.65625 363.46875 439.390625 L 549.101562 761.136719 C 551.832031 765.871094 551.832031 771.527344 549.101562 776.261719 C 546.371094 781 541.472656 783.824219 536.007812 783.824219 " fill-opacity="1" fill-rule="nonzero"/></g><path fill="#001259" d="M 350.378906 536.40625 C 347.066406 536.40625 343.96875 537.714844 341.65625 540.089844 C 339.34375 542.46875 338.121094 545.601562 338.210938 548.917969 L 341.226562 660.554688 C 341.359375 665.554688 345.382812 669.472656 350.378906 669.472656 C 355.378906 669.472656 359.402344 665.554688 359.535156 660.554688 L 362.550781 548.917969 C 362.636719 545.601562 361.414062 542.46875 359.101562 540.089844 C 356.789062 537.714844 353.695312 536.40625 350.378906 536.40625 Z M 350.378906 682.605469 C 338.21875 682.605469 328.433594 673.078125 328.101562 660.910156 L 325.089844 549.269531 C 324.902344 542.382812 327.445312 535.867188 332.25 530.929688 C 337.054688 525.992188 343.492188 523.269531 350.378906 523.269531 C 357.269531 523.269531 363.703125 525.992188 368.511719 530.929688 C 373.3125 535.867188 375.855469 542.382812 375.667969 549.269531 L 372.65625 660.910156 C 372.328125 673.078125 362.542969 682.605469 350.378906 682.605469 " fill-opacity="1" fill-rule="nonzero"/><path fill="#001259" d="M 350.378906 709.746094 C 343.855469 709.746094 338.542969 715.058594 338.542969 721.589844 C 338.542969 728.121094 343.855469 733.433594 350.378906 733.433594 C 356.90625 733.433594 362.21875 728.121094 362.21875 721.589844 C 362.21875 715.058594 356.90625 709.746094 350.378906 709.746094 Z M 350.378906 746.566406 C 336.613281 746.566406 325.417969 735.363281 325.417969 721.589844 C 325.417969 707.816406 336.613281 696.613281 350.378906 696.613281 C 364.144531 696.613281 375.34375 707.816406 375.34375 721.589844 C 375.34375 735.363281 364.144531 746.566406 350.378906 746.566406 " fill-opacity="1" fill-rule="nonzero"/><g clip-path="url(#2b1a774e09)"><path fill="#001259" d="M 348.300781 96.261719 L 348.347656 96.261719 Z M 369.40625 134.71875 C 371.484375 134.71875 373.4375 135.703125 374.675781 137.375 C 375.914062 139.046875 376.289062 141.207031 375.6875 143.195312 L 352.398438 220 L 441.386719 105.644531 L 400.71875 105.65625 C 398.46875 105.65625 396.371094 104.5 395.167969 102.59375 C 393.964844 100.6875 393.824219 98.296875 394.792969 96.261719 L 421.792969 39.597656 L 370.273438 39.613281 L 354.640625 97.960938 L 344.792969 134.730469 L 369.402344 134.71875 Z M 335.851562 258.519531 C 334.828125 258.519531 333.796875 258.28125 332.835938 257.785156 C 330.027344 256.324219 328.65625 253.074219 329.574219 250.042969 L 360.554688 147.855469 L 336.238281 147.867188 C 334.199219 147.867188 332.269531 146.917969 331.03125 145.296875 C 329.785156 143.679688 329.367188 141.570312 329.898438 139.597656 L 358.894531 31.347656 C 359.664062 28.476562 362.261719 26.484375 365.234375 26.484375 L 432.191406 26.464844 L 432.195312 26.464844 C 434.445312 26.464844 436.539062 27.621094 437.742188 29.527344 C 438.945312 31.429688 439.085938 33.824219 438.117188 35.859375 L 411.121094 92.515625 L 454.820312 92.507812 C 457.324219 92.507812 459.613281 93.933594 460.714844 96.191406 C 461.816406 98.445312 461.539062 101.132812 460 103.109375 L 341.035156 255.984375 C 339.753906 257.625 337.824219 258.519531 335.851562 258.519531 " fill-opacity="1" fill-rule="nonzero"/></g></svg>