<svg xmlns="http://www.w3.org/2000/svg" xmlns:xlink="http://www.w3.org/1999/xlink" width="1080" zoomAndPan="magnify" viewBox="0 0 810 809.999993" height="1080" preserveAspectRatio="xMidYMid meet" version="1.0"><defs><clipPath id="a7d17ba2eb"><path d="M 19.128906 53 L 790.878906 53 L 790.878906 757.140625 L 19.128906 757.140625 Z M 19.128906 53 " clip-rule="nonzero"/></clipPath></defs><rect x="-81" width="972" fill="#ffffff" y="-80.999999" height="971.999992" fill-opacity="1"/><rect x="-81" width="972" fill="#ffffff" y="-80.999999" height="971.999992" fill-opacity="1"/><rect x="-81" width="972" fill="#ffffff" y="-80.999999" height="971.999992" fill-opacity="1"/><g clip-path="url(#a7d17ba2eb)"><path fill="#d32f2f" d="M 38.664062 547.558594 L 283.988281 122.613281 C 284.09375 122.449219 284.199219 122.28125 284.304688 122.117188 C 297.203125 99.976562 314.703125 83.183594 334.570312 71.714844 C 334.75 71.609375 334.929688 71.519531 335.125 71.425781 C 356.601562 59.148438 380.847656 53.035156 405.046875 53.050781 C 429.457031 53.082031 453.882812 59.34375 475.449219 71.804688 C 475.632812 71.894531 475.796875 72 475.960938 72.121094 C 495.859375 83.722656 513.285156 100.566406 526.015625 122.613281 L 771.34375 547.558594 C 771.449219 547.738281 771.539062 547.917969 771.628906 548.085938 C 783.21875 568.339844 789.449219 590.496094 790.171875 612.84375 C 790.90625 635.300781 786.105469 657.890625 775.648438 678.871094 C 763.816406 702.558594 745.96875 721.855469 724.417969 735.355469 C 702.835938 748.882812 677.597656 756.546875 651.050781 756.964844 L 650.945312 756.964844 L 650.375 756.980469 L 650.328125 756.980469 L 650.328125 757.011719 L 159.390625 757.011719 C 159.058594 757.011719 158.742188 756.996094 158.429688 756.964844 C 132.074219 756.453125 107.019531 748.792969 85.585938 735.355469 C 64.050781 721.855469 46.1875 702.558594 34.371094 678.871094 C 23.898438 657.890625 19.097656 635.300781 19.835938 612.84375 C 20.574219 590.316406 26.894531 567.980469 38.664062 547.585938 L 38.675781 547.558594 Z M 38.664062 547.558594 " fill-opacity="1" fill-rule="nonzero"/></g><path fill="#cfd8dc" d="M 70.28125 565.8125 L 315.605469 140.871094 C 315.710938 140.703125 315.816406 140.539062 315.921875 140.371094 C 325.554688 123.894531 338.4375 111.523438 352.992188 103.125 C 353.171875 103.019531 353.351562 102.914062 353.53125 102.835938 C 369.5 93.730469 387.441406 89.382812 405.289062 89.53125 C 423.304688 89.699219 441.289062 94.46875 457.089844 103.589844 C 472.019531 112.214844 485.035156 124.707031 494.382812 140.882812 L 494.398438 140.871094 L 739.722656 565.8125 C 739.828125 565.992188 739.917969 566.175781 740.007812 566.355469 C 749.144531 582.351562 753.449219 599.164062 753.71875 615.570312 C 754.003906 634.214844 749.070312 652.292969 739.996094 668.035156 C 730.949219 683.746094 717.78125 697.140625 701.632812 706.472656 C 686.792969 715.035156 669.441406 720.152344 650.480469 720.453125 L 650.328125 720.453125 L 650.328125 720.5 L 159.675781 720.5 C 159.347656 720.5 159.015625 720.484375 158.699219 720.441406 C 140.050781 720.003906 123 714.917969 108.371094 706.472656 C 92.222656 697.140625 79.054688 683.746094 70.011719 668.035156 C 60.949219 652.292969 56 634.214844 56.285156 615.570312 C 56.554688 599 60.949219 582.007812 70.28125 565.84375 L 70.296875 565.828125 Z M 70.28125 565.8125 " fill-opacity="1" fill-rule="nonzero"/><path fill="#d32f2f" d="M 262.316406 337.5625 C 298.828125 301.050781 349.289062 278.457031 405.003906 278.457031 C 460.714844 278.457031 511.179688 301.050781 547.6875 337.5625 C 584.199219 374.089844 606.789062 424.535156 606.789062 480.253906 C 606.789062 535.96875 584.199219 586.433594 547.6875 622.945312 C 511.179688 659.457031 460.714844 682.046875 405.003906 682.046875 C 349.289062 682.046875 298.828125 659.457031 262.316406 622.945312 C 225.804688 586.433594 203.214844 535.96875 203.214844 480.253906 C 203.214844 424.535156 225.804688 374.089844 262.316406 337.5625 Z M 262.316406 337.5625 " fill-opacity="1" fill-rule="nonzero"/><path fill="#ffee58" d="M 291.136719 366.382812 C 320.289062 337.246094 360.546875 319.230469 405.003906 319.230469 C 449.460938 319.230469 489.71875 337.246094 518.867188 366.382812 C 548.003906 395.535156 566.035156 435.792969 566.035156 480.253906 C 566.035156 524.710938 548.003906 564.96875 518.867188 594.121094 C 489.71875 623.261719 449.460938 641.289062 405.003906 641.289062 C 360.546875 641.289062 320.273438 623.261719 291.136719 594.121094 C 262 564.984375 243.96875 524.710938 243.96875 480.253906 C 243.96875 435.792969 262 395.535156 291.136719 366.382812 Z M 291.136719 366.382812 " fill-opacity="1" fill-rule="nonzero"/><path fill="#d32f2f" d="M 309.601562 534.132812 L 363.464844 480.253906 L 309.601562 426.371094 C 306.066406 422.851562 306.066406 417.132812 309.601562 413.609375 L 338.363281 384.847656 C 341.882812 381.3125 347.601562 381.3125 351.125 384.847656 L 405.003906 438.714844 L 458.878906 384.847656 C 462.402344 381.3125 468.121094 381.3125 471.644531 384.847656 L 500.402344 413.609375 C 503.941406 417.132812 503.941406 422.851562 500.402344 426.371094 L 446.539062 480.253906 L 500.402344 534.132812 C 503.941406 537.652344 503.941406 543.375 500.402344 546.894531 L 471.644531 575.671875 C 468.121094 579.191406 462.402344 579.191406 458.878906 575.671875 L 405.003906 521.792969 L 351.125 575.671875 C 347.601562 579.191406 341.882812 579.191406 338.363281 575.671875 L 309.601562 546.894531 C 306.066406 543.375 306.066406 537.652344 309.601562 534.132812 Z M 309.601562 534.132812 " fill-opacity="1" fill-rule="nonzero"/></svg>